<svg width="114" height="112" viewBox="0 0 114 112" fill="none" xmlns="http://www.w3.org/2000/svg">
<g opacity="0.8" clip-path="url(#clip0_9911_1767)">
<path d="M89.2221 105.339C89.2221 105.339 81.9692 107.038 75.9091 108.231C72.8795 108.83 69.7564 109.541 66.5747 110.105C63.3922 110.671 60.151 111.088 56.8784 111.101C50.3349 111.078 43.907 109.426 37.8469 108.231C31.7868 107.038 24.5322 105.339 24.5322 105.339C24.5322 105.339 26.2764 96.5247 26.5067 94.4577C26.7369 92.3923 26.9654 88.6737 26.9654 88.6737C28.7572 91.1069 29.3536 91.1069 36.6065 92.9437C42.1628 94.3489 46.4447 95.0915 49.9518 95.478L49.9781 95.4797L50.4717 95.9258L50.702 96.0184C50.702 96.0184 51.103 95.8884 51.7877 95.6522L51.8251 95.6564C52.7648 95.7346 53.65 95.7864 54.4869 95.8213C55.3263 95.8561 56.1181 95.8748 56.8767 95.8807C58.3992 95.8663 60.055 95.8111 61.9428 95.6564L61.9692 95.6547C62.6522 95.8892 63.0515 96.0192 63.0515 96.0192L63.2801 95.9266L63.7754 95.478H63.7983C67.3071 95.0915 71.5898 94.3506 77.1461 92.9437C84.4007 91.1069 84.998 91.1069 86.7872 88.6737C86.7872 88.6737 87.0174 92.3923 87.2477 94.4577C87.4762 96.5247 89.2204 105.339 89.2204 105.339H89.2221Z" fill="#273023"/>
<path d="M88.2568 104.714C86.2263 105.183 80.5757 106.471 75.7484 107.421L72.2889 108.13C67.2823 109.175 62.1066 110.255 56.8783 110.273C51.6491 110.255 46.4717 109.175 41.4677 108.13L38.0082 107.421C33.1783 106.47 27.5303 105.183 25.498 104.714C25.9339 102.496 27.1377 96.2825 27.3289 94.5502C27.4504 93.456 27.5719 91.9335 27.6577 90.7161C28.9576 91.8681 30.5947 92.2818 34.9701 93.3821L36.4059 93.744C46.4046 96.2757 52.3619 96.6632 56.8706 96.7082H56.8868C61.3955 96.6632 67.3528 96.2766 77.3516 93.744L78.7873 93.3821C83.1627 92.2818 84.7999 91.8681 86.0997 90.7161C86.1864 91.9335 86.3053 93.456 86.4268 94.5502C86.6205 96.2825 87.8235 102.496 88.2577 104.714H88.2568Z" fill="#F3F5F2"/>
<path d="M79.7558 103.735C78.5894 104.042 77.7032 104.05 76.5631 103.332L77.2793 101.916C78.0771 102.375 78.8196 102.305 79.3667 102.165C79.9716 102.013 80.3335 101.692 80.2426 101.33C80.1585 101.007 79.7363 100.896 79.0065 101.013C77.552 101.243 76.236 101.192 75.8265 99.5773C75.4765 98.2053 76.6718 97.269 78.0456 96.9215C79.0184 96.6726 79.8374 96.7032 80.67 97.0736L80.0566 98.4644C79.5256 98.2427 78.987 98.2605 78.4211 98.4049C77.9751 98.5179 77.5758 98.7694 77.6625 99.1126C77.7754 99.557 78.2283 99.5119 78.8842 99.4125C80.2087 99.2256 81.6878 99.4023 82.0667 100.896C82.4414 102.372 81.2112 103.356 79.755 103.734L79.7558 103.735Z" fill="#273023"/>
<path d="M70.7667 98.0763L70.759 98.0185L71.2238 96.3754L73.0461 96.0645L73.0589 96.1384L72.2874 97.8154L70.7667 98.0763Z" fill="#273023"/>
<path d="M75.2118 102.986L75.482 104.562L70.1976 105.467L69.0659 98.8621L74.2186 97.9794L74.4863 99.5468L71.1746 100.113L71.3369 101.057L74.4591 100.522L74.7182 102.042L71.596 102.576L71.7667 103.576L75.2118 102.986Z" fill="#273023"/>
<path d="M67.5253 99.0837L68.0954 105.761L66.4931 105.897L63.4015 102.54L63.5561 103.996L63.737 106.134L61.8306 106.296L61.2605 99.619L62.8628 99.483L65.9978 102.893C65.8805 102.097 65.8559 101.791 65.8228 101.536L65.6274 99.246L67.5262 99.0837H67.5253Z" fill="#273023"/>
<path d="M57.5359 99.6741L55.6226 99.6656L52.593 106.357L54.6048 106.363L55.0475 105.264L58.0448 105.275L58.4806 106.377L60.5111 106.383L57.5367 99.6733L57.5359 99.6741ZM55.6957 103.679L56.564 101.546L57.4093 103.683L55.6957 103.679Z" fill="#273023"/>
<path d="M48.7759 101.904L52.0366 102.194L51.7732 105.16C51.277 105.97 50.074 106.324 48.786 106.211C46.1447 105.975 45.3019 104.121 45.4557 102.377C45.612 100.632 46.9161 98.9418 49.4232 99.1661C50.3467 99.2485 51.1513 99.5119 51.9491 100.476L50.7562 101.466C50.3102 100.964 49.7299 100.787 49.2814 100.748C48.1956 100.651 47.4318 101.237 47.3146 102.544C47.2381 103.402 47.5924 104.501 48.9356 104.62C49.289 104.65 49.8489 104.634 50.2541 104.391L50.3306 103.533L48.6442 103.383L48.7759 101.903V101.904Z" fill="#273023"/>
<path d="M39.643 97.9962L44.7932 98.8806L44.5238 100.448L41.2122 99.878L41.0499 100.822L44.1721 101.359L43.913 102.877L40.7882 102.34L40.6174 103.34L44.0617 103.932L43.7915 105.508L38.5071 104.601L39.643 97.9962Z" fill="#273023"/>
<path d="M34.2599 101.945L37.3694 102.729L36.9769 104.288L32.0298 103.044L33.6669 96.546L35.5037 97.0082L34.2599 101.945Z" fill="#273023"/>
<path d="M66.2619 89.435L66.2169 89.4639C65.2875 89.9703 64.3776 90.4452 63.5118 90.8768C61.4592 91.9031 59.19 92.8699 57.1391 93.6804L57.1264 93.6991L57.1408 93.7033C58.8459 94.372 60.3803 94.9276 61.489 95.3159C62.5977 95.705 63.2807 95.9267 63.2807 95.9267L63.0522 96.0193C63.0522 96.0193 60.3862 95.1536 57.0354 93.8452L57.0253 93.8639L56.8774 94.1111L56.7253 93.8622L56.7194 93.8461C53.3686 95.1544 50.7026 96.0202 50.7026 96.0202L50.4724 95.9275L50.5098 95.9174C51.0756 95.7321 57.9173 93.4697 63.2833 90.7876C64.166 90.3449 65.0912 89.8615 66.0393 89.3433L66.0682 89.3246C66.1336 89.362 66.1982 89.3985 66.2619 89.4359V89.435Z" fill="#273023"/>
<path d="M65.838 88.2482C65.8567 88.9414 65.9001 89.2252 65.9001 89.2252C65.9578 89.2583 66.0131 89.2906 66.0691 89.3237L66.0402 89.3424C65.0921 89.8607 64.1661 90.3441 63.2842 90.7867C57.9174 93.4689 51.0757 95.7313 50.5124 95.9165L50.4733 95.9267L49.5107 95.0542C49.5107 95.0542 57.9896 92.6354 65.166 88.6279C65.3776 88.509 65.59 88.3892 65.8015 88.2703L65.8389 88.2473L65.838 88.2482Z" fill="#273023"/>
<path d="M70.0222 87.0485L69.9933 87.0689C69.1318 87.5897 68.2678 88.0952 67.4114 88.5812L67.3103 88.6407C66.4667 88.966 65.8992 89.2252 65.8992 89.2252C66.459 88.8429 68.0588 87.7588 69.3281 86.3451L69.3672 86.3L69.3935 86.3349C69.6017 86.5855 69.8115 86.8242 70.0205 87.0485H70.0222Z" fill="#273023"/>
<path d="M47.8566 89.2252C47.8566 89.2252 47.289 88.966 46.4437 88.6407L46.3451 88.5812C45.4896 88.0961 44.623 87.5897 43.7633 87.0689L43.7344 87.0485C43.9442 86.8242 44.1515 86.5855 44.3614 86.3349L44.386 86.3L44.4268 86.3451C45.6961 87.7579 47.2967 88.842 47.8557 89.2252H47.8566Z" fill="#273023"/>
<path d="M56.6124 92.3882L56.6557 92.4069C56.1765 92.5963 55.7118 92.7747 55.2607 92.9438L55.2055 92.9234C53.6261 92.2692 51.9906 91.5454 50.4724 90.7859C49.5897 90.3432 48.6645 89.8598 47.7164 89.3416L47.6875 89.3229C47.7427 89.2898 47.7988 89.2575 47.8566 89.2243C47.8566 89.2243 47.8973 88.9406 47.916 88.2473L47.9551 88.2703C48.1667 88.3892 48.3791 88.509 48.5906 88.6279C51.2507 90.113 54.0908 91.3797 56.6132 92.3882H56.6124Z" fill="#273023"/>
<path d="M58.5776 93.1477C61.8749 94.3779 64.2469 95.0541 64.2469 95.0541L63.2818 95.9267C63.2818 95.9267 60.5648 95.0439 57.1707 93.7152L57.1189 93.6863C57.5777 93.5053 58.0466 93.3184 58.5216 93.1205L58.5768 93.1468L58.5776 93.1477Z" fill="#273023"/>
<path d="M30.5103 63.4905L30.5162 63.8193C30.3412 64.2245 30.1662 64.6459 29.9954 65.0758C29.286 66.865 29.0244 68.9287 29.5944 71.1214L29.5927 71.1979C29.3336 72.5037 29.1238 73.3388 29.1238 73.3388C28.4823 72.835 25.4051 69.1614 23.7077 66.5447C22.0085 63.928 22.3747 61.081 23.0186 57.9588C23.6601 54.8366 24.9914 51.7611 24.9914 51.7611C27.6548 55.1569 30.3191 57.0413 30.5018 62.0912C30.5179 62.55 30.5205 63.0189 30.5103 63.4896V63.4905Z" fill="#273023"/>
<path d="M47.8572 89.2253C46.9847 88.6289 43.5872 86.3333 42.8523 83.7395C42.0911 81.0531 43.4716 77.1263 43.4716 77.1263C46.0654 79.5842 47.6083 81.15 47.8122 84.3589C48.0407 87.9857 47.8572 89.2253 47.8572 89.2253Z" fill="#273023"/>
<path d="M36.7922 81.1908C35.6631 82.065 34.6198 82.7846 33.6428 83.3649L33.5892 83.398C32.3718 83.4702 31.2775 83.7438 29.9955 84.2204C29.0881 84.5577 28.2632 84.9689 27.5665 85.3665L27.4493 85.3648C27.05 85.3631 26.6617 85.3317 26.2769 85.2765C23.4325 84.8627 19.3901 83.1185 19.3901 83.1185C19.3901 83.1185 20.0341 82.4295 23.5225 80.2265C27.0135 78.0236 28.8953 78.8961 31.2818 79.4466C33.6699 79.9954 36.7922 81.1908 36.7922 81.1908Z" fill="#273023"/>
<path d="M47.8571 89.2253C45.5615 90.5557 44.2761 91.4733 41.797 91.4733C39.3179 91.4733 35.6443 89.6382 35.6443 89.6382C35.6443 89.6382 38.95 86.9747 42.2082 87.4335C44.7051 87.7852 47.8562 89.2253 47.8562 89.2253H47.8571Z" fill="#273023"/>
<path d="M33.7625 78.71C33.7625 78.71 32.946 78.9734 31.1254 79.3829L31.0718 79.3973C28.9037 78.8748 27.1077 78.1671 24.0449 79.9138L23.9481 79.8892C23.3848 79.7414 22.8598 79.5213 22.3746 79.2163C20.5378 78.0686 16.7283 75.2216 16.7283 75.2216C16.7283 75.2216 17.2321 74.9463 20.4469 74.304C20.9533 74.2029 21.4223 74.1248 21.8683 74.0738C21.8046 74.0798 21.7409 74.0882 21.6746 74.0967L21.5285 74.0738C19.825 73.8521 18.7843 73.282 17.8752 72.6508C16.0835 71.4121 13.1006 67.7843 13.1006 67.7843C18.7919 66.4989 21.5463 67.2355 24.5309 69.3926C27.5155 71.5505 28.8009 73.4774 28.8009 73.4774C27.1986 73.8104 25.8469 74.0101 24.6915 74.1044L24.6006 74.1188C24.5657 74.1129 24.5326 74.1061 24.4978 74.1027C25.7526 74.304 26.9904 74.8002 28.5707 75.6353C31.6929 77.2895 33.7608 78.7108 33.7608 78.7108L33.7625 78.71Z" fill="#273023"/>
<path d="M25.1765 31.9735C25.304 34.3371 25.3532 36.258 23.214 39.9571L23.1978 39.9902C22.6983 39.0829 22.3296 38.54 22.3296 38.54C22.3296 38.54 19.2668 43.7012 18.4376 46.5516L18.4232 46.6008L18.3782 46.5533C18.1581 46.3043 17.9134 46.0537 17.6356 45.7946L17.6229 45.7572C17.0944 44.2985 16.2363 41.4481 16.4071 38.6768C16.5898 35.6922 18.7027 33.0287 20.2166 31.5148C21.7323 29.9991 24.349 27.7961 24.349 27.7961C24.349 27.7961 25.038 29.4477 25.1757 31.9735H25.1765Z" fill="#273023"/>
<path d="M43.8351 85.6256C44.0076 85.8584 44.1928 86.0843 44.3865 86.3001L44.3619 86.335C43.9796 86.7954 43.5964 87.2092 43.2124 87.5771L43.1793 87.6144C42.8505 87.5405 42.5251 87.4785 42.2082 87.4335C38.95 86.9747 35.6443 89.6382 35.6443 89.6382C35.6443 89.6382 36.3189 89.9754 37.284 90.3603L37.1871 90.3688C35.4124 90.5047 33.9392 90.1921 32.1083 89.7766C28.6318 88.9848 25.3142 86.8821 25.3142 86.8821C25.3142 86.8821 27.2869 85.2305 29.9963 84.2204C32.7056 83.2102 34.5874 83.1176 38.5371 83.8992C41.3612 84.4565 42.9703 85.1456 43.7986 85.6026L43.836 85.6256H43.8351Z" fill="#273023"/>
<path d="M45.7213 79.3412V79.399C45.0977 78.6794 44.3432 77.953 43.4707 77.1263C43.4707 77.1263 42.0901 81.0531 42.8514 83.7395C42.9091 83.9434 42.983 84.1448 43.0714 84.3461L42.9847 84.2696C42.4521 83.782 41.814 83.1134 41.1063 82.2001C39.0393 79.5366 39.1769 78.3429 39.4522 75.8647C39.7274 73.3839 40.6926 71.2736 40.6926 71.2736C41.5651 72.0535 44.7323 74.2581 45.5123 77.5639C45.6456 78.1272 45.7094 78.7304 45.7204 79.3412H45.7213Z" fill="#273023"/>
<path d="M38.5881 87.9968L38.4836 88.0129C39.5907 87.5669 40.9024 87.25 42.2091 87.4326C42.746 87.5091 43.3118 87.634 43.8692 87.7844L43.7952 87.7801C41.5489 87.3952 39.3791 87.8107 38.589 87.9959L38.5881 87.9968Z" fill="#F3F5F2"/>
<path d="M46.6516 89.9304C45.0349 90.8701 43.8089 91.475 41.7971 91.475C40.7113 91.475 39.3987 91.1232 38.2654 90.7265L38.4769 90.7758C39.4828 90.9839 41.2109 91.2898 42.5413 91.2447C43.7511 91.2039 45.2626 90.5922 46.2668 90.1199L46.6516 89.9304Z" fill="#F3F5F2"/>
<path d="M27.4492 85.364C27.0499 85.3623 26.6616 85.3308 26.2768 85.2756C24.6048 85.0326 22.519 84.3292 21.0833 83.7922L21.4741 83.901C22.768 84.251 24.9548 84.7956 26.4399 84.9188C27.0609 84.9723 27.8468 84.8984 28.7151 84.7319L28.8366 84.7072C28.3803 84.9213 27.9538 85.1456 27.5673 85.3657L27.45 85.364H27.4492Z" fill="#F3F5F2"/>
<path d="M22.7868 80.7363L22.6406 80.7898C22.9125 80.6148 23.2064 80.4279 23.5233 80.2265C27.0143 78.0236 28.8961 78.8961 31.2826 79.4466C31.3752 79.467 31.4653 79.4899 31.5579 79.512L31.2248 79.467C30.5621 79.3744 29.6021 79.2512 28.5631 79.1586C26.6337 78.9861 26.2225 79.1934 24.8793 79.8128C24.028 80.2053 23.2464 80.5426 22.7876 80.7363H22.7868Z" fill="#F3F5F2"/>
<path d="M33.5893 83.3979C33.3447 83.4124 33.1042 83.437 32.8672 83.4659L33.038 83.4005C33.6862 83.1329 34.3072 82.8432 34.8731 82.5449L35.1713 82.3801C34.6428 82.7463 34.1348 83.0734 33.6429 83.3656L33.5893 83.3988V83.3979Z" fill="#F3F5F2"/>
<path d="M37.284 90.3603L37.1871 90.3688C35.4123 90.5047 33.9392 90.1921 32.1083 89.7766C30.1007 89.3195 28.1441 88.4249 26.8511 87.7504L27.3362 87.9619C28.659 88.5175 30.8127 89.3399 32.9001 89.7639C33.8873 89.9635 35.1192 90.1173 36.465 90.0621L36.5576 90.0578C36.7734 90.1504 37.018 90.2532 37.284 90.3603Z" fill="#F3F5F2"/>
<path d="M26.9972 73.8138C26.1518 73.954 25.3864 74.0483 24.6931 74.1035L24.6022 74.1179C23.6761 73.9574 22.7493 73.9557 21.6754 74.095L21.5292 74.0721C19.8258 73.8503 18.7851 73.2803 17.876 72.649C16.4199 71.6414 14.171 69.051 13.386 68.1216L13.5669 68.2762C14.075 68.712 14.9407 69.4818 16.097 70.6194C18.0247 72.5114 19.1623 73.4765 21.5726 73.7875C23.1358 73.9871 25.2768 73.9132 26.5894 73.8367L26.9963 73.8138H26.9972Z" fill="#F3F5F2"/>
<path d="M22.4759 62.6741C21.9432 62.5382 21.4496 62.4048 20.9763 62.2672L20.9143 62.2468C20.7206 62.0803 20.5193 61.9197 20.3094 61.7693C18.5202 60.4915 16.8355 59.811 14.8313 59.4347L14.7676 59.3811C13.7515 58.5706 13.0208 57.6514 12.5026 56.5818C11.314 54.1239 10.4373 50.1538 10.4373 50.1538C10.4373 50.1538 13.4669 50.9354 15.6724 51.9906C17.8754 53.0475 19.5745 56.078 20.216 57.3158C20.86 58.5562 22.4742 62.6741 22.4742 62.6741H22.4759Z" fill="#273023"/>
<path d="M24.5905 67.8327L24.4817 67.8242C23.2413 67.7809 22.1488 67.7053 21.1819 67.5914L21.0239 67.5685C20.3468 67.3671 19.6289 67.2355 18.8413 67.1794L18.7241 67.1564C16.8066 66.6747 15.5339 65.9262 14.4787 64.8447C12.5969 62.9153 10.6692 59.0132 10.6692 59.0132C14.7999 59.1984 17.4183 59.7022 20.3103 61.7675C21.2525 62.4421 22.04 63.3206 22.6738 64.2007L22.7214 64.2687C22.9125 65.0461 23.2277 65.8031 23.7086 66.5439C23.9737 66.9534 24.2719 67.3875 24.5913 67.8319L24.5905 67.8327Z" fill="#273023"/>
<path d="M27.1757 71.1775C26.0321 69.7935 24.6541 68.006 23.7077 66.5456C22.3628 64.4743 22.311 62.2586 22.6686 59.8746L22.6627 60.2782C22.6754 61.3249 22.7638 62.7343 23.0866 64.0427C23.6074 66.1429 25.3635 68.6933 26.931 70.8224L27.1757 71.1783V71.1775Z" fill="#F3F5F2"/>
<path d="M34.2475 76.0049L34.2416 76.038C33.8363 77.3506 33.4396 78.0685 33.4396 78.0685C33.4396 78.0685 32.2009 76.5996 30.5476 73.5224C28.896 70.4469 29.0336 67.5082 29.9962 65.0767C30.9614 62.6435 32.1091 60.3929 32.1091 60.3929C32.1091 60.3929 33.2569 61.8619 34.2221 63.8363C34.6995 64.815 34.9705 66.0639 35.0946 67.4071L35.0988 67.4479C34.6545 68.5014 34.1898 69.7435 33.9468 70.8148C33.5619 72.508 33.669 74.2684 34.2492 76.0049H34.2475Z" fill="#273023"/>
<path d="M39.454 75.8647C39.3223 77.0575 39.2212 77.9546 39.3843 78.8595L39.3554 78.9954C38.878 80.9087 38.3538 82.2451 38.3538 82.2451C38.3538 82.2451 36.6996 80.6835 35.2766 78.2503C33.8535 75.8171 33.3948 73.2454 33.9461 70.8147C34.4975 68.3815 36.1967 65.0758 36.1967 65.0758C36.1967 65.0758 39.7182 68.5684 40.0513 72.2837C40.0674 72.4459 40.0776 72.6125 40.0861 72.7773L40.0946 72.9005C39.8414 73.7093 39.5806 74.75 39.4548 75.8647H39.454Z" fill="#273023"/>
<path d="M30.315 73.0653C28.9098 70.1564 29.0806 67.3884 29.9964 65.0758C30.0516 64.9357 30.1077 64.798 30.1655 64.6604L30.1018 64.9544C29.9208 65.8269 29.6778 67.2542 29.6982 68.4844C29.7211 69.7579 29.8053 71.333 30.2657 72.8512L30.315 73.0653Z" fill="#F3F5F2"/>
<path d="M22.8148 64.6196L22.7426 64.5397C20.5023 61.6563 18.826 61.0199 17.7479 60.4957C16.8966 60.0803 15.4481 59.6648 14.5042 59.4176L14.1091 59.3131C16.4378 59.6589 18.3078 60.342 20.3085 61.7693C21.2507 62.4438 22.0383 63.3223 22.6721 64.2025L22.7197 64.2704C22.7486 64.3877 22.7817 64.5049 22.814 64.6205L22.8148 64.6196Z" fill="#F3F5F2"/>
<path d="M25.197 51.8724L25.1596 51.971C25.1044 51.9013 25.0466 51.8308 24.9906 51.7611C24.9906 51.7611 23.898 54.2869 23.2158 57.0846L23.0637 57.4075C22.2056 59.1559 21.7655 59.9358 21.5769 60.2502L21.5336 60.3283C21.0629 59.1788 20.5277 57.9138 20.2167 57.3149C20.0664 57.0252 19.8591 56.636 19.5974 56.1977L19.5422 56.0787C19.131 55.089 18.7623 54.1391 18.5652 53.4603C18.0138 51.5759 17.6459 49.5565 18.3799 46.7562C19.1165 43.9543 22.3297 38.5382 22.3297 38.5382C22.3297 38.5382 24.6252 41.934 25.5428 45.8837C25.9786 47.7596 25.7221 49.887 25.197 51.8716V51.8724Z" fill="#273023"/>
<path d="M21.34 59.8577L21.1964 59.6105C20.5482 58.4109 19.6086 56.6837 19.024 55.6404C18.0589 53.9183 16.8542 53.0916 15.8559 52.3678C15.4447 52.0696 15.0208 51.8079 14.6648 51.6006L14.3318 51.4137C14.7906 51.593 15.2468 51.7858 15.6733 51.9897C17.8763 53.0466 19.5754 56.0771 20.2169 57.3149C20.4845 57.8315 20.922 58.8476 21.34 59.8577Z" fill="#F3F5F2"/>
<path d="M23.7553 55.1553C23.5659 55.7619 23.3789 56.4144 23.2167 57.0847L23.0646 57.4075C22.2065 59.156 21.7664 59.9359 21.5778 60.2502L21.5345 60.3284C21.4827 60.2026 21.4317 60.0778 21.3782 59.9503L21.4521 59.8331C21.6475 59.5017 22.0425 58.8008 22.7086 57.4653C23.0153 56.8527 23.328 56.1773 23.6279 55.4722L23.7553 55.1553Z" fill="#F3F5F2"/>
<path d="M25.1969 51.8725L25.1595 51.9711C25.1043 51.9014 25.0466 51.8309 24.9905 51.7612L25.0788 51.5182C25.1961 51.1232 25.3031 50.7409 25.3932 50.3705C25.7364 48.972 25.6506 47.1964 25.5368 46.0631L25.4917 45.674C25.5079 45.7436 25.5249 45.8141 25.541 45.8838C25.9768 47.7597 25.7203 49.887 25.1952 51.8717L25.1969 51.8725Z" fill="#F3F5F2"/>
<path d="M20.3305 42.1761L20.2115 42.6681C20.0365 43.3571 19.7859 44.2831 19.5412 44.933C18.8522 46.758 18.2371 48.4792 18.2677 49.8224C18.2906 50.9354 18.5183 52.8486 19.0722 54.7593L19.0986 54.9811C18.8768 54.4076 18.6891 53.8826 18.5659 53.4612C18.0145 51.5768 17.6466 49.5573 18.3807 46.7571C18.7078 45.5125 19.5242 43.7496 20.3305 42.1761Z" fill="#F3F5F2"/>
<path d="M19.1191 55.0304L19.0018 55.0117C18.9628 55.0057 18.9237 54.9989 18.8846 54.993L18.8149 54.9768C17.9925 53.8044 16.9119 52.5844 15.674 51.9897C14.9153 51.6278 14.0573 51.2964 13.2612 51.0186L13.2119 50.9388C12.9035 50.4248 12.6487 49.8691 12.4592 49.2812C11.7286 47.0001 11.5867 41.7981 11.5867 41.7981C11.5867 41.7981 14.6163 43.2687 16.6842 44.9662C17.3791 45.538 17.9348 46.0486 18.3791 46.5541L18.4241 46.6016C18.4097 46.6552 18.3952 46.7061 18.3808 46.758C17.6468 49.5573 18.0146 51.5777 18.566 53.462C18.6917 53.8962 18.8871 54.4391 19.1191 55.0312V55.0304Z" fill="#273023"/>
<path d="M22.7204 64.2696L22.6729 64.2016C22.5887 64.0843 22.5021 63.9688 22.4137 63.8541L22.401 63.8252C22.2098 63.3749 22.0365 62.945 21.8844 62.5372L21.8759 62.5169C22.0714 62.5687 22.2685 62.6197 22.4749 62.6732C22.4749 62.6732 22.0433 61.5747 21.5387 60.3402L21.5327 60.3275L21.5489 60.3011L21.5548 60.3156C21.8301 60.9859 22.1393 61.6732 22.4741 62.3724L22.4825 62.3869C22.497 63.0181 22.5667 63.6375 22.7153 64.2466L22.7196 64.2696H22.7204Z" fill="#273023"/>
<path d="M22.4137 63.8541C22.2446 63.6341 22.0662 63.4157 21.8767 63.2016L21.8725 63.1872C21.7714 62.934 21.6771 62.6893 21.5887 62.4506L21.5845 62.4362C21.6813 62.4625 21.7782 62.4897 21.8767 62.516L21.8852 62.5364C22.0373 62.9434 22.2106 63.3733 22.4018 63.8244L22.4145 63.8533L22.4137 63.8541Z" fill="#273023"/>
<path d="M18.4233 46.6007C18.4089 46.6543 18.3945 46.7052 18.38 46.7571C18.3698 46.8021 18.3571 46.8497 18.3452 46.8947L18.2713 46.8021C17.4981 45.893 16.3724 44.8625 15.6282 44.21L15.4226 44.0273C15.8584 44.3255 16.2883 44.6424 16.6834 44.9653C17.3784 45.5371 17.934 46.0477 18.3783 46.5532L18.4233 46.6007Z" fill="#F3F5F2"/>
<path d="M23.2141 39.9562L23.1979 39.9894C23.1427 39.8866 23.0866 39.7897 23.0356 39.6971L23.0603 39.6538C23.4018 39.0837 24.0331 37.9181 24.5335 36.3234C24.9226 35.083 25.1035 33.773 25.1851 32.8265L25.2055 32.5691C25.2981 34.6752 25.1706 36.5723 23.2141 39.9554V39.9562Z" fill="#F3F5F2"/>
<path d="M18.006 46.1565C17.8888 46.0375 17.7656 45.916 17.6356 45.7945L17.6229 45.7572C17.0944 44.2984 16.2363 41.4481 16.4071 38.6767C16.4691 37.6521 16.7588 36.6692 17.1726 35.7542L17.0613 36.1016C16.7096 37.235 16.3434 39.0208 16.6475 40.9706C17.0545 43.5848 17.701 45.3791 17.9517 46.0163L18.0052 46.1565H18.006Z" fill="#F3F5F2"/>
<path d="M42.4267 84.9773C41.6001 84.6562 40.4888 84.3112 39.0207 83.9986L38.9612 83.9553C37.9349 83.2391 36.9639 82.5212 36.0778 81.816L36.0242 81.7727C36.2749 81.5858 36.5323 81.3921 36.794 81.1907C36.794 81.1907 35.6954 80.771 34.3047 80.3148L34.2639 80.28C34.0744 80.1075 33.8918 79.9367 33.7168 79.7677C33.4534 79.5102 33.196 79.2613 32.9513 79.0166L32.8935 78.9546C33.4857 78.8 33.7635 78.7099 33.7635 78.7099C33.7635 78.7099 32.7227 77.9963 31.0049 76.9904L30.9327 76.9165C29.8919 75.7746 29.0279 74.7152 28.2276 73.6396L28.197 73.6005C28.3941 73.5615 28.598 73.5207 28.8036 73.4773C28.8036 73.4773 28.0076 72.282 26.2115 70.7213L26.1521 70.6244C25.8496 70.1555 25.5412 69.6704 25.2226 69.1623C24.9508 68.7282 24.6942 68.3042 24.4529 67.8888L24.4138 67.8234C24.4368 67.8251 24.4588 67.8251 24.4818 67.8251L24.5905 67.8336L24.6135 67.8667C26.3288 70.2566 28.5853 72.9166 29.1248 73.3406C29.1248 73.3406 29.1375 73.293 29.1596 73.2046L29.1944 73.248C29.5504 73.7297 29.9106 74.2046 30.2725 74.671C32.3625 77.3676 35.0999 79.822 38.1813 82.0887L38.2077 82.1032C38.3003 82.1975 38.3538 82.2468 38.3538 82.2468C38.3538 82.2468 38.3555 82.2383 38.3623 82.2238L38.3971 82.2468C39.6358 83.1499 40.9289 84.0241 42.2559 84.8711L42.4267 84.9782V84.9773Z" fill="#273023"/>
<path d="M31.004 76.9904C30.7899 76.8647 30.5682 76.7355 30.3337 76.6013L30.2887 76.5478C29.4144 75.5623 28.6659 74.6303 27.9642 73.6864L27.9353 73.649C28.022 73.6329 28.1078 73.6159 28.1961 73.5997L28.2267 73.6388C29.027 74.7144 29.891 75.7738 30.9318 76.9157L31.004 76.9896V76.9904Z" fill="#273023"/>
<path d="M26.1518 70.6237L26.2113 70.7205C26.0202 70.554 25.8146 70.3815 25.6005 70.2065C25.6005 70.2065 24.8826 69.0774 24.829 68.9908C24.5886 68.5999 24.3601 68.2176 24.1443 67.843L24.1196 67.8124C24.2165 67.8166 24.315 67.8209 24.4136 67.8226L24.4527 67.888C24.6931 68.3034 24.9505 68.7274 25.2224 69.1615C25.541 69.6696 25.8494 70.1547 26.1518 70.6237Z" fill="#273023"/>
<path d="M34.2622 80.2792L34.303 80.314C34.1407 80.2605 33.9742 80.207 33.8051 80.1535L33.7575 80.1161C33.6649 80.0294 33.5749 79.9436 33.4857 79.857C33.2019 79.5834 32.93 79.3183 32.6667 79.0567L32.6335 79.0218C32.7261 78.9972 32.8103 78.9768 32.891 78.9539L32.9487 79.0159C33.1934 79.2606 33.4508 79.5095 33.7142 79.7669C33.8892 79.936 34.0719 80.1059 34.2613 80.2792H34.2622Z" fill="#273023"/>
<path d="M38.9603 83.9553L39.0198 83.9986C38.8635 83.9655 38.7012 83.9332 38.5364 83.9001C38.5304 83.8984 38.5236 83.8984 38.5177 83.8958L38.4209 83.8304C37.522 83.1966 36.6682 82.5637 35.8823 81.9384L35.8347 81.9095C35.8967 81.8645 35.9579 81.8186 36.0216 81.7736L36.0751 81.8169C36.9621 82.522 37.9323 83.2399 38.9586 83.9561L38.9603 83.9553Z" fill="#273023"/>
<path d="M46.4433 88.6407C46.1222 88.515 45.7628 88.3833 45.3754 88.2499L45.3491 88.2354C44.7773 87.9041 44.203 87.5668 43.6312 87.221L43.5862 87.2024L43.734 87.0477L43.7629 87.0681C44.6227 87.5889 45.4884 88.0944 46.3448 88.5804L46.4433 88.6398V88.6407Z" fill="#273023"/>
<path d="M70.283 77.1262C70.283 77.1262 71.6636 81.053 70.9041 83.7394C70.17 86.3332 66.7717 88.6287 65.8992 89.2251C65.8992 89.2251 65.7165 87.9848 65.9442 84.3587C66.1481 81.1499 67.6884 79.5849 70.2822 77.1262H70.283Z" fill="#273023"/>
<path d="M90.0486 66.5446C88.3494 69.1613 85.2748 72.8349 84.6308 73.3387C84.6308 73.3387 84.4209 72.5036 84.1635 71.1978L84.1618 71.1213C84.7319 68.9285 84.4685 66.8657 83.7583 65.0757C83.5892 64.6458 83.415 64.2244 83.24 63.8191L83.2443 63.4903C83.2358 63.0197 83.2383 62.5507 83.2545 62.0919C83.4371 57.042 86.1014 55.1576 88.7632 51.7618C88.7632 51.7618 90.0962 54.8373 90.7376 57.9596C91.379 61.0818 91.7478 63.9287 90.0486 66.5455V66.5446Z" fill="#273023"/>
<path d="M78.1119 89.638C78.1119 89.638 74.4383 91.4731 71.9593 91.4731C69.4802 91.4731 68.1947 90.5556 65.8992 89.2251C65.8992 89.2251 69.0486 87.7851 71.5455 87.4334C74.8062 86.9746 78.1111 89.638 78.1111 89.638H78.1119Z" fill="#273023"/>
<path d="M94.3646 83.1175C94.3646 83.1175 90.3248 84.8617 87.4778 85.2754C87.0955 85.3306 86.7047 85.3621 86.3071 85.3638L86.1882 85.3655C85.4932 84.9687 84.6683 84.5567 83.7592 84.2194C82.4797 83.7419 81.3838 83.4684 80.168 83.397L80.1145 83.3639C79.1375 82.7836 78.0925 82.064 76.9651 81.1898C76.9651 81.1898 80.0873 79.9944 82.4738 79.4456C84.862 78.8942 86.7438 78.0225 90.233 80.2255C93.724 82.4285 94.3654 83.1175 94.3654 83.1175H94.3646Z" fill="#273023"/>
<path d="M97.028 75.2214C97.028 75.2214 93.2168 78.0684 91.38 79.2162C90.8949 79.5203 90.3699 79.7404 89.8083 79.889L89.7114 79.9137C86.6487 78.1669 84.8527 78.8746 82.6828 79.3971L82.631 79.3827C80.8103 78.9732 79.9939 78.7098 79.9939 78.7098C79.9939 78.7098 82.0609 77.2885 85.1815 75.6343C88.3037 73.9827 90.0955 73.6599 93.3086 74.303C96.5217 74.9445 97.0272 75.2206 97.0272 75.2206L97.028 75.2214Z" fill="#273023"/>
<path d="M70.2831 77.1262C69.4106 77.9529 68.6579 78.6793 68.0351 79.3989L68.0334 79.3411C68.0462 78.7302 68.1074 78.1279 68.2416 77.5638C69.0232 74.258 72.1913 72.0534 73.063 71.2734C73.063 71.2734 74.0281 73.3838 74.3017 75.8646C74.5769 78.3428 74.7154 79.5365 72.6501 82.1999C71.9424 83.1132 71.3052 83.7819 70.77 84.2695L70.6833 84.346C70.7717 84.1446 70.8481 83.9424 70.905 83.7394C71.6637 81.053 70.284 77.1262 70.284 77.1262H70.2831Z" fill="#273023"/>
<path d="M83.7583 84.2202C86.4676 85.2304 88.4421 86.882 88.4421 86.882C88.4421 86.882 85.1244 88.9839 81.6479 89.7765C79.8171 90.192 78.3447 90.5046 76.5674 90.3687L76.4706 90.3602C77.4374 89.9753 78.112 89.638 78.112 89.638C78.112 89.638 74.8062 86.9746 71.5464 87.4334C71.232 87.4784 70.9066 87.5404 70.5779 87.6143L70.543 87.5769C70.1607 87.2091 69.7775 86.7953 69.3952 86.3349L69.3689 86.3C69.5643 86.0842 69.7495 85.8574 69.9203 85.6254L69.9594 85.6025C70.7886 85.1463 72.3968 84.4564 75.2208 83.8991C79.168 83.1175 81.0524 83.2101 83.7592 84.2202H83.7583Z" fill="#273023"/>
<path d="M90.5422 39.9561C88.4029 36.2579 88.4505 34.3361 88.5796 31.9726C88.7173 29.4468 89.4063 27.7952 89.4063 27.7952C89.4063 27.7952 92.023 29.9981 93.5387 31.5138C95.0526 33.0278 97.1647 35.6912 97.3482 38.6758C97.519 41.4463 96.6592 44.2975 96.1324 45.7562L96.1197 45.7936C95.8419 46.0527 95.5955 46.3034 95.3755 46.5523L95.3321 46.5999L95.3177 46.5506C94.4868 43.6994 91.4257 38.539 91.4257 38.539C91.4257 38.539 91.0579 39.0819 90.5575 39.9892L90.5413 39.9561H90.5422Z" fill="#273023"/>
<path d="M100.655 67.7833C100.655 67.7833 97.6702 71.4119 95.8801 72.6497C94.9685 73.281 93.9278 73.8511 92.2269 74.0728L92.0808 74.0957C91.0069 73.9556 90.0775 73.9581 89.154 74.1187L89.0614 74.1042C87.9076 74.0099 86.5542 73.8103 84.9536 73.4772C84.9536 73.4772 86.239 71.5495 89.2219 69.3924C92.2065 67.2345 94.9609 66.4979 100.655 67.7842V67.7833Z" fill="#273023"/>
<path d="M69.9602 87.7808L69.8879 87.785C70.4453 87.6347 71.0111 87.5098 71.5455 87.4333C72.8513 87.2507 74.1664 87.5667 75.2726 88.0136L75.1681 87.9974C74.3763 87.8122 72.2082 87.3968 69.9602 87.7816V87.7808Z" fill="#F3F5F2"/>
<path d="M75.2779 90.7756L75.492 90.7264C74.3586 91.1231 73.0443 91.4748 71.9602 91.4748C69.9484 91.4748 68.7225 90.8699 67.1057 89.9303L67.4906 90.1198C68.4948 90.593 70.0062 91.2038 71.2135 91.2446C72.5465 91.2896 74.2745 90.9838 75.2779 90.7756Z" fill="#F3F5F2"/>
<path d="M80.1136 83.3647C79.6217 83.0724 79.1136 82.7453 78.5852 82.3792L78.8834 82.544C79.4467 82.8422 80.0703 83.1319 80.716 83.3995L80.8884 83.4649C80.6522 83.436 80.411 83.4114 80.1663 83.397L80.1128 83.3638L80.1136 83.3647Z" fill="#F3F5F2"/>
<path d="M86.4202 87.9618L86.9036 87.7502C85.6122 88.4248 83.6556 89.3194 81.6481 89.7765C79.8172 90.1919 78.3449 90.5046 76.5676 90.3687L76.4707 90.3602C76.7383 90.2531 76.983 90.1503 77.1971 90.0577L77.2914 90.062C78.6363 90.1172 79.8665 89.9634 80.8563 89.7638C82.942 89.3398 85.0974 88.5174 86.4202 87.9618Z" fill="#F3F5F2"/>
<path d="M82.5308 79.4668L82.1978 79.5118C82.2921 79.4889 82.383 79.4668 82.473 79.4464C84.8612 78.8951 86.743 78.0234 90.2323 80.2263C90.5509 80.4277 90.8457 80.6155 91.1167 80.7896L90.9689 80.7361C90.5101 80.5424 89.7285 80.2051 88.8789 79.8126C87.5357 79.1933 87.1219 78.986 85.1951 79.1584C84.156 79.251 83.196 79.3742 82.5316 79.4668H82.5308Z" fill="#F3F5F2"/>
<path d="M92.2806 83.9016L92.6731 83.7928C91.2373 84.3298 89.1516 85.0332 87.4771 85.2762C87.0947 85.3314 86.7039 85.3629 86.3063 85.3646L86.1874 85.3663C85.8025 85.1462 85.3769 84.9219 84.9207 84.7079L85.0396 84.7325C85.9079 84.899 86.6954 84.9729 87.3165 84.9194C88.8016 84.7962 90.9858 84.2508 92.2798 83.9016H92.2806Z" fill="#F3F5F2"/>
<path d="M100.371 68.1223C99.5853 69.0518 97.3373 71.6421 95.8811 72.6497C94.9695 73.281 93.9288 73.8511 92.2279 74.0728L92.0818 74.0957C91.0079 73.9556 90.0785 73.9581 89.155 74.1187L89.0624 74.1042C88.3691 74.049 87.6062 73.9539 86.7583 73.8145L87.1652 73.8375C88.4796 73.9139 90.6214 73.9878 92.1846 73.7882C94.5957 73.4772 95.7308 72.513 97.6602 70.6201C98.8164 69.4825 99.6822 68.7136 100.19 68.2769L100.371 68.1223Z" fill="#F3F5F2"/>
<path d="M103.318 50.1528C103.318 50.1528 102.442 54.1229 101.251 56.5808C100.735 57.6504 100.002 58.5697 98.9888 59.3802L98.9251 59.4337C96.9218 59.8101 95.237 60.4906 93.447 61.7683C93.2371 61.9187 93.0358 62.0793 92.8421 62.2458L92.78 62.2662C92.3051 62.4038 91.8115 62.5381 91.2805 62.6732C91.2805 62.6732 92.8956 58.5552 93.5387 57.3148C94.1801 56.0761 95.8793 53.0465 98.0823 51.9896C100.287 50.9344 103.317 50.1528 103.317 50.1528H103.318Z" fill="#273023"/>
<path d="M103.088 59.0139C103.088 59.0139 101.16 62.9161 99.2785 64.8455C98.2216 65.9278 96.9498 66.6763 95.0331 67.1572L94.9159 67.1801C94.1283 67.2353 93.4104 67.367 92.7333 67.5692L92.5727 67.5922C91.6059 67.7052 90.5159 67.7816 89.2755 67.825L89.1667 67.8334C89.4853 67.3891 89.7835 66.955 90.0495 66.5455C90.5312 65.8046 90.8455 65.0477 91.035 64.2703L91.0843 64.2023C91.718 63.3222 92.5039 62.4437 93.4478 61.7691C96.3398 59.7038 98.9565 59.2 103.089 59.0148L103.088 59.0139Z" fill="#273023"/>
<path d="M90.0486 66.5446C89.1004 68.005 87.7241 69.7925 86.5806 71.1765L86.8252 70.8205C88.3927 68.6915 90.1497 66.141 90.6696 64.0409C90.9925 62.7325 91.0808 61.3239 91.0936 60.2764L91.0876 59.8728C91.4436 62.2567 91.3943 64.4725 90.0486 66.5437V66.5446Z" fill="#F3F5F2"/>
<path d="M83.2095 73.5223C81.5554 76.5995 80.315 78.0684 80.315 78.0684C80.315 78.0684 79.9199 77.3505 79.5147 76.0379L79.5088 76.0048C80.089 74.2691 80.1935 72.5079 79.8112 70.8147C79.5682 69.7433 79.1035 68.5004 78.6575 67.4478L78.6634 67.407C78.7866 66.0638 79.0585 64.8149 79.5359 63.8362C80.5011 61.8618 81.6489 60.3928 81.6489 60.3928C81.6489 60.3928 82.7966 62.6434 83.7592 65.0766C84.7243 67.5081 84.862 70.4477 83.2104 73.5223H83.2095Z" fill="#273023"/>
<path d="M78.4808 78.251C77.0578 80.6842 75.4036 82.2458 75.4036 82.2458C75.4036 82.2458 74.8769 80.9085 74.402 78.9961L74.3731 78.8602C74.5354 77.9554 74.4351 77.0582 74.3009 75.8654C74.1777 74.7507 73.9143 73.71 73.6628 72.9012L73.6688 72.778C73.6773 72.6132 73.6892 72.4467 73.7036 72.2844C74.0392 68.5692 77.5607 65.0765 77.5607 65.0765C77.5607 65.0765 79.2599 68.3823 79.8113 70.8155C80.3627 73.247 79.9039 75.8178 78.4808 78.251Z" fill="#273023"/>
<path d="M83.7583 65.0757C84.6759 67.3874 84.8441 70.1562 83.4414 73.0652L83.4907 72.8511C83.9512 71.3329 84.0336 69.7578 84.0565 68.4843C84.0794 67.2541 83.8348 65.8268 83.6555 64.9542L83.5918 64.6603C83.647 64.7979 83.7048 64.9355 83.7583 65.0757Z" fill="#F3F5F2"/>
<path d="M99.6465 59.3121L99.2514 59.4166C98.305 59.6639 96.8573 60.0793 96.0052 60.4947C94.927 61.0189 93.2508 61.6553 91.0104 64.5388L90.9382 64.6186C90.9731 64.5031 91.0036 64.3858 91.0325 64.2686L91.0818 64.2006C91.7156 63.3205 92.5015 62.442 93.4454 61.7674C95.447 60.3401 97.3144 59.6571 99.6448 59.3113L99.6465 59.3121Z" fill="#F3F5F2"/>
<path d="M95.1911 53.4602C94.9914 54.139 94.6253 55.0897 94.2141 56.0786L94.1563 56.1975C93.8972 56.6359 93.689 57.0242 93.5395 57.3147C93.2286 57.9137 92.6942 59.1787 92.2209 60.3282L92.1802 60.2501C91.9907 59.9357 91.5506 59.1558 90.6934 57.4073L90.5413 57.0845C89.8582 54.2868 88.764 51.761 88.764 51.761C88.7088 51.8307 88.6527 51.9012 88.5975 51.9709L88.5601 51.8723C88.0359 49.8877 87.7768 47.7603 88.2126 45.8844C89.1319 41.9347 91.4274 38.5389 91.4274 38.5389C91.4274 38.5389 94.6406 43.955 95.3746 46.757C96.1086 49.5563 95.7425 51.5767 95.1919 53.461L95.1911 53.4602Z" fill="#273023"/>
<path d="M99.4247 51.4136L99.0917 51.6005C98.7357 51.8086 98.3118 52.0695 97.9006 52.3677C96.9006 53.0915 95.6976 53.919 94.7325 55.6403C94.148 56.6835 93.2083 58.4108 92.5601 59.6104L92.4165 59.8576C92.8336 58.8474 93.2703 57.8313 93.5397 57.3148C94.1811 56.0761 95.8803 53.0465 98.0832 51.9896C98.5089 51.7857 98.9659 51.5928 99.4247 51.4136Z" fill="#F3F5F2"/>
<path d="M92.3774 59.9502C92.3256 60.0776 92.2729 60.2034 92.2211 60.3283L92.1803 60.2501C91.9908 59.9358 91.5507 59.1558 90.6935 57.4074L90.5414 57.0846C90.3792 56.4142 90.1914 55.7618 90.0002 55.1552L90.1277 55.472C90.4301 56.1772 90.7428 56.8526 91.0495 57.4652C91.7156 58.7999 92.1106 59.5016 92.306 59.833L92.3782 59.9502H92.3774Z" fill="#F3F5F2"/>
<path d="M88.6766 51.519L88.7633 51.762C88.708 51.8316 88.652 51.9021 88.5967 51.9718L88.5594 51.8733C88.0352 49.8886 87.776 47.7613 88.2119 45.8854C88.228 45.8157 88.245 45.7452 88.2637 45.6755L88.2161 46.0646C88.1031 47.198 88.019 48.9736 88.3622 50.372C88.4532 50.7425 88.5577 51.1248 88.6766 51.5198V51.519Z" fill="#F3F5F2"/>
<path d="M95.1911 53.4602C95.0679 53.8816 94.8801 54.4066 94.6559 54.9801L94.6847 54.7584C95.2361 52.8476 95.4647 50.9344 95.4893 49.8214C95.5182 48.4782 94.9048 46.7561 94.2158 44.9321C93.9711 44.2821 93.7205 43.3561 93.5454 42.6671L93.4265 42.1752C94.2328 43.7486 95.0492 45.5115 95.3746 46.7561C96.1086 49.5555 95.7425 51.5758 95.1919 53.4602H95.1911Z" fill="#F3F5F2"/>
<path d="M102.171 41.7971C102.171 41.7971 102.029 46.9991 101.298 49.2802C101.109 49.8682 100.854 50.4238 100.543 50.9378L100.495 51.0176C99.6974 51.2955 98.8411 51.6268 98.0824 51.9887C96.8437 52.5834 95.7639 53.8026 94.9415 54.9759L94.8693 54.992C94.8302 54.9979 94.7911 55.0047 94.7537 55.0107L94.6365 55.0294C94.8667 54.4372 95.0621 53.8943 95.1896 53.4602C95.7409 51.5758 96.1071 49.5564 95.3722 46.7561C95.3595 46.7043 95.3459 46.6533 95.3314 46.5998L95.3748 46.5522C95.8208 46.0459 96.3764 45.5361 97.0714 44.9644C99.1384 43.2677 102.169 41.7963 102.169 41.7963L102.171 41.7971Z" fill="#273023"/>
<path d="M92.2168 60.341C91.7105 61.5754 91.2806 62.6739 91.2806 62.6739C91.4845 62.6204 91.6841 62.5694 91.8795 62.5176L91.871 62.538C91.7164 62.9449 91.5456 63.3748 91.3528 63.826L91.3426 63.8548C91.2542 63.9704 91.1676 64.0851 91.0835 64.2023L91.0342 64.2703L91.0401 64.2473C91.1879 63.6382 91.2585 63.0197 91.2729 62.3876L91.2789 62.3732C91.6161 61.674 91.9245 60.9866 92.2007 60.3163L92.2066 60.3019L92.221 60.3282L92.2168 60.341Z" fill="#273023"/>
<path d="M92.1717 62.4369L92.1658 62.4513C92.0791 62.6901 91.9848 62.9347 91.8837 63.1879L91.8795 63.2024C91.69 63.4165 91.5116 63.634 91.3425 63.8548L91.3527 63.826C91.5464 63.3757 91.7172 62.9458 91.871 62.538L91.8795 62.5176C91.978 62.4913 92.0749 62.4641 92.1717 62.4377V62.4369Z" fill="#273023"/>
<path d="M90.6969 39.6537L90.7215 39.697C90.6697 39.7896 90.6145 39.8864 90.5592 39.9892L90.5431 39.9561C88.5865 36.5722 88.4591 34.6759 88.55 32.5698L88.5729 32.8272C88.6553 33.7737 88.8363 35.0837 89.2228 36.3241C89.7224 37.918 90.3545 39.0844 90.6977 39.6545L90.6969 39.6537Z" fill="#F3F5F2"/>
<path d="M98.3347 44.0272L98.1291 44.2099C97.3849 44.8624 96.2592 45.8921 95.4861 46.802L95.4121 46.8946C95.3994 46.8495 95.3875 46.802 95.3748 46.7569C95.362 46.7051 95.3484 46.6541 95.334 46.6006L95.3773 46.553C95.8233 46.0467 96.379 45.5369 97.0739 44.9652C97.469 44.6423 97.8963 44.3254 98.3347 44.0272Z" fill="#F3F5F2"/>
<path d="M89.2755 67.8241C89.2984 67.8241 89.3205 67.8241 89.3434 67.8224L89.3044 67.8878C89.0639 68.3033 88.8065 68.7272 88.5346 69.1613C88.2135 69.6694 87.9076 70.1545 87.6026 70.6235L87.5449 70.7203C85.7488 72.2819 84.9528 73.4764 84.9528 73.4764C85.1584 73.5197 85.3623 73.5605 85.5594 73.5996L85.5288 73.6386C84.7285 74.7142 83.8628 75.7736 82.8237 76.9155L82.7515 76.9894C81.032 77.9953 79.9929 78.709 79.9929 78.709C79.9929 78.709 80.2707 78.7999 80.8629 78.9536L80.8051 79.0157C80.5579 79.2603 80.303 79.5093 80.0379 79.7667C79.8655 79.9358 79.682 80.1057 79.4925 80.279L79.4517 80.3138C78.061 80.7701 76.9624 81.1897 76.9624 81.1897C77.2233 81.3911 77.479 81.5848 77.7322 81.7717L77.6786 81.815C76.7917 82.5202 75.8189 83.2381 74.7952 83.9543L74.7331 83.9976C73.2668 84.3103 72.1538 84.656 71.3289 84.9763L71.4996 84.8693C72.8267 84.0214 74.118 83.1472 75.3584 82.2449L75.3933 82.222C75.3992 82.2364 75.4018 82.2449 75.4018 82.2449C75.4018 82.2449 75.4553 82.1957 75.5479 82.1013L75.5742 82.0869C78.6531 79.8202 81.393 77.3658 83.4813 74.6692C83.8458 74.2019 84.2052 73.727 84.5611 73.2461L84.596 73.2028C84.6189 73.2912 84.6291 73.3387 84.6291 73.3387C85.1703 72.9148 87.4268 70.2556 89.1421 67.8649L89.165 67.8317L89.2738 67.8232L89.2755 67.8241Z" fill="#273023"/>
<path d="M96.1334 45.757L96.1207 45.7944C95.989 45.9159 95.8658 46.0374 95.7485 46.1563L95.8021 46.0162C96.0552 45.3781 96.6992 43.5846 97.1079 40.9705C97.412 39.0207 97.0459 37.2349 96.6941 36.1015L96.5828 35.754C96.9966 36.669 97.2863 37.6528 97.3483 38.6766C97.5191 41.4471 96.6593 44.2983 96.1325 45.757H96.1334Z" fill="#F3F5F2"/>
<path d="M70.0222 87.0485C70.0715 87.1003 70.1207 87.1513 70.1683 87.2031L70.1233 87.2218C69.5515 87.5676 68.9772 87.9048 68.408 88.2362L68.3816 88.2506C67.9951 88.384 67.6349 88.5157 67.312 88.6414L67.4131 88.582C68.2686 88.0969 69.1327 87.5905 69.995 87.0697L70.0239 87.0493L70.0222 87.0485Z" fill="#273023"/>
<path d="M77.734 81.7726C77.796 81.8176 77.8597 81.8635 77.9209 81.9085L77.8733 81.9374C77.0858 82.5627 76.2319 83.1965 75.3348 83.8294L75.2379 83.8948C75.232 83.8965 75.2252 83.8965 75.2192 83.8991C75.0527 83.9322 74.8922 83.9645 74.7341 83.9976L74.7961 83.9543C75.8207 83.2381 76.7935 82.5202 77.6796 81.8151L77.7332 81.7717L77.734 81.7726Z" fill="#273023"/>
<path d="M80.8646 78.9545C80.9428 78.9774 81.0295 78.9978 81.1195 79.0224L81.0864 79.0573C80.8256 79.3181 80.5537 79.584 80.2699 79.8576C80.1816 79.9442 80.0907 80.03 79.9981 80.1167L79.9505 80.1541C79.7814 80.2076 79.6149 80.2611 79.4526 80.3146L79.4934 80.2798C79.6829 80.1074 79.8655 79.9366 80.0388 79.7675C80.3039 79.5101 80.5596 79.2612 80.806 79.0165L80.8638 78.9545H80.8646Z" fill="#273023"/>
<path d="M85.5603 73.6005C85.6487 73.6166 85.7353 73.6336 85.8211 73.6497L85.7923 73.6871C85.0905 74.631 84.3403 75.563 83.4661 76.5485L83.4228 76.602C83.1883 76.7354 82.964 76.8654 82.7524 76.9912L82.8247 76.9172C83.8637 75.7754 84.7294 74.716 85.5297 73.6404L85.5603 73.6013V73.6005Z" fill="#273023"/>
<path d="M89.3436 67.8225C89.4422 67.8208 89.539 67.8165 89.6359 67.8123L89.6129 67.8428C89.3971 68.2175 89.1686 68.5998 88.9282 68.9906C88.8746 69.0773 88.1568 70.2064 88.1568 70.2064C87.941 70.3814 87.7371 70.5539 87.5459 70.7204L87.6037 70.6235C87.9078 70.1546 88.2145 69.6694 88.5357 69.1614C88.8075 68.7273 89.0641 68.3033 89.3054 67.8879L89.3445 67.8225H89.3436Z" fill="#273023"/>
<path d="M113.155 0.876074L94.2243 32.0142L94.1479 32.1544C93.938 31.9241 93.7324 31.7083 93.5387 31.5146C93.2941 31.2699 93.0222 31.0083 92.7367 30.7415L92.7775 30.6837C95.6534 25.9524 98.3644 21.4929 100.753 17.5662L100.596 17.556H13.0831L12.999 17.5577C15.383 21.4802 18.0923 25.9354 20.9656 30.6625L21.0174 30.7407C20.7336 31.0083 20.4618 31.2691 20.2171 31.5138C20.0217 31.7075 19.8178 31.9233 19.6079 32.1535L19.5587 32.0609L0.597656 0.871826L0.762476 0.880322H113.063L113.156 0.876074H113.155Z" fill="#273023"/>
<path d="M89.9952 38.9586L89.9025 39.1251L57.8095 91.9132L57.7951 91.9506C57.4867 92.0763 57.1842 92.1978 56.8835 92.3167L56.8529 92.3108C56.5606 92.1935 56.265 92.0746 55.9642 91.9506L55.9438 91.9132L23.8126 39.0597L23.7607 38.9586C24.1719 38.1608 24.4727 37.4506 24.6902 36.8007L24.7828 36.9425C29.5821 44.8369 34.6295 53.139 39.2699 60.7725L39.4857 61.1285C38.4959 58.8312 37.9471 56.2986 37.9471 53.6394C37.9471 43.1836 46.4217 34.709 56.8775 34.709C67.3334 34.709 75.8054 43.1836 75.8054 53.6394C75.8054 56.1346 75.3237 58.5169 74.4461 60.6986L74.2813 61.1056C78.9879 53.3675 84.1237 44.9176 89.0011 36.895L89.0649 36.8007C89.2832 37.4506 89.5831 38.16 89.9943 38.9586H89.9952Z" fill="#273023"/>
<path d="M113.406 0.466553L113.155 0.876052L113.101 0.8803H0.658985L0.597815 0.871804L0.350586 0.466553H113.406Z" fill="#273023"/>
<path d="M101.735 15.9493C101.655 16.0827 101.572 16.217 101.49 16.3529L101.338 16.3631H12.2668L12.2438 16.3181C12.1674 16.1949 12.0934 16.0708 12.0195 15.9502H101.735V15.9493Z" fill="#273023"/>
<path d="M109.726 2.80292C108.671 4.53862 105.729 9.38125 101.735 15.9494H12.0195C8.02902 9.3838 5.08521 4.54372 4.03003 2.80717L4.0793 2.80547H109.686L109.725 2.80377L109.726 2.80292Z" fill="#F3F5F2"/>
<path d="M97.5533 5.61902C95.3605 5.61902 93.8279 6.93163 93.8279 9.13205C93.8279 11.3325 95.3605 12.6451 97.5533 12.6451C99.7461 12.6451 101.276 11.3716 101.276 9.13205C101.276 6.89254 99.7537 5.61902 97.5533 5.61902ZM97.5533 11.0292C96.482 11.0292 95.725 10.2535 95.725 9.1329C95.725 8.0123 96.4718 7.23833 97.5533 7.23833C98.6348 7.23833 99.3816 7.98511 99.3816 9.1329C99.3816 10.2807 98.6637 11.0292 97.5533 11.0292Z" fill="#273023"/>
<path d="M93.8481 5.78131L91.0632 12.5117H89.2136L86.4287 5.78131H88.5246L89.2918 7.79313L90.1338 10.2722L90.985 7.79313L91.7522 5.78131H93.8481Z" fill="#273023"/>
<path d="M85.8731 5.78131H83.9871V12.4828H85.8731V5.78131Z" fill="#273023"/>
<path d="M77.3638 5.78131H83.1647V7.34285H81.2022V12.4828H79.3178V7.34285H77.3638V5.78131Z" fill="#273023"/>
<path d="M75.4114 10.1091C76.5405 9.61123 76.8285 8.91202 76.8285 8.08878C76.8285 6.88152 75.9381 5.78046 74.2245 5.78046H70.9502V12.482H72.8465V10.3079H73.5066L75.0656 12.482H77.153V12.3664L75.4105 10.1082L75.4114 10.1091ZM74.2432 8.90183H72.8465V7.29526H74.2245C74.7224 7.29526 74.9611 7.70646 74.9611 8.12616C74.9611 8.54585 74.741 8.90183 74.2432 8.90183Z" fill="#273023"/>
<path d="M66.2418 5.61902C64.049 5.61902 62.5164 6.93163 62.5164 9.13205C62.5164 11.3325 64.049 12.6451 66.2418 12.6451C68.4346 12.6451 69.9647 11.3716 69.9647 9.13205C69.9647 6.89254 68.4422 5.61902 66.2418 5.61902ZM66.2418 11.0292C65.1679 11.0292 64.4135 10.2535 64.4135 9.1329C64.4135 8.0123 65.1603 7.23833 66.2418 7.23833C67.3233 7.23833 68.0684 7.98511 68.0684 9.1329C68.0684 10.2807 67.3505 11.0292 66.2418 11.0292Z" fill="#273023"/>
<path d="M59.3569 5.78131H56.103V12.4828H57.9993V10.6724H59.3569C61.1487 10.6537 62.0476 9.58999 62.0476 8.22216C62.0476 6.85433 61.1572 5.78046 59.3569 5.78046V5.78131ZM59.3569 9.07514H57.9993V7.40911H59.3569C59.8752 7.40911 60.153 7.81266 60.153 8.25275C60.153 8.69283 59.8837 9.07514 59.3569 9.07514Z" fill="#273023"/>
<path d="M51.5363 10.8848H55.0315V12.4828H49.6707V5.78131H54.8973V7.37173H51.5363V8.32836H54.7061V9.86866H51.5363V10.8848Z" fill="#273023"/>
<path d="M45.1619 5.78131H42.2903V12.4828H45.1619C47.5645 12.4828 48.6647 10.9315 48.6647 9.08449C48.6647 7.2375 47.5271 5.78131 45.1619 5.78131ZM45.1619 10.8848H44.1662V7.36154H45.1619C46.3199 7.36154 46.7888 8.1474 46.7888 9.06495C46.7888 9.9825 46.3674 10.8856 45.1619 10.8856V10.8848Z" fill="#273023"/>
<path d="M38.1639 8.95985C38.7484 8.69223 38.9022 8.16549 38.9022 7.65744C38.9022 6.37626 37.8096 5.78156 36.4707 5.78156H33.0417V12.4831H36.4979C37.7238 12.4729 39.0933 12.0243 39.0933 10.5205C39.0933 9.91818 38.7866 9.29458 38.1639 8.959V8.95985ZM34.91 7.3142H36.4426C36.8148 7.3142 37.0246 7.54444 37.0246 7.84095C37.0246 8.13745 36.8147 8.3388 36.4222 8.3388H34.91V7.3142ZM36.508 11.0082H34.91V9.73467H36.508C36.977 9.73467 37.2175 10.0125 37.2175 10.3761C37.2175 10.7397 36.9872 11.0073 36.508 11.0073V11.0082Z" fill="#273023"/>
<path d="M29.8932 5.79175H31.7793V9.53501C31.7895 11.5162 30.5839 12.6267 28.6197 12.6267C26.6555 12.6267 25.4626 11.563 25.4626 9.51463V5.79175H27.347V9.51463C27.347 10.5681 27.8551 11.0082 28.6206 11.0082C29.386 11.0082 29.8941 10.5494 29.8941 9.53501V5.79175H29.8932Z" fill="#273023"/>
<path d="M21.5954 10.8748H24.8017V12.4831H19.6982V5.78156H21.5954V10.8748Z" fill="#273023"/>
<path d="M17.8123 10.3667L18.9227 11.6114C18.1674 12.3582 17.2481 12.6564 16.2346 12.6564C13.6017 12.6564 12.5771 11.0005 12.5669 9.17987C12.5584 7.45776 13.7164 5.62946 16.2346 5.62946C17.2014 5.62946 18.0714 5.96504 18.8284 6.70078L17.6602 7.84857C17.181 7.38979 16.6832 7.2666 16.2346 7.2666C14.9407 7.2666 14.4343 8.31754 14.4428 9.19006C14.453 10.0626 14.9118 11.0473 16.2346 11.0473C16.6832 11.0473 17.3348 10.8561 17.8123 10.3667Z" fill="#273023"/>
<path d="M19.5546 32.0558L19.6081 32.1543C19.5316 32.2384 19.456 32.3251 19.3796 32.4118L19.326 32.3395L0.350586 1.12668V0.466553L19.5546 32.0558Z" fill="#273023"/>
<path d="M113.405 0.466553V1.12668L94.4273 32.3412L94.3755 32.4109C94.299 32.3243 94.2234 32.2384 94.147 32.1535L94.2234 32.0133L113.405 0.466553Z" fill="#273023"/>
<path d="M89.9952 38.9586C90.059 39.0801 90.1252 39.2058 90.1923 39.3333L90.1201 39.4276L58.2081 91.9217L58.1834 91.965C57.1512 92.3932 56.1555 92.7815 55.2337 93.1272L55.0196 93.0346L54.9822 93.0185C53.4003 92.3643 51.7631 91.6379 50.2407 90.8775C49.3749 90.446 48.4676 89.9702 47.5356 89.4647L47.4923 89.4358C47.556 89.3984 47.6197 89.3619 47.686 89.3245L47.7148 89.3432C48.663 89.8614 49.589 90.3449 50.4709 90.7875C51.9866 91.5445 53.6203 92.2683 55.198 92.9225L55.26 92.9454C55.7103 92.7764 56.175 92.5979 56.655 92.4085L56.6117 92.3898C56.2659 92.2522 55.9167 92.1103 55.5625 91.9616L55.5463 91.9225L23.6172 39.3987L23.5637 39.3333C23.6317 39.2058 23.6971 39.0801 23.7608 38.9586L23.833 39.092L55.9448 91.9132L55.9652 91.9506C56.2651 92.0738 56.5616 92.1936 56.8538 92.3108L56.8844 92.3167C57.1852 92.1978 57.4868 92.0763 57.796 91.9506L57.8105 91.9132L89.9239 39.092L89.9961 38.9586H89.9952Z" fill="#273023"/>
<path d="M109.977 2.39428C109.911 2.50303 109.826 2.63896 109.726 2.80378L109.687 2.80548H4.08018L4.0309 2.80718C3.9298 2.64066 3.84569 2.50303 3.78027 2.39343H109.977L109.977 2.39428Z" fill="#273023"/>
<path d="M100.753 17.5661C100.671 17.6995 100.589 17.8354 100.506 17.9714L100.454 17.9697H13.2726L13.2463 17.968C13.1638 17.8303 13.0814 17.6944 12.999 17.5585L13.0831 17.5568H100.597L100.753 17.567V17.5661Z" fill="#273023"/>
<path d="M100.506 17.9714C98.18 21.7996 95.5548 26.1147 92.7783 30.6837L92.7375 30.7415C91.2508 29.3465 89.4072 27.796 89.4072 27.796C89.4072 27.796 88.7182 29.4476 88.5805 31.9734C88.4939 33.557 88.4429 34.9436 89.0656 36.8007L89.0019 36.8951C84.1245 44.9168 78.9887 53.3676 74.282 61.1056L74.4468 60.6987C75.3253 58.5161 75.8062 56.1339 75.8062 53.6395V53.2487C75.8062 42.7929 67.3316 34.3183 56.8783 34.3183C46.425 34.3183 37.9479 42.7929 37.9479 53.2487V53.6395C37.9479 56.2995 38.4967 58.8313 39.4865 61.1286L39.2707 60.7726C34.6302 53.1391 29.582 44.837 24.7836 36.9426L24.691 36.8007C25.312 34.9436 25.2627 33.557 25.1761 31.9734C25.0384 29.4476 24.3494 27.796 24.3494 27.796C24.3494 27.796 22.5067 29.3473 21.0174 30.7415L20.9655 30.6634C18.1908 26.0985 15.5698 21.7894 13.2454 17.968L13.2717 17.9697H100.454L100.506 17.9714Z" fill="#F3F5F2"/>
<path d="M70.6595 67.0051L70.7768 66.8717C63.5035 78.8389 57.8571 88.124 56.8776 89.7374C55.8989 88.1249 50.2627 78.8559 42.9971 66.9048L43.2502 67.1682C46.6936 70.739 51.5252 72.959 56.8776 72.959C62.2299 72.959 67.2077 70.6719 70.6595 67.0059V67.0051Z" fill="#F3F5F2"/>
<path d="M60.118 80.2773V82.3605H53.5107V73.6829H55.9652V80.2773H60.118Z" fill="#273023"/>
<path d="M80.3236 24.1954H76.0264V34.2214H80.3236C83.919 34.2214 85.5672 31.9012 85.5672 29.1366C85.5672 26.3721 83.8621 24.1954 80.3236 24.1954ZM80.3236 31.8289H78.8342V26.559H80.3236C82.0576 26.559 82.7593 27.7331 82.7593 29.1077C82.7593 30.4824 82.1298 31.8289 80.3236 31.8289Z" fill="#273023"/>
<path d="M36.0923 31.0558L37.7541 32.9198C36.6225 34.037 35.247 34.4814 33.7288 34.4814C29.7901 34.4814 28.2575 32.0031 28.243 29.2811C28.2286 26.7017 29.9609 23.9661 33.7288 23.9661C35.1748 23.9661 36.4789 24.4682 37.6105 25.5701L35.8621 27.2896C35.1459 26.6023 34.4016 26.4154 33.7288 26.4154C31.7951 26.4154 31.0364 27.9914 31.0509 29.2955C31.0653 30.5996 31.7526 32.0745 33.7288 32.0745C34.4016 32.0745 35.3761 31.7882 36.0923 31.0567V31.0558Z" fill="#273023"/>
<path d="M73.0866 53.6395C73.0866 62.5916 65.8295 69.8487 56.8774 69.8487C47.9253 69.8487 40.6665 62.5916 40.6665 53.6395C40.6665 44.6874 47.9253 37.4286 56.8774 37.4286C65.8295 37.4286 73.0866 44.6857 73.0866 53.6395Z" fill="#F3F5F2"/>
<path d="M71.5797 65.5558C71.3103 65.9984 71.0427 66.436 70.7777 66.8726L70.6604 67.006C67.2086 70.6711 62.309 72.9591 56.8785 72.9591C51.4479 72.9591 46.6945 70.7399 43.2511 67.1683L42.998 66.9049C42.8229 66.6186 42.6479 66.3306 42.4738 66.0409L42.2002 65.5923C45.6699 69.8504 50.9569 72.5674 56.8785 72.5674C62.8001 72.5674 67.6979 70.0458 71.1685 66.0528L71.5797 65.5549V65.5558Z" fill="#273023"/>
<path d="M73.0256 54.6699C72.6509 58.9935 70.5779 62.8319 67.4761 65.514L67.4141 65.5743V41.7155L67.4413 41.7333C70.7139 44.5454 72.8489 48.643 73.0689 53.2426L73.046 52.467C72.7274 48.0117 70.6085 44.0561 67.4141 41.3204C67.1898 41.1267 66.9596 40.9415 66.7251 40.7605L66.7268 40.8098V40.8633L66.7251 40.7605C64.9562 39.4071 62.9011 38.4097 60.6675 37.8745L60.665 37.9365V37.9178L60.6675 37.8745C60.439 37.8193 60.2105 37.77 59.9802 37.725C58.976 37.5313 57.9378 37.4285 56.8784 37.4285C55.819 37.4285 54.7825 37.5313 53.7783 37.725C53.5463 37.77 53.3135 37.8193 53.085 37.8745L53.0892 37.9263V38.0393L53.085 37.8745C50.8489 38.4114 48.7946 39.4088 47.0275 40.7648C46.7887 40.9457 46.5568 41.1352 46.33 41.3281C42.8645 44.3025 40.6675 48.7126 40.6675 53.6394L40.7414 52.4771C41.1466 48.2029 43.212 44.4137 46.2849 41.7579L46.3402 41.701V65.5743L46.2764 65.5123C43.2834 62.9228 41.2494 59.2568 40.7745 55.1185L40.6675 53.6394C40.6675 58.5704 42.8705 62.9865 46.3427 65.9583L46.3402 65.8946V65.8785L46.3427 65.9583C46.567 66.1495 46.7972 66.3373 47.0292 66.5157C48.7988 67.8699 50.8531 68.8673 53.0875 69.4043L53.0892 69.2887V69.338L53.0875 69.4043C53.3152 69.4578 53.5438 69.5071 53.7766 69.5521C54.7799 69.7475 55.8173 69.8486 56.8784 69.8486C57.9395 69.8486 58.9726 69.7475 59.9743 69.5538C60.2062 69.5088 60.4365 69.4595 60.665 69.4043C62.9011 68.869 64.9537 67.8716 66.7234 66.5182L66.7268 66.4299V66.4545L66.7234 66.5182C66.9596 66.3373 67.1923 66.1478 67.4183 65.9541L67.4141 65.8946V65.8598L67.4183 65.9541C70.888 62.9797 73.0876 58.5661 73.0876 53.6394L73.0256 54.6699ZM59.9785 69.18L59.9182 69.174C58.9335 69.3609 57.9174 69.4578 56.8784 69.4578C55.8394 69.4578 54.8258 69.3609 53.8403 69.174L53.7783 69.1672V38.1319L53.8649 38.0988C54.8419 37.9161 55.8478 37.8193 56.8784 37.8193C57.9089 37.8193 58.9208 37.9161 59.9004 38.1013L59.9785 38.1319V69.18Z" fill="#273023"/>
<path d="M72.9101 24.677C72.8922 24.6481 72.7317 24.4094 72.4929 24.1715C72.2381 23.9158 71.8923 23.6592 71.5244 23.6465C71.3655 23.6422 71.2254 23.677 71.1064 23.7433C70.668 23.982 70.4607 24.5946 70.3537 24.9548C70.3537 24.9548 69.9629 24.3355 69.4361 24.519C68.9858 24.6753 68.5211 25.2471 68.4752 26.925L68.4778 27.3617C68.4566 27.9504 68.482 28.5341 68.5067 28.9105L68.4013 28.9045H66.2213C65.4864 27.2504 64.7974 24.9319 64.7974 24.9319C64.201 25.6889 62.9156 26.609 61.4925 26.9072C60.0686 27.2054 59.0134 26.8842 58.6456 26.6769C58.3839 26.5308 58.0424 26.2547 57.9565 25.9939L57.9345 25.8588C57.9718 25.7628 58.0254 25.677 58.0933 25.5996C58.4374 25.3218 59.2938 25.1026 60.2063 24.7722C61.2164 24.4034 61.354 24.1749 61.377 23.4638C61.4016 22.7518 60.2768 21.8572 59.4042 21.1903C58.6099 20.5837 58.2913 20.4155 57.9455 20.3739C57.9107 20.3696 57.8784 20.3654 57.8427 20.3637V20.1309L57.841 20.1003H58.2301V19.5141H57.4876V18.6543H56.2693V19.5141H55.5267V20.1003H55.9159L55.9133 20.1309V20.3637C55.8785 20.3654 55.8436 20.3696 55.8105 20.3739C55.4656 20.4155 55.1461 20.5837 54.3526 21.1903C53.4801 21.8572 52.3552 22.7518 52.3773 23.4638C52.4003 24.1749 52.5379 24.4034 53.5498 24.7722C54.4699 25.1052 55.3313 25.3252 55.6678 25.6056C55.734 25.6804 55.7842 25.7636 55.8207 25.8562L55.7986 25.9939C55.7145 26.2547 55.3704 26.5308 55.1096 26.6769C54.7434 26.8842 53.6857 27.2054 52.2643 26.9072C50.8413 26.609 49.5559 25.6889 48.9569 24.9319C48.9569 24.9319 48.2696 27.2504 47.5356 28.9045H45.353L45.2485 28.9105C45.2485 28.9164 45.2485 28.9224 45.2468 28.9283C45.2723 28.5528 45.2986 27.9598 45.2774 27.3617L45.2808 26.925C45.2357 25.2471 44.771 24.6753 44.3207 24.519C43.794 24.3355 43.4032 24.9548 43.4032 24.9548C43.2944 24.5946 43.088 23.982 42.6504 23.7433C42.529 23.677 42.3913 23.6422 42.2325 23.6465C41.8646 23.6592 41.5188 23.9158 41.2614 24.1715C41.0235 24.4094 40.8629 24.6481 40.8442 24.677C40.8476 24.6744 40.8561 24.6694 40.868 24.6626C40.8519 24.6736 40.8425 24.6795 40.8425 24.6795L47.0148 36.5516L47.1677 36.8541C48.5992 36.0419 50.1455 35.4021 51.7733 34.9663C53.4002 34.5296 55.1113 34.2977 56.8784 34.2977C60.4101 34.2977 63.7235 35.2271 66.5892 36.8541L66.7412 36.5516L72.9126 24.6795L72.9101 24.677ZM49.1379 33.5772L46.8941 33.409L48.2271 31.5969L50.4692 31.7651L49.1379 33.5772ZM54.0417 31.4201L52.2066 31.9324C51.9372 32.0081 51.656 31.85 51.5813 31.5807L51.5303 31.3989C51.4564 31.1321 51.6144 30.8501 51.8837 30.7736L53.7188 30.2622C53.9864 30.1857 54.2677 30.3437 54.3441 30.6139L54.3934 30.7949C54.4699 31.0616 54.311 31.3437 54.0417 31.4201ZM54.9363 23.3525C54.9363 22.5998 55.8063 21.9889 56.8784 21.9889C57.9506 21.9889 58.8197 22.5998 58.8197 23.3525C58.8197 24.1052 57.9498 24.7144 56.8784 24.7144C55.8071 24.7144 54.9363 24.1035 54.9363 23.3525ZM56.8784 30.8382C56.4791 30.8382 56.1563 30.5145 56.1563 30.116C56.1563 29.7176 56.4791 29.3939 56.8784 29.3939C57.2777 29.3939 57.6006 29.7167 57.6006 30.116C57.6006 30.5153 57.2777 30.8382 56.8784 30.8382ZM62.224 31.3989L62.1747 31.5807C62.0991 31.85 61.8188 32.0081 61.5494 31.9324L59.7152 31.4201C59.445 31.3437 59.287 31.0616 59.3609 30.7949L59.4127 30.6139C59.4867 30.3437 59.7687 30.1857 60.038 30.2622L61.8723 30.7736C62.1425 30.8501 62.3005 31.1321 62.224 31.3989ZM64.619 33.5772L63.286 31.7651L65.5297 31.5969L66.8627 33.409L64.619 33.5772ZM72.8693 24.6515C72.8795 24.6575 72.8888 24.6634 72.8948 24.6677C72.888 24.6634 72.8795 24.6583 72.8693 24.6515Z" fill="#273023"/>
<path d="M25.2629 101.441H25.2875C25.234 101.728 25.1805 102.005 25.1295 102.272L25.0862 102.253C23.7634 101.789 19.2011 100.211 10.4385 97.4423L18.7941 91.1519L14.3882 76.4609C14.3882 76.4609 18.072 79.3572 21.1908 81.6689L21.2545 81.7097C20.9767 81.9008 20.738 82.0699 20.5324 82.216L20.4831 82.1727C18.8995 80.9943 17.202 79.6945 15.9225 78.7047C16.9514 82.1336 19.7525 91.4663 19.7525 91.4663C19.7525 91.4663 14.0526 95.7575 12.2158 97.1398C19.7584 99.5365 23.895 100.962 25.2629 101.441Z" fill="#273023"/>
<path d="M27.5108 85.3986C27.2084 85.5711 26.9331 85.7401 26.6859 85.9007L26.6511 85.8948C25.8924 85.662 25.0895 85.3374 24.3351 84.8829L24.251 84.8353C24.9459 85.0248 25.6417 85.1828 26.2772 85.2754C26.6621 85.3306 27.0504 85.3621 27.4497 85.3638L27.5669 85.3655L27.5117 85.3986H27.5108Z" fill="#F3F5F2"/>
<path d="M27.7513 88.2006C28.0623 88.3484 28.3928 88.4988 28.7411 88.6491L28.6918 88.6695C28.1073 88.9202 27.6468 89.2124 27.4947 89.3135L27.4701 89.328C27.3095 89.1308 27.143 88.9142 26.9663 88.6738L26.9969 88.6534C27.081 88.5956 27.3342 88.4291 27.6944 88.2362L27.7522 88.2014L27.7513 88.2006Z" fill="#273023"/>
<path d="M41.7965 91.4732H41.9384L41.9342 91.508V94.1757C41.6606 94.1205 41.3853 94.0601 41.1033 94.0007L41.1075 93.9429V91.4783L41.1135 91.4332C41.348 91.4596 41.5765 91.4723 41.7965 91.4723V91.4732Z" fill="#273023"/>
<path d="M72.6489 93.9438L72.6506 94.0015C72.3711 94.061 72.0949 94.1205 71.8214 94.1765V91.5088L71.8154 91.474H71.959C72.1791 91.474 72.4076 91.4613 72.6421 91.4349L72.648 91.48V93.9446L72.6489 93.9438Z" fill="#273023"/>
<path d="M86.7598 88.6534L86.7887 88.6738C86.612 88.9142 86.4472 89.13 86.2866 89.328L86.2603 89.3135C86.1099 89.2124 85.6494 88.921 85.0632 88.6695L85.0156 88.6491C85.3631 88.4988 85.6944 88.3492 86.0054 88.2006L86.0632 88.2354C86.4234 88.4291 86.6766 88.5956 86.7607 88.6525L86.7598 88.6534Z" fill="#273023"/>
<path d="M89.4188 84.8829C88.6661 85.3374 87.8641 85.6628 87.1029 85.8948L87.0697 85.9007C86.8225 85.7401 86.5455 85.5719 86.2448 85.3986L86.187 85.3655L86.306 85.3638C86.7027 85.3621 87.0935 85.3306 87.4767 85.2754C88.1122 85.1828 88.8071 85.0248 89.5046 84.8353L89.418 84.8829H89.4188Z" fill="#273023"/>
<path d="M103.318 97.4423C94.5554 100.211 89.9906 101.789 88.6703 102.253L88.6253 102.272C88.5735 102.005 88.5225 101.727 88.4673 101.441H88.4936C89.8614 100.962 93.9981 99.5365 101.541 97.1398C99.7039 95.7575 94.004 91.4663 94.004 91.4663C94.004 91.4663 96.8034 82.1336 97.8322 78.7047C96.5545 79.6945 94.8578 80.9943 93.2717 82.1727L93.2241 82.216C93.0185 82.0699 92.7798 81.9017 92.502 81.7097L92.5657 81.6689C95.6837 79.3572 99.3683 76.4609 99.3683 76.4609L94.9598 91.1519L103.317 97.4423H103.318Z" fill="#273023"/>
</g>
<defs>
<clipPath id="clip0_9911_1767">
<rect width="113.055" height="110.635" fill="white" transform="translate(0.350586 0.466553)"/>
</clipPath>
</defs>
</svg>
