<svg width="185" height="124" viewBox="0 0 185 124" fill="none" xmlns="http://www.w3.org/2000/svg">
<g opacity="0.8">
<path d="M143.841 102.922C138.173 102.922 134.811 100.021 134.553 95.8425H139.974C139.974 97.2352 140.745 99.0892 144.099 99.2045C146.423 99.2045 147.709 97.8119 147.709 96.7651C147.452 95.1417 145.385 95.0262 143.327 94.6714C141.467 94.4516 139.644 93.9862 137.907 93.2875C137.023 92.7929 136.292 92.0664 135.791 91.1861C135.291 90.3059 135.041 89.3054 135.068 88.2932C135.068 84.5763 138.173 81.6755 143.584 81.6755C148.747 81.6755 152.1 84.3457 152.349 88.4086H147.195C147.195 87.3707 146.937 85.6232 143.841 85.6232C141.774 85.6232 140.488 85.969 140.231 87.477C140.231 89.5706 144.613 89.4555 147.966 90.2627C151.062 91.0788 153.129 93.0482 153.129 95.8425C153.129 100.952 149.004 102.922 143.841 102.922Z" fill="#273023"/>
<path d="M45.0728 68.6399L62.8679 58.3052L72.4131 74.6813H48.4264" fill="#273023"/>
<path d="M82.4934 102.305V81.6361V102.305Z" fill="#273023"/>
<path d="M82.4934 102.305V81.6361" stroke="#273023" stroke-width="5.20738"/>
<path d="M36.814 92.2766C36.814 95.5234 39.6527 98.1934 42.7397 98.1934C46.1018 98.1934 48.6744 95.5234 48.6744 92.2766C48.6744 89.1452 46.1018 86.3598 42.7397 86.3598C41.1865 86.4127 39.7111 87.0527 38.6114 88.1509C37.5116 89.249 36.8692 90.7234 36.814 92.2766ZM42.4825 102.957C36.814 102.957 31.9172 98.1935 31.9172 92.2766C31.9172 86.3597 36.814 81.7113 42.4825 81.7113C44.8067 81.7113 46.8736 82.2969 48.6744 83.5655V81.942H53.8372V102.487H48.6744V101.21C47.1308 102.372 44.8067 102.957 42.4825 102.957Z" fill="#273023"/>
<path d="M111.359 74.6764L86.5999 31.4929L104.395 21.043L135.346 74.6764" fill="#273023"/>
<path d="M60.5435 92.2764C60.5435 95.5231 63.1249 98.1932 66.4781 98.1932C69.5652 98.1932 72.4127 95.5231 72.4127 92.2764C72.3553 90.7224 71.7111 89.248 70.6099 88.1501C69.5086 87.0521 68.0322 86.4123 66.4781 86.3595C64.9093 86.3665 63.4066 86.9915 62.2956 88.0992C61.1847 89.2068 60.5551 90.7076 60.5435 92.2764ZM66.2208 102.957C64.8226 102.959 63.4377 102.684 62.1467 102.147C60.8558 101.61 59.6843 100.821 58.7006 99.8275C57.7168 98.8338 56.9403 97.6545 56.416 96.3582C55.8918 95.0619 55.6303 93.6745 55.6467 92.2764C55.6467 86.3595 60.2862 81.711 66.2208 81.711C68.5361 81.711 70.6031 82.2966 72.4127 83.5652V74.8627H77.5667V102.487H72.4127V101.209C70.5636 102.384 68.4111 102.991 66.2208 102.957Z" fill="#273023"/>
<path d="M65.9663 50.1826L84.0192 39.9723L103.881 74.6752H85.0479V79.7849H79.8939V74.6752" fill="#273023"/>
<path d="M149.785 79.9458C149.111 79.9261 148.47 79.6514 147.991 79.1772C147.511 78.703 147.23 78.0646 147.203 77.391C147.23 76.7174 147.511 76.079 147.991 75.6048C148.47 75.1306 149.111 74.8559 149.785 74.8362C150.124 74.8266 150.462 74.8859 150.778 75.0106C151.094 75.1352 151.381 75.3224 151.622 75.5612C151.863 75.8 152.054 76.0854 152.182 76.3999C152.31 76.7144 152.372 77.0515 152.366 77.391C152.372 77.7304 152.31 78.0676 152.182 78.3821C152.054 78.6966 151.863 78.982 151.622 79.2208C151.381 79.4596 151.094 79.6471 150.778 79.7717C150.462 79.8963 150.124 79.9554 149.785 79.9458ZM149.785 75.1911C148.49 75.1911 147.718 76.2289 147.718 77.391C147.718 78.5531 148.49 79.5998 149.785 79.5998C151.071 79.5998 151.843 78.5531 151.843 77.391C151.843 76.2289 151.071 75.1911 149.785 75.1911Z" fill="#273023"/>
<path d="M150.317 78.7926L149.802 77.6304H149.288V78.7926H148.898V76.0069H150.06C150.317 76.0069 150.832 76.3619 150.832 76.8232C150.84 76.9945 150.795 77.1644 150.703 77.3091C150.611 77.4538 150.476 77.5661 150.317 77.6304L150.832 78.7926M149.802 76.3619H149.288V77.2845H149.802C150.317 77.2845 150.317 77.1691 150.317 76.8232C150.317 76.5836 150.317 76.3619 149.802 76.3619ZM115.721 92.2763C115.721 95.523 118.302 98.1931 121.655 98.1931C124.751 98.1931 127.581 95.523 127.581 92.2763C127.528 90.7224 126.886 89.2467 125.786 88.1481C124.686 87.0495 123.209 86.4103 121.655 86.3595C120.086 86.3664 118.584 86.9915 117.473 88.0991C116.362 89.2067 115.732 90.7076 115.721 92.2763ZM121.389 102.957C119.991 102.958 118.608 102.682 117.318 102.144C116.028 101.607 114.857 100.818 113.874 99.8242C112.892 98.8306 112.116 97.652 111.592 96.3563C111.068 95.0606 110.807 93.6737 110.824 92.2763C110.824 86.3594 115.463 81.711 121.389 81.711C123.713 81.711 125.78 82.2966 127.581 83.5651V81.9416H132.486V102.487H127.581V101.209C125.733 102.386 123.58 102.994 121.389 102.957ZM92.0086 92.2763C92.0086 95.523 94.8472 98.1931 97.9432 98.1931C101.296 98.1931 103.878 95.523 103.878 92.2763C103.866 90.7076 103.237 89.2067 102.126 88.0991C101.015 86.9915 99.5119 86.3664 97.9432 86.3595C96.3884 86.4102 94.9108 87.0492 93.8092 88.1476C92.7075 89.2459 92.0639 90.7216 92.0086 92.2763ZM103.878 74.8626H109.032V102.487H103.878V101.209C102.14 102.416 100.058 103.029 97.9432 102.957C92.0086 102.957 87.1118 98.1932 87.1118 92.2763C87.1118 86.3594 92.0086 81.711 97.9432 81.711C100.258 81.711 102.325 82.2966 103.878 83.5651V74.8626Z" fill="#273023"/>
</g>
</svg>
