<svg width="81" height="81" viewBox="0 0 81 81" fill="none" xmlns="http://www.w3.org/2000/svg">
<path d="M13.3923 13.6411C9.69225 13.6411 6.72559 16.6078 6.72559 20.3078V60.3078C6.72559 62.0759 7.42796 63.7716 8.67821 65.0218C9.92845 66.2721 11.6241 66.9744 13.3923 66.9744H66.7256C68.4937 66.9744 70.1894 66.2721 71.4396 65.0218C72.6899 63.7716 73.3923 62.0759 73.3923 60.3078V20.3078C73.3923 18.5397 72.6899 16.844 71.4396 15.5937C70.1894 14.3435 68.4937 13.6411 66.7256 13.6411H13.3923ZM13.3923 20.3078H36.7256V27.4078C30.8589 28.9411 26.7256 34.2411 26.7256 40.3078C26.7335 43.2606 27.7189 46.1276 29.528 48.4613C31.3371 50.7951 33.868 52.4641 36.7256 53.2078V60.3078H13.3923V53.6411H23.3923V26.9744H13.3923V20.3078ZM43.3923 20.3078H66.7256V26.9744H56.7256V53.6411H66.7256V60.3078H43.3923V53.2078C49.2589 51.6744 53.3923 46.3744 53.3923 40.3078C53.3844 37.355 52.3989 34.4879 50.5899 32.1542C48.7808 29.8205 46.2499 28.1515 43.3923 27.4078V20.3078ZM13.3923 33.6411H16.7256V46.9744H13.3923V33.6411ZM63.3923 33.6411H66.7256V46.9744H63.3923V33.6411ZM43.3923 34.5411C45.4589 35.7411 46.7256 37.9411 46.7256 40.3078C46.7256 42.6744 45.4589 44.8744 43.3923 46.0744V34.5411ZM36.7256 34.5411V46.0744C34.6589 44.8744 33.3923 42.6744 33.3923 40.3078C33.3923 37.9411 34.6589 35.7411 36.7256 34.5411Z" fill="#273023"/>
</svg>
