<svg width="80" height="81" viewBox="0 0 80 81" fill="none" xmlns="http://www.w3.org/2000/svg">
<path d="M68.567 49.6699L73.3337 44.9032L68.567 40.1366L56.667 52.0366L28.1003 23.4699L40.0003 11.5699L35.2337 6.80322L30.467 11.5699L25.7003 6.80322L18.567 13.9366L13.8003 9.16989L9.03366 13.9366L13.8003 18.7032L6.66699 25.8366L11.4337 30.6032L6.66699 35.3699L11.4337 40.1366L23.3337 28.2366L51.9003 56.8032L40.0003 68.7032L44.767 73.4699L49.5337 68.7032L54.3003 73.4699L61.4337 66.3366L66.2003 71.1032L70.967 66.3366L66.2003 61.5699L73.3337 54.4366L68.567 49.6699Z" fill="#273023"/>
</svg>
