<svg width="81" height="81" viewBox="0 0 81 81" fill="none" xmlns="http://www.w3.org/2000/svg">
<path d="M13.2982 62.5627L17.7582 67.0226L23.4517 61.3607L18.9601 56.8692M40.0262 21.1581C29.5564 21.1581 21.0478 29.6668 21.0478 40.1365C21.0478 50.6063 29.5564 59.1149 40.0262 59.1149C50.4959 59.1149 59.0046 50.6063 59.0046 40.1365C59.0046 29.6351 50.4959 21.1581 40.0262 21.1581ZM65.3307 43.2996H74.8199V36.9735H65.3307M56.6006 61.3607L62.2942 67.0226L66.7541 62.5627L61.0922 56.8692M66.7541 17.995L62.2942 13.5667L56.6006 19.2286L61.0922 23.7202M43.1892 5.34277H36.8631V14.832H43.1892M23.4517 19.2286L17.7582 13.5667L13.2982 17.995L18.9601 23.7202L23.4517 19.2286ZM5.23242 43.2996H14.7216V36.9735H5.23242M43.1892 65.4411H36.8631V74.9303H43.1892" fill="#273023"/>
</svg>
