<svg width="113" height="104" viewBox="0 0 113 104" fill="none" xmlns="http://www.w3.org/2000/svg">
<g opacity="0.8" clip-path="url(#clip0_9911_1719)">
<path d="M112.052 34.1193V35.999C111.989 38.7743 111.665 41.3978 111.087 45.1073C108.896 59.487 97.4247 73.4416 89.8794 78.5538C73.9819 89.3259 68.8754 81.9776 56.2359 103.991C43.6029 81.9767 38.502 89.3259 22.5923 78.5538C15.0527 73.4407 3.58871 59.487 1.3847 45.1073C0.819092 41.3987 0.482553 38.7686 0.425049 35.9868V34.1193C0.469355 31.9031 0.68523 29.4257 1.06702 26.1611C2.08889 17.6562 5.86812 6.9162 10.9303 0.107178C28.6067 7.34795 39.0036 7.60813 56.2359 1.09794C73.4804 7.60813 83.8717 7.34795 101.554 0.107178C106.616 6.9162 110.395 17.6562 111.405 26.1611C111.792 29.4389 112.008 31.9031 112.052 34.1193Z" fill="#273023"/>
<path d="M108.191 36.444C108.089 38.927 107.753 41.3856 107.384 43.8629C107.168 45.3043 106.876 46.7146 106.514 48.1371C106.171 49.3626 105.79 50.5381 105.352 51.7448C104.723 53.3643 104.037 54.9141 103.282 56.4704C102.475 58.008 101.63 59.5002 100.728 60.9859C99.5844 62.7648 98.391 64.4597 97.1014 66.1301C95.8815 67.6545 94.6372 69.109 93.2967 70.5193C91.7281 72.1134 90.1274 73.5934 88.3363 74.9395C87.2757 75.689 86.1643 76.3809 85.0585 77.0672L82.6132 78.4265C81.1775 79.1439 79.7361 79.7925 78.2561 80.4147C75.9126 81.3225 73.5436 82.1483 71.219 83.1145L69.1677 84.0864C68.0817 84.6577 67.0721 85.2808 66.0427 85.9539L63.9339 87.58L61.8251 89.5682C59.7672 91.7844 57.8997 94.1223 56.2359 96.6628C54.8577 94.5672 53.3334 92.598 51.7072 90.6984L49.5919 88.5265L47.4963 86.7222C46.4612 85.9727 45.4384 85.2865 44.3458 84.6389L42.2813 83.5717C39.2958 82.2378 36.1963 81.2282 33.1797 79.9763C31.6365 79.3033 30.1499 78.5793 28.6765 77.7855C27.336 77.0172 26.0473 76.2235 24.7643 75.3722C22.713 73.9309 20.9276 72.3047 19.1817 70.5193L17.664 68.8677C15.7645 66.6958 14.0563 64.4597 12.4491 62.0587C11.7439 60.9727 11.0831 59.8801 10.4289 58.7555C9.37496 56.8503 8.44076 54.9442 7.58386 52.9372C7.12006 51.7429 6.6949 50.5494 6.30086 49.3418C5.95772 48.1352 5.66549 46.954 5.39871 45.7276C4.81424 42.349 4.32499 38.9252 4.27409 35.4957C4.24863 32.282 4.57857 29.0675 4.98581 25.8727C5.17624 24.5709 5.41097 23.2879 5.68434 21.9983C6.99939 16.2187 9.01863 10.6606 11.9721 5.50974L12.385 4.81781C16.0435 6.24032 19.7587 7.40266 23.5822 8.31706C25.0368 8.62815 26.4659 8.88833 27.9459 9.12966C29.3816 9.31348 30.7909 9.45394 32.2332 9.54915C33.6689 9.60666 35.0783 9.60666 36.514 9.57461C37.9497 9.49825 39.3722 9.37758 40.8013 9.21261C42.2681 8.99674 43.717 8.76201 45.1716 8.46318C48.9376 7.61853 52.6216 6.53256 56.2359 5.19866C58.8971 6.17716 61.6026 7.00861 64.3345 7.75805L67.3134 8.46318C68.768 8.76201 70.2037 8.99674 71.6771 9.21261C73.1128 9.37758 74.5221 9.49825 75.9711 9.57461C77.4002 9.60666 78.8161 9.60666 80.2452 9.54915C81.6932 9.45394 83.1034 9.31442 84.5391 9.12966C86.0003 8.88833 87.4483 8.62815 88.9028 8.31706C92.7264 7.40266 96.4292 6.24032 100.1 4.81781C102.012 7.87966 103.454 11.2705 104.68 14.6434C105.06 15.7426 105.422 16.8286 105.747 17.9334C106.508 20.5503 107.093 23.1738 107.494 25.8727C107.939 29.3852 108.3 32.8976 108.192 36.4412L108.191 36.444Z" fill="#F3F5F2"/>
<path d="M78.6057 61.3678C78.6057 61.6468 78.5425 61.8438 78.4219 61.939C78.3012 62.0474 78.1042 62.1483 77.844 62.2379C77.5838 62.3208 77.3802 62.4283 77.2473 62.5744C77.1078 62.7017 77.0437 62.9298 77.0437 63.2475V75.4487C77.0437 75.6711 77.088 75.8427 77.1964 75.9502C77.3048 76.0708 77.4566 76.1792 77.6536 76.2745C77.8572 76.3763 78.0222 76.4837 78.1296 76.5921C78.238 76.6874 78.288 76.8655 78.3135 77.0814C78.3135 77.5895 77.8817 77.8497 77.0427 77.8497H72.6347C72.3934 77.8497 72.1643 77.7865 71.9616 77.6461C71.7524 77.5122 71.6439 77.3161 71.6439 77.0805C71.6439 76.8646 71.7014 76.6996 71.7835 76.6044C71.8919 76.5026 72.038 76.3951 72.2284 76.2999C72.4377 76.1915 72.5904 76.084 72.6856 75.9634C72.794 75.8427 72.8506 75.6457 72.8506 75.411V64.6577L68.83 74.7247C68.7669 74.9981 68.6396 75.2139 68.4303 75.3535C68.2333 75.493 67.8779 75.5825 67.3566 75.5948C66.8362 75.5948 66.4677 75.525 66.2574 75.3855C66.0538 75.246 65.8766 75.0169 65.7493 74.7247L61.6402 64.8925V74.8642C61.6402 75.2771 61.7165 75.5816 61.8626 75.7786C62.0021 75.969 62.2058 76.1217 62.4914 76.2547C62.7648 76.3819 62.9552 76.5026 63.0759 76.6044C63.1965 76.6874 63.2597 76.8712 63.2597 77.1248C63.2597 77.3783 63.1645 77.5565 62.9675 77.6772C62.7704 77.7856 62.5357 77.8487 62.2755 77.8487H59.093C58.4265 77.8487 58.0891 77.5886 58.0891 77.0805C58.0891 76.7882 58.2861 76.5469 58.6669 76.3499C59.0544 76.1595 59.3277 75.9945 59.4795 75.8606C59.6322 75.7334 59.7086 75.3968 59.7086 74.8633V63.6208C59.7086 63.1004 59.6322 62.7761 59.4673 62.6555C59.3089 62.5348 59.0035 62.3764 58.5463 62.1794C58.0891 61.9758 57.86 61.7222 57.86 61.4111C57.86 60.8964 58.1965 60.6362 58.8639 60.6362H63.7169C64.142 60.6362 64.422 60.738 64.587 60.9219C64.7397 61.1057 64.9301 61.4931 65.1526 62.0908L68.4426 70.7286L71.8089 62.3764C72.0823 61.6902 72.2982 61.2263 72.4565 60.9982C72.6215 60.7569 72.9137 60.6362 73.3078 60.6362H77.8431C78.3578 60.6362 78.6057 60.8898 78.6057 61.3668V61.3678Z" fill="#273023"/>
<path d="M95.558 37.6385C95.5457 37.9175 95.4373 38.1466 95.2535 38.2993C95.0697 38.452 94.8406 38.617 94.6059 38.7886C94.3646 38.9667 94.2118 39.1694 94.1487 39.4305C93.996 40.015 93.6726 40.9294 93.1579 42.1681C92.6376 43.4068 92.0399 44.7529 91.3668 46.2207C90.6805 47.6819 90.0461 49.0092 89.4362 50.2026C88.8395 51.397 88.3823 52.2482 88.09 52.7243C87.7856 53.2202 87.5244 53.5821 87.3152 53.8103C87.1115 54.0262 86.8646 54.1977 86.5657 54.2863C86.2612 54.3815 85.854 54.439 85.327 54.439C84.8001 54.439 84.374 54.4202 84.1326 54.3947C83.9036 54.3627 83.682 54.2675 83.4718 54.1025C83.2682 53.9498 83.0146 53.6896 82.7478 53.3342C81.9098 52.286 81.1604 51.1623 80.4995 49.9424C79.833 48.7358 79.2486 47.5348 78.7593 46.348C78.2701 45.1536 77.8129 43.979 77.4254 42.8421C77.0191 41.692 76.6062 40.5052 76.1867 39.2788C76.0783 38.9743 75.9266 38.7452 75.7163 38.6057C75.5259 38.4662 75.3477 38.3266 75.196 38.2182C75.0433 38.0976 74.9612 37.9326 74.9358 37.729C74.9358 37.1832 75.5269 36.9098 76.676 36.9098H81.363C82.4302 36.9098 82.9637 37.1511 82.9637 37.6404C82.9637 37.8374 82.894 37.9958 82.7667 38.1042C82.6338 38.2182 82.4302 38.3455 82.1568 38.4794C81.8834 38.6066 81.693 38.7395 81.5601 38.8546C81.4328 38.9752 81.363 39.159 81.363 39.3749C81.4073 40.1375 81.6364 41.0265 82.0295 42.0616C82.417 43.1032 82.8874 44.1449 83.4209 45.1866C83.9479 46.2405 84.571 47.3906 85.2629 48.6293C85.9681 49.868 86.4253 50.6806 86.6345 51.0869C86.9777 50.4647 87.4028 49.6323 87.9241 48.5652C88.4322 47.4914 88.9592 46.3612 89.4673 45.1545C89.9877 43.9479 90.4204 42.8553 90.7569 41.8768C91.0868 40.9115 91.2584 40.1941 91.2584 39.7558C91.2584 39.4315 91.1698 39.1845 90.9982 39.0186C90.8267 38.8536 90.5731 38.6943 90.2365 38.5425C89.9123 38.403 89.6709 38.2691 89.5314 38.1617C89.4041 38.0533 89.3278 37.8826 89.3278 37.6413C89.3278 37.1521 89.7407 36.9107 90.5731 36.9107H94.1996C95.1017 36.9107 95.5589 37.1521 95.5589 37.6413L95.558 37.6385Z" fill="#273023"/>
<path d="M98.1296 28.1551C98.0532 28.0787 97.9005 27.9835 97.6846 27.8629C97.481 27.7356 97.2849 27.5838 97.1134 27.4057C96.9295 27.2218 96.7636 26.9739 96.6241 26.6374C96.3196 25.8691 96.0019 25.1574 95.6965 24.4843C95.392 23.8235 95.0234 23.1636 94.6039 22.4896C94.1788 21.8165 93.7018 21.2066 93.1814 20.6664C94.4267 20.0885 95.36 19.4023 95.9567 18.6019C96.5534 17.795 96.8588 16.8938 96.8588 15.8832C96.8079 15.2544 96.592 14.6379 96.23 14.0478C95.8615 13.4765 95.277 12.9873 94.4833 12.6064C93.6763 12.2256 92.6478 12.0286 91.396 12.0286H82.0464C81.2526 12.0286 80.8652 12.3142 80.8652 12.8544C80.8652 13.0702 80.9095 13.2163 81.0047 13.2993C81.0933 13.3757 81.2526 13.4775 81.4685 13.5849C81.691 13.6933 81.8494 13.814 81.97 13.9535C82.0784 14.0808 82.135 14.3033 82.135 14.5946V26.7326C82.135 26.9928 82.0775 27.203 81.97 27.3237C81.8616 27.4509 81.6967 27.5716 81.4808 27.6791C81.2772 27.7743 81.1122 27.8883 81.017 27.9967C80.9152 28.0919 80.8643 28.2569 80.8643 28.4728C80.8643 28.733 80.9727 28.9366 81.2008 29.0573C81.4167 29.1902 81.6646 29.2411 81.9502 29.2411H86.6505C86.9361 29.2411 87.2029 29.1902 87.4574 29.0827C87.7053 28.9743 87.8317 28.765 87.8317 28.4728C87.8317 28.2437 87.7808 28.0787 87.6789 27.9967C87.5705 27.8949 87.4122 27.7875 87.2029 27.6922C86.987 27.5904 86.822 27.4632 86.7268 27.3303C86.6184 27.1907 86.5619 26.9871 86.5619 26.6883V22.0767L88.944 21.7147C89.0713 21.8674 89.2042 22.0446 89.3569 22.2294C89.7123 22.6932 90.1064 23.2833 90.5259 23.9884C91.1226 24.9669 91.5355 25.8559 91.7768 26.6374C91.8343 26.8024 91.8532 26.9871 91.8532 27.1775C91.8532 27.3303 91.8089 27.4632 91.7325 27.5584C91.6495 27.647 91.5166 27.7554 91.3516 27.8506C91.1801 27.9647 91.0472 28.0599 90.9765 28.1495C90.8878 28.2324 90.8435 28.3653 90.8435 28.518C90.8624 29.0073 91.2244 29.242 91.8975 29.242H97.2199C97.4867 29.242 97.728 29.1977 97.9373 29.0893C98.1531 28.9809 98.2615 28.8103 98.2615 28.5689C98.2615 28.3719 98.2172 28.2447 98.1286 28.156L98.1296 28.1551ZM91.2451 18.6792C90.7248 19.1685 90.0828 19.5239 89.3588 19.7718C89.2504 19.8161 89.1495 19.8416 89.0411 19.8736C88.1833 20.1215 87.3452 20.2422 86.5637 20.2422V15.0914C86.5637 14.5955 86.7419 14.2335 87.0973 14.0308C87.447 13.8338 87.9674 13.7131 88.6282 13.6811C88.8884 13.6811 89.1297 13.7065 89.3588 13.7254C90.1846 13.814 90.8134 14.0751 91.2583 14.5069C91.8239 15.0404 92.1162 15.7324 92.1473 16.5836C92.1473 17.4283 91.8428 18.1211 91.2451 18.6792Z" fill="#273023"/>
<path d="M69.8404 28.0314L80.3759 26.7333L52.8231 65.3364L51.3544 57.5715L40.6784 73.8469L44.8376 76.477L35.3127 78.6264L33.1567 69.1071L37.3281 71.7381L52.5016 46.3912L54.4549 52.5884L67.5186 32.5657L60.0818 33.6668L74.125 10.2363C75.4466 10.4701 76.7522 10.6596 78.0861 10.8048C79.2635 10.9094 80.423 10.9811 81.5986 11.0216L69.8404 28.0324V28.0314Z" fill="#273023"/>
<path d="M41.3984 44.0787C41.3984 44.2371 41.3918 44.4152 41.3664 44.5746L41.3918 44.5368C41.3918 43.9712 42.8143 43.2218 43.4431 42.9362C44.0719 42.6571 44.5168 41.6343 45.1456 40.4531C45.2154 41.2789 45.5707 42.3074 45.0183 43.1209C44.4725 43.9467 43.8305 44.5246 43.1386 44.6962C42.5862 44.83 41.7727 45.1091 41.0873 45.5851C40.649 46.6334 39.8166 47.6053 38.8513 48.4245C37.276 49.7452 35.3322 50.6473 34.0813 50.768C30.829 51.0725 28.7843 50.9462 27.2411 51.1366C28.6194 51.6636 29.9853 52.5846 31.4653 54.2229L30.106 55.4616C28.5185 52.9079 27.4448 51.854 26.0411 51.3902C24.644 51.854 23.5703 52.9079 21.9762 55.4616L20.6169 54.2229C22.0969 52.5902 23.4629 51.6636 24.8467 51.1366C23.2969 50.9462 21.2579 51.0734 18 50.768C16.749 50.6473 14.8052 49.7452 13.23 48.4245C12.2647 47.6053 11.4266 46.6334 11.0071 45.5851C10.3086 45.1091 9.50827 44.8291 8.94266 44.6962C8.24413 44.5246 7.61535 43.9467 7.06294 43.1209C6.51052 42.3083 6.87912 41.2789 6.93568 40.4531C7.56445 41.6343 8.0094 42.6571 8.63817 42.9362C9.26694 43.2218 10.6895 43.9712 10.6895 44.5368L10.7149 44.5746C10.6895 44.4162 10.6772 44.238 10.6772 44.0787V42.4149C10.6772 41.6654 9.92117 40.8396 9.01901 40.4201C8.11686 39.995 7.04974 39.0928 6.7264 38.2482C6.40212 37.3969 6.89137 36.2601 6.95547 35.4531C7.06388 36.5391 7.6097 37.9871 8.63817 38.7054C9.66664 39.4171 10.6772 40.3438 10.6772 40.9471V39.0796C10.6772 38.3113 10.0607 37.9428 9.57237 37.5176C9.09631 37.1047 8.4732 36.5966 8.09235 36.1582C7.70491 35.7133 7.36837 35.1609 7.35517 34.3671C7.33632 33.5857 8.11781 32.347 8.08575 32.0048C8.39024 33.0144 8.24413 34.107 8.74658 34.9205C9.24809 35.7397 10.6772 36.3817 10.6772 37.0415V34.1767C10.6772 33.4782 9.81936 32.938 9.24809 32.3159C8.67022 31.7059 7.86988 31.2874 7.46358 30.3277C7.06388 29.3747 7.58425 28.1558 7.98394 27.4186C8.16777 28.3076 8.11686 29.7942 8.98791 30.3598C9.8646 30.9188 10.6772 31.6428 10.6772 32.5261V30.3287C10.6706 29.3125 9.66098 28.2265 8.63817 27.3309C7.6097 26.442 7.48809 25.6162 7.52014 24.8922C7.55219 24.1616 7.96509 23.5517 8.24413 22.8277C8.50431 23.7742 8.39684 24.8158 8.72678 25.4446C9.06332 26.0866 9.35555 26.2827 9.7364 26.6899C10.1172 27.1028 10.6763 27.7891 10.6763 28.1822V27.7759L10.6885 27.7693C10.6885 27.2932 10.6763 26.7653 10.5933 26.2893C10.4726 25.603 10.1804 24.9874 10.1804 24.4029C10.1993 23.2472 10.9487 22.4148 10.9364 21.2845C10.9176 20.1543 10.5235 19.1314 10.2568 17.9757C11.9593 19.221 12.95 20.3833 12.785 22.314C12.6012 24.2578 10.8412 25.3437 11.0128 28.1068V28.6403C11.0128 27.9984 11.6793 27.2235 12.7407 26.5061C12.9246 26.392 13.0905 26.2393 13.23 26.0611C13.9163 25.2485 14.1321 23.9655 14.0369 22.9804C14.5328 23.5517 15.1295 24.7461 14.6978 26.0168C14.3292 27.1028 13.7956 27.3573 13.2309 27.8334C13.148 27.9097 13.0471 27.9984 12.9576 28.0936C12.2845 28.7666 11.0137 29.8526 11.0137 30.6973V32.6976C11.0137 32.3168 11.3503 32.1198 11.8075 31.7766C12.3853 31.3317 12.7728 31.0272 13.23 30.5823C13.2875 30.5248 13.3318 30.4804 13.3827 30.4295C13.9031 29.9092 14.3923 29.0579 14.513 27.6156C14.7864 27.9267 15.4019 29.3436 14.7166 30.6454C14.4498 31.179 13.9794 31.5919 13.23 32.1763C13.147 32.2527 13.0584 32.3159 12.9698 32.3922C12.112 33.0653 11.0703 34.1767 11.0137 34.8564V37.3526C11.0137 36.7239 11.7566 36.4637 12.144 35.9867C12.474 35.587 12.9189 35.2052 13.23 34.7159C13.2932 34.6207 13.3629 34.5189 13.4138 34.4114C13.7183 33.7827 13.6995 32.9757 13.871 32.2395C14.1887 32.9003 14.6968 33.6432 14.6016 34.4755C14.4998 35.3013 14.1567 35.8472 13.2611 36.6475C13.2545 36.6598 13.2423 36.673 13.2291 36.673C12.3524 37.4733 11.0128 38.5527 11.0128 39.6264V41.6588C11.0128 41.1573 11.5275 40.0902 12.0922 39.5943C12.3967 39.321 12.8162 39.074 13.2291 38.8006C13.5656 38.5715 13.8955 38.3113 14.1567 38.0069C14.7157 37.3149 14.8806 36.5523 15.2049 35.7708C15.7705 37.6194 15.434 39.4737 13.5467 40.0138C13.4449 40.0515 13.3375 40.0836 13.2291 40.1345C12.4353 40.5285 11.5586 41.5127 11.0128 42.5355V43.7299C11.0128 44.4284 11.1778 45.0893 11.4634 45.7048C11.8829 44.9809 12.2062 44.0155 12.753 43.4245C12.9057 43.2661 13.0707 43.12 13.2291 42.9927C13.6863 42.6307 14.1755 42.364 14.5696 41.8813C15.1097 41.2205 15.2304 40.3636 15.6301 39.55C15.6555 40.3438 15.9921 41.0235 15.8714 41.7983C15.763 42.5544 15.0777 43.6847 14.0548 43.926C13.7626 43.9891 13.4892 44.1419 13.2291 44.3389C12.6323 44.8027 12.111 45.5012 11.6029 45.9773C12.0026 46.7267 12.5682 47.413 13.2291 47.9974C14.7279 49.3313 16.6972 50.1826 18.1386 50.2901C21.3079 50.538 23.7532 50.2458 26.0458 50.7793C28.3384 50.2458 30.7781 50.538 33.9531 50.2901C35.3822 50.1817 37.3515 49.3313 38.8503 47.9974C39.5112 47.413 40.0824 46.7267 40.4765 45.9773C39.9684 45.5012 39.448 44.8027 38.8503 44.3389C38.5902 44.1419 38.3168 43.9891 38.0245 43.926C37.0017 43.6847 36.3286 42.5544 36.208 41.7983C36.0873 41.0235 36.4371 40.3438 36.4493 39.55C36.849 40.3626 36.9697 41.2205 37.5098 41.8813C37.9161 42.364 38.4054 42.6307 38.8503 42.9927C39.0087 43.12 39.1746 43.2661 39.3264 43.4245C39.8666 44.0155 40.1965 44.9809 40.616 45.7048C40.9016 45.0883 41.0609 44.4284 41.0609 43.7299V42.5355C40.5208 41.5127 39.6384 40.5285 38.8503 40.1345C38.7419 40.0836 38.6279 40.0515 38.5326 40.0138C36.6463 39.4737 36.3098 37.6194 36.8811 35.7708C37.2053 36.5523 37.3703 37.314 37.935 38.0069C38.1829 38.3113 38.5128 38.5725 38.8494 38.8006C39.2623 39.074 39.6818 39.321 39.9995 39.5943C40.5519 40.0902 41.06 41.1564 41.06 41.6588V39.6264C41.06 38.5527 39.7261 37.4733 38.8494 36.673C38.8371 36.673 38.8239 36.6607 38.8117 36.6475C37.935 35.8472 37.5796 35.3013 37.4778 34.4755C37.3826 33.6432 37.9029 32.9003 38.2084 32.2395C38.3799 32.9767 38.3611 33.7827 38.6656 34.4114C38.7165 34.5199 38.7796 34.6207 38.8494 34.7159C39.1605 35.2052 39.6054 35.586 39.9354 35.9867C40.3351 36.4627 41.06 36.7239 41.06 37.3526V34.8564C41.0091 34.1767 39.9674 33.0653 39.1162 32.3922C39.021 32.3159 38.9323 32.2527 38.8494 32.1763C38.1 31.5919 37.6428 31.179 37.3571 30.6454C36.6774 29.3436 37.294 27.9267 37.5664 27.6156C37.6871 29.057 38.1763 29.9082 38.6967 30.4295C38.7476 30.4804 38.8051 30.5248 38.8494 30.5823C39.3 31.0272 39.694 31.3317 40.2785 31.7766C40.7357 32.1198 41.06 32.3168 41.06 32.6976V30.6973C41.06 29.8526 39.7892 28.7666 39.1162 28.0936C39.0332 27.9984 38.9323 27.9097 38.8494 27.8334C38.2838 27.3573 37.7634 27.1028 37.3826 26.0168C36.9574 24.7461 37.5541 23.5526 38.0556 22.9804C37.9538 23.9646 38.1641 25.2476 38.8494 26.0611C38.9889 26.2393 39.1482 26.3911 39.3386 26.5061C40.3992 27.2235 41.06 27.9984 41.06 28.6403V28.1068C41.2382 25.3437 39.4782 24.2578 39.2943 22.314C39.1416 20.3833 40.1201 19.221 41.8349 17.9757C41.5492 19.1314 41.1618 20.1543 41.1486 21.2845C41.1297 22.4148 41.8792 23.2472 41.898 24.4029C41.9103 24.9874 41.619 25.603 41.4851 26.2893C41.3965 26.7653 41.3965 27.2932 41.3965 27.7693V28.1822C41.3965 27.7881 41.9621 27.1028 42.343 26.6899C42.7238 26.2836 43.0161 26.0866 43.3526 25.4446C43.6769 24.8158 43.5685 23.7742 43.8419 22.8277C44.1152 23.5517 44.5281 24.1616 44.5724 24.8922C44.6045 25.6162 44.4706 26.442 43.4544 27.3309C42.4193 28.2265 41.4088 29.3125 41.3965 30.3287V32.5261C41.3965 31.6428 42.2223 30.9188 43.0924 30.3598C43.9625 29.7942 43.905 28.3085 44.0898 27.4186C44.4961 28.1558 45.0174 29.3747 44.6101 30.3277C44.2104 31.2864 43.4101 31.7059 42.8313 32.3159C42.2534 32.938 41.3956 33.4782 41.3956 34.1767V37.0415C41.3956 36.3807 42.8313 35.7397 43.3328 34.9205C43.8287 34.1079 43.6882 33.0153 44.0059 32.0048C43.9616 32.3479 44.7431 33.5866 44.7299 34.3671C44.711 35.1609 44.3745 35.7133 43.9927 36.1582C43.5986 36.5966 42.9953 37.1047 42.5061 37.5176C42.0168 37.9428 41.3946 38.3113 41.3946 39.0796V40.9471C41.3946 40.3438 42.4043 39.4162 43.4403 38.7054C44.4687 37.988 45.0155 36.5391 45.123 35.4531C45.1861 36.2601 45.6754 37.3969 45.3577 38.2482C45.0334 39.0928 43.9729 39.995 43.0585 40.4201C42.1563 40.8396 41.3946 41.6654 41.3946 42.4149V44.0787H41.3984Z" fill="#273023"/>
<path d="M38.4384 16.538L35.5171 22.4006V43.7166C35.5171 45.2598 34.2529 46.5117 32.722 46.5117H27.7616C26.8029 46.5117 26.0468 47.2932 26.0468 48.2264C26.0468 47.2932 25.2653 46.5117 24.3066 46.5117H19.3651C17.8153 46.5117 16.5643 45.2607 16.5643 43.7166V22.4006L13.6298 16.538C13.9474 17.18 14.6837 17.4845 15.3577 17.2554C15.4463 17.2431 15.5359 17.2299 15.6113 17.2299C16.0751 17.2299 16.4437 17.5919 16.4437 18.0425C16.4437 18.4045 16.209 18.7288 15.8592 18.8363C16.0119 18.7599 16.1071 18.6072 16.1071 18.4488C16.1071 17.9596 15.4275 17.8521 15.2747 18.3093C15.2304 18.4488 15.1984 18.5884 15.1984 18.7288C15.1984 19.6564 16.1514 20.272 17.0338 19.9044C17.2176 19.8157 17.4024 19.7516 17.5862 19.6885C17.6626 19.6442 17.7135 19.5678 17.7135 19.466C17.7135 19.3387 17.5862 19.2435 17.4533 19.2624C17.4344 19.2812 17.4024 19.2812 17.3703 19.2812C17.1922 19.2812 17.0527 19.1417 17.0527 18.957C17.0527 18.906 17.0527 18.8617 17.0847 18.8297L17.5231 17.8512L18.495 18.3084C18.609 18.3593 18.6731 18.48 18.6731 18.6006C18.6731 18.7279 18.61 18.8353 18.495 18.8928C18.412 18.9372 18.3677 19.0013 18.3677 19.0899C18.3677 19.2426 18.5072 19.3378 18.6599 19.2935C18.8692 19.2303 19.0728 19.154 19.2567 19.0965C19.8025 18.9381 20.1711 18.4356 20.1711 17.871C20.1711 17.4072 19.9297 16.9943 19.5489 16.753C19.498 16.7209 19.4094 16.6954 19.3198 16.6954C19.0973 16.6954 18.9003 16.8925 18.9003 17.1338C18.9003 17.4072 19.1605 17.6231 19.4339 17.5467C19.3453 17.591 19.2246 17.5976 19.1162 17.5976C18.659 17.5976 18.3036 17.2422 18.3036 16.785C18.3036 16.4353 18.494 16.1374 18.8117 16.0167C19.3575 15.7876 19.7007 15.2673 19.7007 14.6762C19.7007 14.5678 19.7007 14.4603 19.6686 14.3519C19.8213 15.0382 20.4755 15.5143 21.1807 15.4634H21.2316C21.6888 15.4634 22.0696 15.8187 22.0696 16.276C22.0696 16.7332 21.7331 17.0763 21.307 17.1017C21.504 17.0697 21.6567 16.8859 21.6567 16.6888C21.6567 16.2439 21.0789 16.0921 20.8498 16.4475C20.7225 16.6634 20.6594 16.8925 20.6594 17.1338C20.6594 17.9341 21.3768 18.5441 22.2092 18.4045C22.393 18.3602 22.6089 18.3414 22.787 18.3093C22.8822 18.2971 22.9708 18.2075 22.9708 18.1C22.9708 17.9794 22.869 17.8842 22.7418 17.8842C22.5702 17.8842 22.4241 17.7447 22.4241 17.5599C22.4241 17.4901 22.4363 17.426 22.4938 17.3695L23.1415 16.5371L23.9795 17.1847C24.0559 17.2545 24.1002 17.3374 24.1002 17.4392C24.1002 17.5919 23.9918 17.7315 23.8457 17.7503C23.7504 17.7824 23.6741 17.871 23.6741 17.9596C23.6741 18.0991 23.7825 18.1943 23.9343 18.1887C24.1435 18.1566 24.366 18.1444 24.5442 18.1312C25.2305 18.0869 25.7508 17.5212 25.7508 16.8416C25.7508 16.5116 25.6047 16.1751 25.3756 15.9272C25.2927 15.8385 25.1852 15.7999 25.0768 15.7999C24.8355 15.7999 24.6385 15.9903 24.6385 16.2316C24.6385 16.473 24.8223 16.6634 25.058 16.6634C25.0202 16.6757 24.9816 16.6756 24.9439 16.6756C24.4867 16.6756 24.1181 16.2948 24.1181 15.8376C24.1181 15.4379 24.4226 15.0882 24.8232 15.025C25.5284 14.9166 26.0431 14.3199 26.0431 13.6147C26.0431 14.3199 26.5512 14.9166 27.2563 15.025C27.6626 15.0882 27.9548 15.4379 27.9548 15.8376C27.9548 16.2948 27.574 16.6756 27.1168 16.6756C27.0847 16.6756 27.047 16.6757 27.0084 16.6634C27.2497 16.6634 27.4401 16.473 27.4401 16.2316C27.4401 15.8631 26.9641 15.666 26.7029 15.9272C25.9092 16.7209 26.4296 18.0548 27.541 18.1312C27.7569 18.1434 27.9605 18.1755 28.1575 18.1887H28.1698C28.297 18.1887 28.3988 18.0869 28.3988 17.9596C28.3988 17.871 28.3225 17.7814 28.2207 17.7503C28.0745 17.7315 27.9605 17.5919 27.9605 17.4392C27.9605 17.3374 28.018 17.2422 28.0943 17.1847L28.9201 16.5371L29.581 17.3695C29.6253 17.427 29.6573 17.4901 29.6573 17.5599C29.6573 17.7437 29.5046 17.8842 29.333 17.8842H29.3208C29.0606 17.8842 29.0285 18.2839 29.3085 18.3291C29.5178 18.348 29.7148 18.3866 29.9184 18.4055C29.9816 18.4243 30.058 18.4375 30.1277 18.4375C30.8394 18.4375 31.4173 17.8531 31.4173 17.1357C31.4173 16.8944 31.3664 16.6653 31.2335 16.4494C31.1571 16.3287 31.0176 16.2656 30.8649 16.2656C30.3568 16.2656 30.2682 16.9962 30.7763 17.1036C30.3313 17.0782 30.008 16.7228 30.008 16.2778C30.008 15.8329 30.3766 15.4652 30.8338 15.4652H30.9101C31.6153 15.5161 32.244 15.0401 32.4156 14.3538C32.244 15.0401 32.5994 15.7452 33.2735 16.0177C33.5779 16.1383 33.7882 16.4371 33.7882 16.7859C33.7882 17.2431 33.4073 17.5985 32.9501 17.5985C32.8417 17.5985 32.7465 17.5919 32.6456 17.5476C32.6777 17.5599 32.722 17.5599 32.7474 17.5599C32.9954 17.5599 33.1792 17.3695 33.1792 17.1347C33.1792 16.785 32.8238 16.5889 32.5316 16.7539C31.5851 17.3506 31.7689 18.7863 32.8427 19.0974C33.0519 19.1672 33.2424 19.2435 33.4271 19.2944C33.4526 19.2944 33.4714 19.3067 33.4969 19.3067C33.6241 19.3067 33.7128 19.2049 33.7128 19.0908C33.7128 19.0022 33.6553 18.9381 33.5921 18.8938C33.4837 18.8363 33.3951 18.7288 33.3951 18.6016C33.3951 18.4743 33.4837 18.3602 33.5921 18.3093L34.5508 17.8521L35.0014 18.8306C35.0137 18.8627 35.0335 18.907 35.0335 18.9579C35.0335 19.1417 34.8939 19.2822 34.7092 19.2822C34.6903 19.2822 34.6583 19.2822 34.6328 19.2633H34.5819C34.3406 19.2633 34.2774 19.5999 34.5122 19.6951C34.7092 19.7648 34.9062 19.8412 35.09 19.9175C35.2427 19.9939 35.4077 20.0128 35.5915 20.0128C36.2967 20.0128 36.8679 19.4349 36.8679 18.7298C36.8679 18.5902 36.8491 18.4507 36.8048 18.3103C36.7539 18.1453 36.5889 18.0246 36.4051 18.0246C35.9479 18.0246 35.7951 18.6468 36.208 18.8372C35.8715 18.7288 35.6424 18.4055 35.6424 18.0435C35.6424 17.5929 36.011 17.2309 36.4682 17.2309C36.5568 17.2309 36.6464 17.2431 36.7162 17.2563C37.4024 17.4854 38.1198 17.18 38.4375 16.539L38.4384 16.538Z" fill="#273023"/>
<path d="M34.8884 22.4005H17.2054C22.8333 19.7836 29.2794 19.7968 34.8884 22.4005Z" fill="#F3F5F2"/>
<path d="M34.8629 23.0293V43.7166C34.8629 44.9043 33.9099 45.8574 32.7221 45.8574H27.7616C27.1074 45.8574 26.4909 46.143 26.0469 46.6068C25.602 46.143 24.9609 45.8574 24.3067 45.8574H19.3651C18.1708 45.8574 17.2054 44.9043 17.2054 43.7166V23.0293H34.8629Z" fill="#F3F5F2"/>
<path d="M32.4931 43.2273C32.5308 43.2848 32.5506 43.3479 32.5506 43.4177C32.5506 43.6081 32.3979 43.7608 32.2141 43.7608C32.0934 43.7608 31.985 43.7099 31.9218 43.6081L25.7548 34.4622L19.5745 43.6081C19.3963 43.8937 18.9523 43.7608 18.9523 43.4177C18.9523 43.3479 18.9778 43.2848 19.0098 43.2273L25.3419 33.8456L21.7022 28.4469L18.8317 30.3841L18.1963 29.4376L18.3547 29.3424L17.9352 27.5579L19.4218 28.6119L19.5745 28.5034L19.1616 26.7246L20.6482 27.7729L20.8132 27.6776L20.3881 25.8988L21.8869 26.9527L22.0396 26.8509L21.6145 25.0721L23.1134 26.126L23.2661 26.0119L22.8532 24.2331L24.3398 25.287L24.5048 25.1918L25.1335 26.1316L22.2687 28.0689L25.7557 33.2329L28.7157 28.8381C27.8079 27.9803 27.7759 26.5389 28.6526 25.6433L30.4437 23.8334L29.2493 26.603C29.2305 26.6473 29.2173 26.6859 29.2173 26.7303C29.2173 26.8952 29.3568 27.0347 29.5217 27.0347C29.6104 27.0347 29.6867 27.0027 29.7376 26.9395L31.853 24.7987L30.6586 27.5683C30.652 27.6003 30.6398 27.6447 30.6398 27.689C30.6398 27.8473 30.7736 27.9935 30.9443 27.9935C31.0206 27.9935 31.1092 27.9614 31.1601 27.8916L33.2755 25.7451L32.2659 28.0887C31.77 29.2321 30.4239 29.7402 29.2936 29.2189L26.1686 33.8494L32.495 43.2244L32.4931 43.2273Z" fill="#273023"/>
</g>
<defs>
<clipPath id="clip0_9911_1719">
<rect width="111.627" height="103.885" fill="white" transform="translate(0.424805 0.107178)"/>
</clipPath>
</defs>
</svg>
