<svg width="76" height="102" viewBox="0 0 76 102" fill="none" xmlns="http://www.w3.org/2000/svg">
<g opacity="0.8" clip-path="url(#clip0_9911_1739)">
<path d="M74.5503 71.9463C73.32 74.6516 71.5446 76.5486 69.5253 77.9858C68.9898 78.3707 68.4922 78.7749 67.9568 79.1879L38.0217 101.853C36.9129 101.083 35.9081 100.275 34.8469 99.4579L6.50757 77.9858C4.89161 76.7555 4.97615 76.8208 3.63314 75.3272C2.85374 74.4632 2.10172 73.1855 1.50993 71.9173C0.0171542 68.7619 0.186239 65.8875 0.186239 62.2054V12.4037C0.186239 10.5905 0.0356731 9.08804 0.890756 7.61298C2.11219 5.51795 5.2958 4.70151 8.32966 3.97767C17.8539 1.67732 28.1584 0.493732 38.0208 0.48407C44.8969 0.48407 51.7907 1.05735 58.4881 2.13707C61.6065 2.63466 64.6967 3.23612 67.712 3.97848C69.1959 4.34483 70.6332 4.69266 71.9955 5.21843C75.9778 6.78689 75.8563 9.05986 75.8563 12.4045V62.2063C75.8563 66.0195 76.0535 68.65 74.5503 71.9471V71.9463Z" fill="#273023"/>
<path d="M4.13086 69.8798L12.0867 63.7927V78.2019C11.2598 77.648 10.5086 77.028 9.7195 76.4265C7.43686 74.7075 5.1357 73.2236 4.13086 69.8798Z" fill="#273023"/>
<path d="M32.8268 47.9664L32.8365 93.9074C32.545 93.7947 31.7938 93.1651 31.4838 92.9308C28.9387 90.9581 24.9467 87.8864 22.4193 86.0837L22.4572 55.9037C22.6729 55.6123 27.1915 52.2499 27.6327 51.9021C28.0933 51.5357 32.3856 48.1734 32.8268 47.9664Z" fill="#273023"/>
<path d="M53.5662 32.054L53.5847 86.0917L52.2884 87.0781C51.8375 87.4259 51.4333 87.7447 50.9921 88.0644C50.1282 88.7125 49.2634 89.3985 48.381 90.0467L43.149 93.9727C43.2803 93.2496 43.1869 91.4276 43.1869 90.591C43.1869 82.541 43.2714 40.348 43.1305 40.0751C43.422 39.7184 52.129 33.1998 53.5662 32.0532V32.054Z" fill="#273023"/>
<path d="M72.2306 69.147C71.6767 71.11 70.3707 73.3177 68.8586 74.4732L65.1951 77.2912C64.7724 77.6012 64.3964 77.9394 63.927 78.2115L63.8892 24.1827C64.0679 23.9387 64.7249 23.516 64.9785 23.3187L71.5632 18.2744C71.8168 18.0771 72.3804 17.6077 72.6155 17.495C72.7379 18.7068 72.634 20.5288 72.634 21.8066V60.8627C72.634 63.3329 72.878 66.8837 72.2298 69.147H72.2306Z" fill="#273023"/>
<path d="M21.1795 56.8329C21.471 56.6075 22.1658 56.0157 22.4573 55.903L22.4194 86.0829C22.0434 85.6602 13.214 79.2543 12.0868 78.2019V63.7927C12.4813 63.4449 12.9789 63.1164 13.3831 62.7968L21.1795 56.8321V56.8329Z" fill="#F3F5F2"/>
<path d="M43.1877 90.5918C43.1877 91.4275 43.2819 93.2496 43.1499 93.9735L38.021 97.8624C37.6828 97.6933 37.0443 97.1482 36.7062 96.8857C36.2174 96.5097 32.9775 94.1337 32.8366 93.9083L32.8269 47.9673C33.1554 47.6106 33.6441 47.3006 34.0765 46.9624C34.5274 46.6146 34.9219 46.3328 35.3728 45.9664L40.5299 42.0308C40.9905 41.6644 41.3471 41.4108 41.8262 41.0348C42.2586 40.6966 42.662 40.3681 43.1322 40.0767C43.2731 40.3488 43.1885 82.5426 43.1885 90.5926L43.1877 90.5918Z" fill="#F3F5F2"/>
<path d="M63.8893 24.1827L63.9271 78.2116C63.7017 78.4837 59.2024 81.8372 58.7701 82.1657L53.5848 86.0917L53.5663 32.054L63.8893 24.1827Z" fill="#F3F5F2"/>
<path d="M13.8903 47.6466L10.9128 49.8632L10.9225 14.0568C12.8952 13.5399 15.7696 12.9014 17.8638 12.6575C18.1835 14.358 18.9162 15.4377 20.5217 16.2171C22.3912 17.1189 23.6497 16.9313 25.6876 16.6116C25.9791 16.9401 26.0161 17.1849 26.3543 17.5037C27.2375 18.3025 27.8011 18.8097 29.4066 19.1197C31.9993 19.6084 33.1168 18.7719 34.6007 18.4901V31.772C34.5065 32.082 34.1402 32.2511 33.8777 32.458L22.202 41.2971L22.2487 40.029C22.5491 39.7657 22.6996 39.7287 22.9911 39.4372C23.8083 38.6385 24.1183 38.3478 24.7383 37.1546C25.3583 35.9524 25.7995 34.3558 25.7625 32.7962C25.3212 32.9186 25.0579 33.0402 24.541 33.0595L25.0201 32.8437C25.9879 32.487 26.6449 31.8856 27.2842 31.078C27.942 30.2326 28.5057 29.2181 28.8527 27.9781C29.3503 26.2309 30.562 22.2671 30.9002 20.755C28.5991 20.5859 27.9509 22.6053 26.57 24.681C25.9782 25.5828 26.1473 25.47 25.2922 26.0618C24.9726 25.9676 24.3526 25.404 24.0145 25.1415C23.3285 24.6061 23.4508 24.8315 23.2157 23.8074C22.7181 21.6753 22.5676 22.3516 23.5354 20.6141C23.8454 20.0601 24.0523 19.759 24.0048 18.9699C23.9766 18.4249 23.7415 17.664 23.2721 17.5891C22.8961 17.5231 20.7552 19.0166 20.6609 19.139C20.1915 19.036 20.041 18.763 19.4677 19.0642C18.979 19.3274 17.8429 20.2663 17.6545 20.3419C17.2881 20.511 16.6585 20.3234 16.1987 20.408C15.5973 21.1028 16.1327 21.6761 16.4524 22.2679C16.7623 22.8694 16.9693 23.4982 17.1102 24.222C17.8525 27.9322 16.1706 33.8123 14.4242 36.7995C14.0957 37.3534 13.7293 37.8889 13.4378 38.4243C12.8364 39.533 14.0957 39.7955 14.2172 39.9082C14.4709 40.124 14.9217 41.2609 15.053 41.6924C15.2688 42.397 15.3815 43.1764 15.4193 43.9469C15.4475 44.5572 15.4008 45.8254 15.2599 46.3986C15.1472 46.8117 14.2551 47.3568 13.8887 47.6482L13.8903 47.6466Z" fill="#F3F5F2"/>
<path d="M39.7867 17.7107C40.2191 17.8234 41.1958 18.4337 41.8721 18.6688C43.563 19.2606 45.2345 19.3266 46.6999 18.2461C47.5075 17.6446 47.7522 16.9594 48.0525 16.5931C49.9125 16.8652 51.1895 16.9876 52.6927 16.011C53.923 15.2219 54.6187 14.085 54.3087 12.0375L59.5873 12.8926C59.2958 13.2211 55.1162 16.3306 54.6372 16.697C52.9745 17.9651 51.3682 19.1769 49.7055 20.4538C48.0332 21.7316 46.3714 22.9523 44.7087 24.2301L39.7867 27.9402V17.7115V17.7107Z" fill="#F3F5F2"/>
<path d="M3.68976 34.6465L1.27588 32.843H4.26303L5.17367 29.913L6.09478 32.843H9.08113L6.65839 34.6465L7.58755 37.5676L5.17367 35.7552L2.76946 37.5676L3.68976 34.6465Z" fill="#F3F5F2"/>
<path d="M4.20662 11.9345L1.78308 10.1309H4.77024L5.68088 7.20978L6.60198 10.1309H9.58833L7.1656 11.9345L8.09475 14.8556L5.68088 13.0424L3.27666 14.8556L4.20662 11.9345Z" fill="#F3F5F2"/>
<path d="M9.97401 58.7394L7.55932 60.543L8.48928 63.4641L6.07541 61.6517L3.66153 63.4641L4.59149 60.543L2.17761 58.7394H5.16477L6.07541 55.8094L6.99571 58.7394H9.97401Z" fill="#F3F5F2"/>
<path d="M31.4646 42.988L29.0507 44.7907L29.971 47.7215L27.5668 45.9091L25.1529 47.7215L26.0828 44.7907L23.6593 42.988L26.6465 42.9968L27.5668 40.066L28.4782 42.9968L31.4646 42.988Z" fill="#F3F5F2"/>
<path d="M35.7102 7.90469L33.2875 6.10112L36.2738 6.11079L37.1949 3.17999L38.1056 6.11079L41.0927 6.10112L38.6788 7.90469L39.5991 10.8355L37.1949 9.02225L34.7802 10.8355L35.7102 7.90469Z" fill="#F3F5F2"/>
<path d="M51.8103 28.2785L49.3868 30.0821L50.3167 33.0121L47.9029 31.1996L45.4978 33.0121L46.419 30.0821L44.0043 28.2785L46.9914 28.2874L47.9029 25.3566L48.8232 28.2874L51.8103 28.2785Z" fill="#F3F5F2"/>
<path d="M69.5537 11.85L70.4836 14.7711L68.0697 12.9579L65.6559 14.7711L66.585 11.85L64.1711 10.0464H67.1583L68.0697 7.1156L68.99 10.0464H71.9772L69.5537 11.85Z" fill="#F3F5F2"/>
</g>
<defs>
<clipPath id="clip0_9911_1739">
<rect width="75.6885" height="101.369" fill="white" transform="translate(0.175781 0.484192)"/>
</clipPath>
</defs>
</svg>
