<svg width="111" height="155" viewBox="0 0 111 155" fill="none" xmlns="http://www.w3.org/2000/svg">
<g opacity="0.8" clip-path="url(#clip0_9913_2583)">
<path d="M55.6042 153.466C25.8554 153.473 1.6762 129.324 1.65407 99.5824C1.63193 69.8663 25.7899 45.7276 55.5849 45.6949C85.3308 45.6631 109.499 69.7951 109.534 99.5622C109.568 129.261 85.3578 153.458 55.6051 153.465L55.6042 153.466Z" stroke="#273023" stroke-width="1.00157"/>
<path d="M55.6138 146.433C29.7888 146.482 8.73079 125.457 8.70096 99.5912C8.67112 73.7576 29.6849 52.7506 55.5772 52.7323C81.4599 52.7131 102.426 73.5892 102.474 99.5537C102.521 125.349 81.6254 146.368 55.6138 146.433Z" stroke="#273023" stroke-width="1.00157"/>
<path d="M20.8968 88.0449C20.1374 90.2267 19.6168 92.2979 19.2626 94.4104C18.7612 97.3959 18.6129 100.402 18.9036 103.416C19.5898 110.544 22.2894 116.736 27.5222 121.729C27.8847 122.076 27.8863 122.43 27.527 122.793C25.4866 124.863 23.4415 126.929 21.4136 129.011C21.1643 129.267 21.0681 129.238 20.8516 128.978C15.9258 123.096 12.6661 116.402 11.0877 108.895C10.183 104.595 9.90774 100.252 10.285 95.8704C11.0963 86.4597 14.5351 78.1135 20.4829 70.801C23.9361 66.5557 28.0736 63.0996 32.803 60.3461C33.1235 60.1594 33.2352 60.3403 33.4007 60.5068C36.8462 63.9475 40.2956 67.3863 43.7305 70.8385C44.0009 71.1109 44.2069 71.134 44.5486 70.9963C48.5802 69.3795 52.7745 68.6307 57.1141 68.7577C60.4017 68.854 63.6066 69.4439 66.7028 70.5681C67.0242 70.6845 67.2129 70.6412 67.4525 70.4016C70.7931 67.0484 74.1491 63.7107 77.4849 60.3538C77.7583 60.0785 77.9363 60.0843 78.2414 60.2643C89.2872 66.7867 96.4477 76.2512 99.6882 88.6618C100.905 93.32 101.308 98.0705 100.951 102.871C100.261 112.133 96.9646 120.374 91.3468 127.764C87.6501 132.629 82.939 136.206 77.7361 139.24C76.4503 139.989 75.1443 140.702 73.8296 141.401C73.5495 141.549 73.3811 141.553 73.1376 141.305C69.2321 137.313 65.3102 133.336 61.4027 129.345C61.1149 129.051 60.8647 128.926 60.4268 128.988C58.6771 129.236 56.9149 129.332 55.1478 129.247C54.8254 129.231 54.8119 129.368 54.8119 129.615C54.8187 131.67 54.8052 133.725 54.8245 135.78C54.8283 136.159 54.7301 136.26 54.349 136.257C52.2038 136.238 50.0575 136.236 47.9123 136.259C47.509 136.263 47.4522 136.13 47.4541 135.772C47.4695 133.367 47.4513 130.962 47.4734 128.557C47.4772 128.142 47.3666 127.973 46.9575 127.837C36.699 124.402 29.7675 117.633 26.5443 107.242C25.17 102.81 24.9919 98.2726 25.811 93.702C25.8687 93.3777 25.8206 93.1458 25.5704 92.8965C24.1046 91.4355 22.6609 89.9524 21.2125 88.4741C21.1181 88.3769 21.0498 88.2547 20.8987 88.0458L20.8968 88.0449Z" fill="#273023"/>
<path d="M48.5774 120.591V120.021C48.5774 113.627 48.5812 107.235 48.5677 100.841C48.5677 100.43 48.662 100.314 49.0855 100.315C53.4222 100.331 57.759 100.33 62.0966 100.317C62.4768 100.316 62.6308 100.375 62.6106 100.805C62.5711 101.625 62.5798 102.449 62.6077 103.269C62.6202 103.646 62.5172 103.758 62.1313 103.756C59.5144 103.739 56.8966 103.746 54.2788 103.749C53.5839 103.749 53.6859 103.696 53.685 104.321C53.6811 106.179 53.6917 108.035 53.6763 109.893C53.6734 110.215 53.761 110.297 54.0805 110.295C56.7744 110.283 59.4673 110.295 62.1611 110.279C62.5297 110.277 62.6154 110.385 62.6087 110.736C62.5865 111.862 62.5827 112.989 62.6106 114.115C62.6202 114.511 62.4864 114.584 62.1217 114.582C59.4586 114.567 56.7956 114.58 54.1325 114.566C53.7851 114.564 53.6715 114.64 53.6754 115.01C53.6946 117.126 53.6879 119.242 53.6802 121.357C53.6802 121.62 53.7071 121.765 54.0315 121.791C59.5529 122.248 64.6596 121.029 69.3226 118.022C71.1887 116.818 72.8345 115.355 74.2608 113.651C74.461 113.413 74.5659 113.37 74.795 113.628C76.05 115.037 77.3194 116.434 78.5995 117.821C78.8103 118.049 78.7679 118.175 78.5841 118.375C74.2618 123.076 68.9675 126.081 62.7415 127.456C59.8696 128.091 56.9621 128.258 54.0324 128.053C53.6667 128.028 53.6792 128.186 53.6802 128.438C53.685 130.524 53.6734 132.609 53.6917 134.694C53.6946 135.06 53.5897 135.143 53.2384 135.139C51.8236 135.118 50.4079 135.117 48.9931 135.139C48.6447 135.143 48.5668 135.042 48.5687 134.706C48.5841 132.362 48.5639 130.018 48.5889 127.674C48.5937 127.259 48.4648 127.106 48.0798 126.997C42.5314 125.424 37.7885 122.525 33.9234 118.239C30.0871 113.986 27.6194 109.028 26.8399 103.348C25.3163 92.2544 29.116 83.2288 37.7298 76.1664C38.3313 75.6727 38.3438 75.6862 37.8231 75.1414C36.0975 73.3388 34.368 71.5391 32.6481 69.7297C32.4576 69.5285 32.3498 69.49 32.113 69.6941C25.4857 75.4023 21.0614 82.4886 18.8497 90.9465C17.6717 95.4516 17.3089 100.029 17.9027 104.656C18.7583 111.333 21.3973 117.175 26.1729 121.984C26.4231 122.236 26.401 122.35 26.1681 122.583C24.5964 124.153 23.0373 125.737 21.4849 127.326C21.2693 127.547 21.1644 127.589 20.944 127.312C16.2762 121.414 13.2763 114.768 11.9424 107.366C11.1897 103.189 11.0406 98.9876 11.516 94.7741C12.3524 87.3663 14.9009 80.5907 19.1394 74.4562C22.7024 69.2995 27.17 65.1013 32.5163 61.8329C32.8166 61.6491 32.9754 61.6597 33.2294 61.9147C36.6432 65.3458 40.0733 68.7596 43.4871 72.1906C43.7469 72.4524 43.9336 72.4755 44.2666 72.3321C48.7179 70.4188 53.3703 69.6325 58.2007 69.9395C61.2228 70.132 64.1553 70.7691 66.9791 71.8721C67.3236 72.0068 67.5084 71.9394 67.7538 71.693C71.0396 68.3929 74.3436 65.11 77.6216 61.8021C77.9392 61.4816 78.1375 61.498 78.4859 61.7136C88.8186 68.0984 95.5315 77.1654 98.5892 88.9158C99.9876 94.29 100.295 99.7566 99.5805 105.262C98.5026 113.573 95.2958 120.987 90.064 127.53C89.8599 127.786 89.755 127.838 89.4942 127.574C87.8282 125.882 86.1478 124.205 84.4559 122.539C84.2105 122.298 84.2191 122.185 84.4588 121.943C88.8696 117.486 91.4922 112.114 92.4835 105.95C93.8021 97.7528 92.2776 90.0033 88.6155 82.633C86.1411 77.6524 82.7601 73.3638 78.5321 69.7451C78.2819 69.5305 78.1481 69.492 77.895 69.7614C76.3849 71.3706 74.8585 72.9644 73.3196 74.5467C73.0289 74.845 73.0126 74.9846 73.3783 75.2348C76.2232 77.1712 78.6437 79.5455 80.6629 82.3347C80.8843 82.6407 80.8554 82.7783 80.5753 83.017C79.1375 84.2384 77.7208 85.4857 76.2973 86.7234C76.2309 86.7811 76.1597 86.834 76.0712 86.9033C75.1434 85.4828 74.103 84.1748 72.9096 82.993C71.694 81.789 70.3591 80.738 68.9232 79.8092C68.6277 79.6187 68.4679 79.6235 68.2139 79.8901C64.0273 84.2884 59.8234 88.6713 55.6387 93.0706C55.3423 93.3815 55.2066 93.3564 54.9265 93.0629C51.0036 88.9379 47.0634 84.8312 43.1454 80.7024C42.8201 80.3597 42.6353 80.378 42.2811 80.6437C37.518 84.2124 34.4334 88.8638 33.3064 94.7279C32.1958 100.506 33.2516 105.927 36.3429 110.918C39.185 115.506 43.2368 118.635 48.2809 120.502C48.3637 120.533 48.4513 120.553 48.5783 120.591H48.5774Z" fill="#F3F5F2"/>
<path d="M87.3791 116.472C87.0798 116.149 86.8094 115.841 86.5207 115.55C78.0628 107.028 69.603 98.5066 61.1432 89.9852C60.8025 89.6419 60.8035 89.2894 61.1461 88.9275C63.5647 86.3973 65.99 83.8738 68.3961 81.332C68.6589 81.0548 68.8148 81.0779 69.0997 81.2771C71.6626 83.0769 73.7771 85.2943 75.3988 87.9766C75.5239 88.1845 75.6519 88.3905 75.8049 88.6426C76.6875 87.8775 77.5537 87.1268 78.4189 86.3751C79.6133 85.3376 80.7971 84.2866 82.0078 83.2684C82.3235 83.0028 82.3745 82.8343 82.1281 82.4715C80.1724 79.5842 77.8068 77.0915 75.008 75.0146C74.7511 74.824 74.7183 74.7133 74.9541 74.4727C75.9762 73.4294 76.9878 72.3746 77.9819 71.3034C78.2139 71.0532 78.3323 71.059 78.5796 71.2832C83.4592 75.7046 87.0529 81.0019 89.3685 87.1614C91.072 91.6926 91.9353 96.3796 91.8092 101.225C91.6706 106.518 90.3829 111.498 87.639 116.063C87.5697 116.179 87.4937 116.29 87.3782 116.47L87.3791 116.472Z" fill="#F3F5F2"/>
<path d="M47.461 118.92C41.2485 117.076 34.2189 107.952 34.2516 101.818C34.42 101.845 34.4922 101.994 34.5932 102.096C38.7991 106.368 43.002 110.643 47.2069 114.917C47.3464 115.059 47.4696 115.185 47.4677 115.417C47.4552 116.572 47.4619 117.728 47.4619 118.921L47.461 118.92Z" fill="#F3F5F2"/>
<path d="M48.699 77.3485C53.2465 75.8779 57.8026 75.7528 62.4021 76.952C62.378 77.1041 62.2635 77.1657 62.1807 77.2484C60.0104 79.4206 57.8382 81.59 55.667 83.7612C55.5062 83.9219 55.3994 84.099 55.1338 83.8315C53.0386 81.7141 50.926 79.6131 48.8193 77.5064C48.7779 77.465 48.748 77.414 48.698 77.3485H48.699Z" fill="#273023"/>
<path d="M50.8506 77.9056C53.9679 77.1722 57.0342 77.077 60.1313 77.6101C60.0967 77.793 59.9677 77.8623 59.8753 77.9547C58.4682 79.3647 57.0525 80.7669 55.6541 82.1865C55.4346 82.4088 55.3259 82.4252 55.0968 82.1923C53.786 80.8574 52.4559 79.5417 51.1335 78.2194C51.0498 78.1356 50.9747 78.0442 50.8515 77.9066L50.8506 77.9056Z" fill="#F3F5F2"/>
<path d="M52.1948 26.0871C52.4595 25.9706 52.5914 25.858 52.6193 25.5462C52.6837 24.8157 53.0976 24.3181 53.7828 24.0487C53.9224 23.9938 54.0581 23.9274 54.2361 23.8465C53.6808 23.3701 53.2593 22.8533 53.2795 22.0901C53.292 21.6118 53.3786 21.1565 53.5278 20.7052C53.6077 20.4655 53.6616 20.2134 53.2833 20.1624C51.3315 19.8996 49.3739 19.8101 47.4192 20.0921C44.6984 20.4828 42.2394 21.5925 39.867 22.9245C39.6745 23.0333 39.5918 23.194 39.5311 23.3865C39.2742 24.1978 39.0682 25.0226 38.9046 25.858C38.8603 26.0765 38.9229 26.1939 39.1221 26.2853C39.4436 26.4355 39.741 26.6424 39.9065 26.959C40.1009 27.3325 40.3916 27.4663 40.7919 27.5423C41.8747 27.7492 42.5897 28.4142 42.8737 29.4777C43.1826 30.6317 43.0036 31.6759 42.0479 32.5046C41.6677 32.8347 41.2269 33.0638 40.7785 33.3111C41.0373 33.6364 41.3444 33.8347 41.6581 34.0185C42.3905 34.4477 42.8891 34.3948 43.5233 33.8318C43.9006 33.4959 44.2076 33.1023 44.5031 32.6932C44.6686 32.4642 44.7225 32.2544 44.6214 31.981C44.4164 31.4286 44.3943 30.8482 44.4549 30.2698C44.5339 29.5143 44.9121 28.9503 45.6243 28.6587C46.3375 28.3661 47.0795 28.3536 47.8167 28.5528C48.4385 28.7203 48.8792 29.1313 49.1632 29.7029C49.4606 30.3016 49.5818 30.957 49.5173 31.6076C49.475 32.0311 49.6155 32.2698 49.9254 32.4776C50.089 32.5874 50.243 32.7144 50.4134 32.8135C51.5721 33.494 52.626 33.1706 53.2015 31.9608C53.3684 31.6098 53.2541 31.4154 52.8589 31.3776C51.4759 31.2467 50.551 30.4556 50.4047 29.2775C50.2353 27.9224 50.9446 26.6347 52.1929 26.088L52.1948 26.0871ZM52.1948 26.0871C52.4595 25.9706 52.5914 25.858 52.6193 25.5462C52.6837 24.8157 53.0976 24.3181 53.7828 24.0487C53.9224 23.9938 54.0581 23.9274 54.2361 23.8465C53.6808 23.3701 53.2593 22.8533 53.2795 22.0901C53.292 21.6118 53.3786 21.1565 53.5278 20.7052C53.6077 20.4655 53.6616 20.2134 53.2833 20.1624C51.3315 19.8996 49.3739 19.8101 47.4192 20.0921C44.6984 20.4828 42.2394 21.5925 39.867 22.9245C39.6745 23.0333 39.5918 23.194 39.5311 23.3865C39.2742 24.1978 39.0682 25.0226 38.9046 25.858C38.8603 26.0765 38.9229 26.1939 39.1221 26.2853C39.4436 26.4355 39.741 26.6424 39.9065 26.959C40.1009 27.3325 40.3916 27.4663 40.7919 27.5423C41.8747 27.7492 42.5897 28.4142 42.8737 29.4777C43.1826 30.6317 43.0036 31.6759 42.0479 32.5046C41.6677 32.8347 41.2269 33.0638 40.7785 33.3111C41.0373 33.6364 41.3444 33.8347 41.6581 34.0185C42.3905 34.4477 42.8891 34.3948 43.5233 33.8318C43.9006 33.4959 44.2076 33.1023 44.5031 32.6932C44.6686 32.4642 44.7225 32.2544 44.6214 31.981C44.4164 31.4286 44.3943 30.8482 44.4549 30.2698C44.5339 29.5143 44.9121 28.9503 45.6243 28.6587C46.3375 28.3661 47.0795 28.3536 47.8167 28.5528C48.4385 28.7203 48.8792 29.1313 49.1632 29.7029C49.4606 30.3016 49.5818 30.957 49.5173 31.6076C49.475 32.0311 49.6155 32.2698 49.9254 32.4776C50.089 32.5874 50.243 32.7144 50.4134 32.8135C51.5721 33.494 52.626 33.1706 53.2015 31.9608C53.3684 31.6098 53.2541 31.4154 52.8589 31.3776C51.4759 31.2467 50.551 30.4556 50.4047 29.2775C50.2353 27.9224 50.9446 26.6347 52.1929 26.088L52.1948 26.0871ZM52.1948 26.0871C52.4595 25.9706 52.5914 25.858 52.6193 25.5462C52.6837 24.8157 53.0976 24.3181 53.7828 24.0487C53.9224 23.9938 54.0581 23.9274 54.2361 23.8465C53.6808 23.3701 53.2593 22.8533 53.2795 22.0901C53.292 21.6118 53.3786 21.1565 53.5278 20.7052C53.6077 20.4655 53.6616 20.2134 53.2833 20.1624C51.3315 19.8996 49.3739 19.8101 47.4192 20.0921C44.6984 20.4828 42.2394 21.5925 39.867 22.9245C39.6745 23.0333 39.5918 23.194 39.5311 23.3865C39.2742 24.1978 39.0682 25.0226 38.9046 25.858C38.8603 26.0765 38.9229 26.1939 39.1221 26.2853C39.4436 26.4355 39.741 26.6424 39.9065 26.959C40.1009 27.3325 40.3916 27.4663 40.7919 27.5423C41.8747 27.7492 42.5897 28.4142 42.8737 29.4777C43.1826 30.6317 43.0036 31.6759 42.0479 32.5046C41.6677 32.8347 41.2269 33.0638 40.7785 33.3111C41.0373 33.6364 41.3444 33.8347 41.6581 34.0185C42.3905 34.4477 42.8891 34.3948 43.5233 33.8318C43.9006 33.4959 44.2076 33.1023 44.5031 32.6932C44.6686 32.4642 44.7225 32.2544 44.6214 31.981C44.4164 31.4286 44.3943 30.8482 44.4549 30.2698C44.5339 29.5143 44.9121 28.9503 45.6243 28.6587C46.3375 28.3661 47.0795 28.3536 47.8167 28.5528C48.4385 28.7203 48.8792 29.1313 49.1632 29.7029C49.4606 30.3016 49.5818 30.957 49.5173 31.6076C49.475 32.0311 49.6155 32.2698 49.9254 32.4776C50.089 32.5874 50.243 32.7144 50.4134 32.8135C51.5721 33.494 52.626 33.1706 53.2015 31.9608C53.3684 31.6098 53.2541 31.4154 52.8589 31.3776C51.4759 31.2467 50.551 30.4556 50.4047 29.2775C50.2353 27.9224 50.9446 26.6347 52.1929 26.088L52.1948 26.0871ZM72.2798 25.8763C72.0383 24.6348 71.7024 23.4231 71.2317 22.2489C71.1644 22.0795 71.0643 21.9727 70.9074 21.8928C68.7467 20.7831 66.4831 20.0469 64.0356 19.9516C62.0068 19.8717 59.9963 20.0257 58.0041 20.4193C57.7731 20.4646 57.5594 20.4646 57.6855 20.8303C58.0762 21.9669 58.0445 23.0256 56.9569 23.8234C57.0262 23.8725 57.057 23.9081 57.0955 23.9216C57.9906 24.2152 58.5555 24.7782 58.5921 25.7637C58.6008 25.9803 58.7692 25.9851 58.9001 26.0399C59.6797 26.3691 60.2485 26.9071 60.5613 27.702C61.1368 29.1726 60.6671 30.5297 59.3804 31.0965C58.9588 31.2813 58.517 31.3824 58.0551 31.3968C57.9203 31.4007 57.7866 31.3766 57.8395 31.6172C57.9887 32.2957 58.6527 32.9974 59.3341 33.1311C60.1936 33.3005 60.8115 32.8183 61.4284 32.3381C61.6228 32.186 61.6844 32.0186 61.668 31.752C61.6132 30.8896 61.7345 30.0542 62.2532 29.3209C63.0116 28.2506 64.6593 28.2757 65.5919 28.6741C66.5351 29.0774 66.9441 30.0985 66.7073 31.3997C66.6939 31.4748 66.6852 31.5537 66.6534 31.6211C66.357 32.239 66.6053 32.7211 67.0259 33.1648C67.2155 33.3631 67.3878 33.5767 67.587 33.7644C68.2886 34.4246 68.8112 34.4718 69.6322 33.9521C69.8372 33.8222 70.0229 33.6653 70.2193 33.5209C70.4127 33.3794 70.404 33.2813 70.174 33.1812C69.7958 33.0166 69.457 32.7837 69.1423 32.5171C67.4946 31.1206 67.9806 28.3257 70.0297 27.6539C70.637 27.4547 71.1605 27.2747 71.5031 26.6963C71.6158 26.5057 71.8756 26.3903 72.0883 26.2767C72.2664 26.1814 72.3203 26.0765 72.2818 25.8792L72.2798 25.8763ZM72.2798 25.8763C72.0383 24.6348 71.7024 23.4231 71.2317 22.2489C71.1644 22.0795 71.0643 21.9727 70.9074 21.8928C68.7467 20.7831 66.4831 20.0469 64.0356 19.9516C62.0068 19.8717 59.9963 20.0257 58.0041 20.4193C57.7731 20.4646 57.5594 20.4646 57.6855 20.8303C58.0762 21.9669 58.0445 23.0256 56.9569 23.8234C57.0262 23.8725 57.057 23.9081 57.0955 23.9216C57.9906 24.2152 58.5555 24.7782 58.5921 25.7637C58.6008 25.9803 58.7692 25.9851 58.9001 26.0399C59.6797 26.3691 60.2485 26.9071 60.5613 27.702C61.1368 29.1726 60.6671 30.5297 59.3804 31.0965C58.9588 31.2813 58.517 31.3824 58.0551 31.3968C57.9203 31.4007 57.7866 31.3766 57.8395 31.6172C57.9887 32.2957 58.6527 32.9974 59.3341 33.1311C60.1936 33.3005 60.8115 32.8183 61.4284 32.3381C61.6228 32.186 61.6844 32.0186 61.668 31.752C61.6132 30.8896 61.7345 30.0542 62.2532 29.3209C63.0116 28.2506 64.6593 28.2757 65.5919 28.6741C66.5351 29.0774 66.9441 30.0985 66.7073 31.3997C66.6939 31.4748 66.6852 31.5537 66.6534 31.6211C66.357 32.239 66.6053 32.7211 67.0259 33.1648C67.2155 33.3631 67.3878 33.5767 67.587 33.7644C68.2886 34.4246 68.8112 34.4718 69.6322 33.9521C69.8372 33.8222 70.0229 33.6653 70.2193 33.5209C70.4127 33.3794 70.404 33.2813 70.174 33.1812C69.7958 33.0166 69.457 32.7837 69.1423 32.5171C67.4946 31.1206 67.9806 28.3257 70.0297 27.6539C70.637 27.4547 71.1605 27.2747 71.5031 26.6963C71.6158 26.5057 71.8756 26.3903 72.0883 26.2767C72.2664 26.1814 72.3203 26.0765 72.2818 25.8792L72.2798 25.8763ZM52.1948 26.0871C52.4595 25.9706 52.5914 25.858 52.6193 25.5462C52.6837 24.8157 53.0976 24.3181 53.7828 24.0487C53.9224 23.9938 54.0581 23.9274 54.2361 23.8465C53.6808 23.3701 53.2593 22.8533 53.2795 22.0901C53.292 21.6118 53.3786 21.1565 53.5278 20.7052C53.6077 20.4655 53.6616 20.2134 53.2833 20.1624C51.3315 19.8996 49.3739 19.8101 47.4192 20.0921C44.6984 20.4828 42.2394 21.5925 39.867 22.9245C39.6745 23.0333 39.5918 23.194 39.5311 23.3865C39.2742 24.1978 39.0682 25.0226 38.9046 25.858C38.8603 26.0765 38.9229 26.1939 39.1221 26.2853C39.4436 26.4355 39.741 26.6424 39.9065 26.959C40.1009 27.3325 40.3916 27.4663 40.7919 27.5423C41.8747 27.7492 42.5897 28.4142 42.8737 29.4777C43.1826 30.6317 43.0036 31.6759 42.0479 32.5046C41.6677 32.8347 41.2269 33.0638 40.7785 33.3111C41.0373 33.6364 41.3444 33.8347 41.6581 34.0185C42.3905 34.4477 42.8891 34.3948 43.5233 33.8318C43.9006 33.4959 44.2076 33.1023 44.5031 32.6932C44.6686 32.4642 44.7225 32.2544 44.6214 31.981C44.4164 31.4286 44.3943 30.8482 44.4549 30.2698C44.5339 29.5143 44.9121 28.9503 45.6243 28.6587C46.3375 28.3661 47.0795 28.3536 47.8167 28.5528C48.4385 28.7203 48.8792 29.1313 49.1632 29.7029C49.4606 30.3016 49.5818 30.957 49.5173 31.6076C49.475 32.0311 49.6155 32.2698 49.9254 32.4776C50.089 32.5874 50.243 32.7144 50.4134 32.8135C51.5721 33.494 52.626 33.1706 53.2015 31.9608C53.3684 31.6098 53.2541 31.4154 52.8589 31.3776C51.4759 31.2467 50.551 30.4556 50.4047 29.2775C50.2353 27.9224 50.9446 26.6347 52.1929 26.088L52.1948 26.0871ZM92.2522 36.8625C91.9471 35.7923 91.8201 34.6883 91.5651 33.6104C91.4861 33.2813 91.5343 33.007 91.6796 32.7028C92.2041 31.6047 92.0039 30.8396 91.0319 30.1149C90.8375 29.9705 90.6325 29.8348 90.4169 29.7241C90.2417 29.6336 90.2302 29.5393 90.3033 29.3699C90.4457 29.035 90.5853 28.6972 90.6912 28.3498C91.1474 26.8397 90.6767 25.9235 89.1801 25.4201C88.9463 25.3412 88.8972 25.2344 88.9068 25.0005C88.9318 24.4086 88.9443 23.8129 88.9155 23.2219C88.8606 22.1469 88.4545 21.7273 87.3891 21.5954C87.1032 21.5598 86.8145 21.5309 86.5267 21.53C86.3265 21.53 86.2688 21.4713 86.2774 21.2682C86.2938 20.8746 86.3044 20.4761 86.2688 20.0834C86.1754 19.0633 85.5729 18.455 84.5576 18.3154C84.3776 18.2904 84.1938 18.2846 84.0138 18.2548C83.6847 18.2009 83.2641 18.4338 83.0533 18.2163C82.8541 18.0104 82.8907 17.5888 82.7915 17.2722C82.5182 16.3983 82.0745 16.0797 81.1506 16.0412C80.6463 16.02 80.1448 16.0701 79.6521 16.1509C79.3845 16.1952 79.2555 16.1384 79.1064 15.9142C78.0275 14.2934 76.5559 14.0759 75.0122 15.303C74.8899 15.4012 74.8245 15.4099 74.71 15.3117C74.2307 14.9027 73.6609 14.7708 73.0488 14.8305C72.7736 14.8574 72.7505 14.7275 72.761 14.5158C72.7822 14.1038 72.7274 13.6948 72.6648 13.2896C72.5099 12.2646 72.0931 11.8633 71.0585 11.7555C70.7871 11.7286 70.5041 11.6862 70.2395 11.7324C69.5148 11.8594 69.1664 11.6304 68.9036 10.8816C68.4166 9.49668 67.1299 8.88746 65.8951 9.33884C65.5043 9.48128 65.3599 9.37926 65.1501 9.07609C64.1319 7.60068 63.1175 7.35526 61.5352 8.18199C61.3687 8.26957 61.3042 8.23781 61.2109 8.10596C60.5815 7.22149 59.723 6.94623 58.6874 7.19454C58.4872 7.24266 58.3939 7.20416 58.2899 7.03092C58.0705 6.66809 57.7673 6.35626 57.3265 6.33894C56.7981 6.31872 56.7664 6.03962 56.7799 5.61711C56.8078 4.71724 56.7885 4.71627 57.6865 4.71627C58.5199 4.71627 58.5238 4.71627 58.518 3.89628C58.5161 3.47185 58.6547 2.92519 58.4449 2.65859C58.2225 2.37756 57.6499 2.60181 57.2322 2.56716C57.2024 2.56428 57.1706 2.56331 57.1408 2.56716C56.8905 2.597 56.7885 2.50364 56.7972 2.23609C56.8116 1.78086 56.7885 1.32466 56.7818 0.868469H54.4075C54.4017 1.32466 54.3805 1.78182 54.3959 2.23705C54.4046 2.5046 54.3026 2.5816 54.0523 2.57101C53.7184 2.55561 53.3825 2.58352 53.0485 2.56139C52.7627 2.5431 52.6375 2.61528 52.6587 2.93096C52.6866 3.34 52.7011 3.75673 52.6558 4.16288C52.6058 4.62773 52.7617 4.7413 53.2198 4.72879C54.4604 4.69318 54.4546 4.71724 54.4026 5.97995C54.393 6.1888 54.3507 6.26675 54.1264 6.28023C53.6115 6.31102 53.1852 6.5372 52.9234 6.99339C52.804 7.20224 52.6837 7.23881 52.4547 7.18588C51.4951 6.96452 50.6655 7.18972 50.0678 8.00587C49.8725 8.27342 49.7416 8.23204 49.4962 8.08383C48.4009 7.42263 47.3682 7.57759 46.4953 8.51114C46.3086 8.71037 46.12 8.91922 45.9881 9.15501C45.8331 9.43412 45.684 9.47646 45.3789 9.3629C44.376 8.9837 43.5012 9.22623 42.7899 10.0299C42.43 10.437 42.1846 10.9066 42.0672 11.4341C42.0094 11.6891 41.8987 11.7632 41.6331 11.7478C41.0114 11.7122 40.3896 11.6997 39.7689 11.8133C39.1414 11.9287 38.7727 12.2906 38.6168 12.8931C38.4792 13.4263 38.4147 13.9691 38.4301 14.5186C38.4359 14.7352 38.407 14.8545 38.1375 14.8286C37.5254 14.7689 36.9528 14.8998 36.4783 15.3136C36.3234 15.4493 36.2531 15.3598 36.1434 15.2645C34.8585 14.1375 33.309 14.254 32.309 15.6322C31.9683 16.1028 31.643 16.2481 31.1272 16.1028C31.0829 16.0913 31.0367 16.0903 30.9915 16.0836C29.1301 15.8497 28.5969 16.2145 28.2206 18.0267C28.1667 18.2856 28.0676 18.3087 27.8578 18.2741C27.4478 18.2077 27.0378 18.2606 26.6317 18.3145C25.6163 18.4502 25.0196 19.0613 24.9214 20.0844C24.8868 20.4463 24.8781 20.8168 24.9128 21.1777C24.9397 21.4741 24.8483 21.5367 24.5701 21.5309C24.2525 21.5232 23.932 21.5627 23.6173 21.6127C22.8233 21.7379 22.4816 22.0689 22.3248 22.8649C22.1948 23.528 22.2276 24.2007 22.2795 24.8677C22.3065 25.2132 22.2276 25.3527 21.8753 25.4615C20.6078 25.8513 20.117 26.7772 20.422 28.0822C20.5077 28.4537 20.6126 28.8214 20.7935 29.1553C20.9687 29.4797 20.9302 29.6375 20.5847 29.8396C19.1584 30.674 18.9351 31.444 19.6232 32.9435C19.6752 33.058 19.7166 33.16 19.6867 33.2899C19.4202 34.4429 19.2613 35.6181 18.963 36.7662C18.5896 38.207 19.1305 39.4149 20.1141 40.4167C20.9957 41.3157 22.089 41.3012 23.2092 40.8826C23.3286 40.8373 23.4373 40.7469 23.5904 40.8441C24.5605 41.4639 25.6182 41.6246 26.7404 41.4321C26.9348 41.3984 26.9935 41.4446 26.9849 41.666C26.9396 42.689 27.2351 43.1905 28.2139 43.4686C28.8597 43.6515 28.9444 44.1616 29.0551 44.6245C29.1244 44.9171 28.9492 45.2732 28.8645 45.5956C28.7885 45.8862 28.8 46.1249 29.0926 46.2943C29.4343 46.4926 29.4795 46.713 29.1301 46.968C29.03 47.0412 28.8145 47.173 29.0387 47.3155C29.5546 47.6436 29.7124 48.4251 30.4737 48.4405C30.5026 48.4405 30.5391 48.5358 30.5574 48.5916C30.6479 48.8563 30.5844 49.2856 30.8298 49.35C31.0377 49.4049 31.3331 49.1268 31.5901 48.9968C31.644 48.9689 31.6979 48.94 31.7528 48.9141C38.7294 45.6043 46.0949 43.9094 53.7944 43.6226C57.853 43.4705 61.8759 43.8324 65.8594 44.6206C70.6726 45.5735 75.3317 47.0152 79.7926 49.0719C80.4182 49.3597 80.4095 49.3674 80.601 48.7129C80.6299 48.6119 80.5779 48.3462 80.782 48.4579C81.0081 48.5801 81.0505 48.4136 81.1419 48.3279C81.4075 48.0787 81.6453 47.7957 81.9234 47.5609C82.2198 47.3116 82.319 47.096 81.9455 46.8391C81.754 46.7072 81.7184 46.5551 81.9455 46.4242C82.3825 46.175 82.4268 45.8179 82.2641 45.381C82.2015 45.2125 82.1852 45.0268 82.1544 44.8459C82.0601 44.3136 82.4287 43.6813 82.932 43.5042C83.8723 43.1741 84.2939 42.6611 84.2044 41.8065C84.1601 41.3801 84.3218 41.4052 84.6192 41.4514C85.6297 41.6063 86.5912 41.4533 87.4699 40.9143C87.6662 40.794 87.8222 40.8133 88.0156 40.8883C88.5757 41.1087 89.1503 41.1896 89.7566 41.1058C91.4294 40.8758 92.6978 38.4351 92.2503 36.8596L92.2522 36.8625ZM83.5374 39.4158C83.0523 38.8691 82.7588 38.2262 82.5345 37.542C82.4758 37.3649 82.5124 37.2234 82.6366 37.0829C82.7367 36.9703 82.8194 36.8394 82.8964 36.7095C83.5028 35.6922 83.4007 34.8115 82.6038 34.1263C81.6751 33.3304 80.7358 33.3178 79.8041 34.082C79.2979 34.4978 79.0005 35.0598 78.6675 35.6065C77.7946 37.0386 76.1844 37.1685 75.0805 35.9116C74.5156 35.2697 74.2759 34.4997 74.2249 33.5873C74.8043 33.8385 75.3413 33.9838 75.9178 33.9425C76.2912 33.9155 76.631 33.8048 76.9361 33.5883C78.3807 32.5633 78.3518 30.112 76.8629 29.1678C76.5761 28.9859 76.4529 28.8069 76.5049 28.4864C76.5193 28.3969 76.5184 28.3016 76.5049 28.2131C76.4327 27.7367 76.5386 27.3854 77.0304 27.1602C77.373 27.0043 77.6165 26.6828 77.8186 26.3537C78.3229 25.5327 78.2546 24.8167 77.6069 24.1074C77.1834 23.6444 76.6849 23.2739 76.1498 22.9476C77.0535 21.8476 77.0737 21.8004 77.1363 20.6166C77.2161 20.5733 77.2797 20.6185 77.3451 20.6542C79.6867 21.8967 81.8349 23.3923 83.5826 25.4115C85.0965 27.1592 85.8328 29.241 86.1802 31.4873C86.3246 32.4218 86.3824 33.3621 86.3689 34.3072C86.366 34.5344 86.3121 34.7086 86.1427 34.8712C85.8347 35.1667 85.5806 35.5103 85.3554 35.8731C84.5961 37.0983 84.8858 38.5313 86.0628 39.3715C86.1851 39.4591 86.3131 39.54 86.443 39.6256C85.8241 40.1829 84.292 40.2647 83.5374 39.4149V39.4158ZM28.3996 36.8394C28.7134 37.2571 28.6941 37.593 28.492 37.9972C28.3429 38.2955 28.2168 38.6074 28.0426 38.8903C27.3005 40.0914 26.033 40.3956 24.727 39.6593C25.4739 39.1579 25.9522 38.5227 26.111 37.6623C26.2938 36.6661 25.854 35.8664 25.2544 35.1628C24.907 34.7548 24.804 34.3505 24.8155 33.8424C24.8675 31.6596 25.2342 29.5518 26.188 27.5692C27.006 25.8715 28.2784 24.5549 29.7076 23.374C30.8827 22.4029 32.1522 21.5675 33.4928 20.8418C33.6622 20.7504 33.8201 20.6214 34.0511 20.6137C34.1098 21.4886 34.1194 22.3865 35.0674 22.8456C35 23.0266 34.8566 23.0583 34.7546 23.1363C34.4899 23.3403 34.205 23.5212 33.9587 23.7445C32.6661 24.911 32.7951 26.3392 34.2974 27.2536C34.6035 27.4403 34.7411 27.6212 34.6891 27.9629C34.6737 28.0668 34.6747 28.1775 34.6891 28.2814C34.7488 28.7203 34.6247 29.0061 34.2099 29.2708C33.3023 29.8521 33.0434 30.7635 33.2532 31.7866C33.4495 32.7452 33.8364 33.6027 34.9018 33.8818C35.5919 34.0618 36.2579 33.9136 36.8979 33.6133C37.0615 35.2716 35.6727 36.9404 34.1069 36.7556C33.233 36.6536 32.7296 36.0348 32.3552 35.3072C32.1348 34.8808 31.8538 34.5103 31.5064 34.1869C30.2215 32.9877 28.9473 33.5642 28.211 34.5594C27.6374 35.3351 27.8847 36.1551 28.4016 36.8423L28.3996 36.8394ZM50.1006 13.4657C51.1939 13.2463 52.2968 13.1674 53.4104 13.1607C53.6818 13.1587 53.8223 13.2078 53.7386 13.5119C53.6847 13.7073 53.6876 13.9123 53.7626 14.0961C54.0754 14.8574 53.959 15.6543 53.9859 16.4406C53.9926 16.6514 53.907 16.8217 53.8156 16.9979C53.5557 17.4993 53.4989 18.0142 53.7674 18.5281C54.1582 19.2808 54.0812 20.1008 53.9108 20.8438C53.5191 22.554 53.651 23.0169 55.1533 23.9178C55.2034 23.9486 55.2496 23.9871 55.3593 24.066C54.8694 24.1901 54.444 24.2325 54.0494 24.3951C53.291 24.705 53.0187 25.0756 53.0379 25.8869C53.0447 26.1593 52.9811 26.2748 52.7068 26.3546C51.3565 26.7492 50.5943 28.0235 50.8638 29.4065C50.9822 30.0215 51.3623 30.4354 51.9244 30.6866C52.447 30.9204 53.0013 31.0186 53.5673 30.9926C53.8492 30.9811 53.933 31.0282 53.8723 31.3343C53.5904 32.7654 52.5673 33.6913 51.3181 33.5719C50.4191 33.4853 49.757 32.9454 49.1458 32.3333C49.0275 32.2149 49.0765 32.083 49.0871 31.9483C49.141 31.289 49.1025 30.6394 48.8407 30.0225C48.3018 28.753 46.2162 28.3844 45.2788 29.4056C44.711 30.0254 44.6994 30.8223 44.9612 31.5162C45.2692 32.3304 44.9544 32.8501 44.4944 33.4276C43.2105 35.0377 42.1124 35.1397 40.5831 33.7586C40.381 33.5748 40.1596 33.4122 39.8824 33.1869C40.4811 32.9415 40.9488 32.7731 41.3655 32.494C42.455 31.7654 42.8073 30.8357 42.4579 29.5769C42.1865 28.5971 41.4137 27.9629 40.3675 27.9042C40.0749 27.8878 39.9055 27.8089 39.7766 27.5317C39.5581 27.0601 39.1876 26.7107 38.6871 26.5519C38.433 26.4701 38.3974 26.3306 38.4369 26.1111C39.6745 19.2086 43.3193 14.8295 50.1025 13.4667L50.1006 13.4657ZM57.4516 13.6553C57.3294 13.2011 57.5633 13.1443 57.9146 13.152C63.4235 13.2694 69.4532 15.5215 71.9199 22.8552C72.2692 23.8937 72.5426 24.9514 72.7389 26.0284C72.788 26.2979 72.7678 26.4711 72.4502 26.5731C71.9497 26.7329 71.6061 27.1063 71.3819 27.576C71.2799 27.7887 71.1557 27.8839 70.9016 27.8984C69.8035 27.9619 69.0393 28.5422 68.7448 29.4912C68.3829 30.6625 68.6515 31.5912 69.561 32.3082C70.0316 32.6797 70.5715 32.9165 71.1961 33.1282C70.6389 33.775 70.0528 34.2918 69.2982 34.5931C68.7467 34.8135 68.227 34.7615 67.7371 34.4294C67.0144 33.9405 66.5235 33.2485 66.0702 32.5209C65.9672 32.3544 66.051 32.2313 66.0933 32.0927C66.282 31.4623 66.4196 30.8271 66.2839 30.162C66.2184 29.8406 66.0808 29.5586 65.8392 29.3334C64.7613 28.3305 62.7152 28.8502 62.259 30.2419C62.0761 30.8011 62.0511 31.3757 62.0973 31.956C62.1069 32.0917 62.1493 32.2216 62.0328 32.341C61.4448 32.9329 60.8019 33.443 59.9482 33.5661C59.1272 33.6845 58.4583 33.3842 57.9511 32.7259C57.725 32.4334 57.5623 32.109 57.4391 31.7645C57.1822 31.0417 57.1841 31.0465 57.9405 30.9926C58.1831 30.9762 58.4266 30.9464 58.6614 30.8887C59.4968 30.6866 60.1628 30.2804 60.3283 29.3545C60.5228 28.2699 60.0377 27.1852 59.1378 26.6357C58.3477 26.1545 58.338 26.1564 58.0791 25.2921C57.9482 24.8542 57.6355 24.6213 57.2505 24.4442C56.8203 24.246 56.3496 24.193 55.802 24.0689C56.0292 23.9303 56.1851 23.8311 56.3429 23.7368C57.4045 23.1016 57.7202 22.3721 57.3467 21.2008C57.1206 20.4934 57.2226 19.7851 57.1927 19.0767C57.185 18.8996 57.3034 18.7639 57.3794 18.6167C57.6306 18.1268 57.6701 17.6292 57.4257 17.1268C57.0166 16.2828 57.1619 15.4118 57.3005 14.5446C57.3467 14.2472 57.5354 13.9575 57.4545 13.6563L57.4516 13.6553ZM85.2149 39.1502C84.3892 38.1829 84.265 36.9 84.9041 35.8009C85.1341 35.4054 85.3968 35.0319 85.7163 34.7028C85.8347 34.5806 85.9252 34.4593 85.929 34.2706C85.9627 32.1013 85.6297 30.0013 84.7395 28.0071C84.6423 27.7906 84.4989 27.6347 84.2997 27.5047C82.6269 26.4201 80.7608 25.8465 78.8417 25.4086C78.6328 25.3604 78.5607 25.423 78.5337 25.6059C78.398 26.4971 77.8667 27.113 77.1574 27.6125C76.8418 27.8339 76.8408 28.6125 77.1622 28.8358C78.9947 30.1149 78.5626 32.2476 77.7128 33.4016C77.0814 34.2601 76.1902 34.5161 75.1623 34.3217C74.8418 34.261 74.6965 34.287 74.8438 34.6672C75.0295 35.1465 75.2797 35.5709 75.6801 35.8962C76.5011 36.5632 77.4683 36.466 78.1256 35.6421C78.2575 35.4775 78.3768 35.2956 78.4673 35.106C78.7156 34.5882 79.0794 34.1638 79.5048 33.7894C80.5375 32.879 81.7107 32.8645 82.8156 33.7442C83.8059 34.5324 84.0359 35.6691 83.2891 36.8326C82.9311 37.3899 83.0235 37.8037 83.2891 38.2869C83.4065 38.4996 83.5239 38.7142 83.6664 38.9105C84.1274 39.5467 84.7578 39.7122 85.5133 39.5669C85.4767 39.359 85.3198 39.2734 85.2149 39.1521V39.1502ZM56.956 23.8234C57.0253 23.8725 57.0561 23.9081 57.0946 23.9216C57.9896 24.2152 58.5546 24.7782 58.5912 25.7637C58.5998 25.9803 58.7682 25.9851 58.8991 26.0399C59.6787 26.3691 60.2475 26.9071 60.5603 27.702C61.1358 29.1726 60.6662 30.5297 59.3794 31.0965C58.9578 31.2813 58.5161 31.3824 58.0541 31.3968C57.9194 31.4007 57.7856 31.3766 57.8385 31.6172C57.9877 32.2957 58.6518 32.9974 59.3332 33.1311C60.1926 33.3005 60.8105 32.8183 61.4274 32.3381C61.6219 32.186 61.6834 32.0186 61.6671 31.752C61.6122 30.8896 61.7335 30.0542 62.2522 29.3209C63.0106 28.2506 64.6583 28.2757 65.5909 28.6741C66.5341 29.0774 66.9431 30.0985 66.7064 31.3997C66.6929 31.4748 66.6843 31.5537 66.6525 31.6211C66.3561 32.239 66.6044 32.7211 67.025 33.1648C67.2145 33.3631 67.3868 33.5767 67.586 33.7644C68.2877 34.4246 68.8103 34.4718 69.6312 33.9521C69.8362 33.8222 70.022 33.6653 70.2183 33.5209C70.4117 33.3794 70.4031 33.2813 70.1731 33.1812C69.7948 33.0166 69.4561 32.7837 69.1413 32.5171C67.4937 31.1206 67.9797 28.3257 70.0287 27.6539C70.636 27.4547 71.1596 27.2747 71.5022 26.6963C71.6148 26.5057 71.8746 26.3903 72.0873 26.2767C72.2654 26.1814 72.3193 26.0765 72.2808 25.8792C72.0392 24.6377 71.7033 23.426 71.2327 22.2518C71.1653 22.0824 71.0652 21.9756 70.9084 21.8957C68.7477 20.786 66.4841 20.0497 64.0366 19.9545C62.0078 19.8746 59.9973 20.0286 58.005 20.4222C57.774 20.4674 57.5604 20.4674 57.6865 20.8332C58.0772 21.9698 58.0455 23.0285 56.9579 23.8263L56.956 23.8234ZM39.1221 26.2844C39.4436 26.4345 39.741 26.6414 39.9065 26.9581C40.1009 27.3315 40.3916 27.4653 40.7919 27.5413C41.8747 27.7482 42.5897 28.4133 42.8737 29.4768C43.1826 30.6307 43.0036 31.675 42.0479 32.5036C41.6677 32.8337 41.2269 33.0628 40.7785 33.3101C41.0373 33.6354 41.3444 33.8337 41.6581 34.0175C42.3905 34.4468 42.8891 34.3938 43.5233 33.8308C43.9006 33.4949 44.2076 33.1013 44.5031 32.6923C44.6686 32.4632 44.7225 32.2534 44.6214 31.9801C44.4164 31.4276 44.3943 30.8473 44.4549 30.2689C44.5339 29.5133 44.9121 28.9494 45.6243 28.6577C46.3375 28.3652 47.0795 28.3526 47.8167 28.5519C48.4385 28.7193 48.8792 29.1303 49.1632 29.702C49.4606 30.3006 49.5818 30.956 49.5173 31.6066C49.475 32.0301 49.6155 32.2688 49.9254 32.4767C50.089 32.5864 50.243 32.7134 50.4134 32.8126C51.5721 33.493 52.626 33.1696 53.2015 31.9598C53.3684 31.6089 53.2541 31.4145 52.8589 31.3766C51.4759 31.2457 50.551 30.4546 50.4047 29.2766C50.2353 27.9215 50.9446 26.6337 52.1929 26.0871C52.4576 25.9706 52.5894 25.858 52.6173 25.5462C52.6818 24.8157 53.0957 24.3181 53.7809 24.0487C53.9205 23.9938 54.0562 23.9274 54.2342 23.8465C53.6789 23.3701 53.2574 22.8533 53.2776 22.0901C53.2901 21.6118 53.3767 21.1565 53.5259 20.7052C53.6058 20.4655 53.6596 20.2134 53.2814 20.1624C51.3296 19.8996 49.372 19.8101 47.4173 20.0921C44.6965 20.4828 42.2375 21.5925 39.8651 22.9245C39.6726 23.0333 39.5898 23.194 39.5292 23.3865C39.2722 24.1978 39.0663 25.0226 38.9027 25.858C38.8584 26.0765 38.921 26.1939 39.1202 26.2853L39.1221 26.2844ZM52.1948 26.0871C52.4595 25.9706 52.5914 25.858 52.6193 25.5462C52.6837 24.8157 53.0976 24.3181 53.7828 24.0487C53.9224 23.9938 54.0581 23.9274 54.2361 23.8465C53.6808 23.3701 53.2593 22.8533 53.2795 22.0901C53.292 21.6118 53.3786 21.1565 53.5278 20.7052C53.6077 20.4655 53.6616 20.2134 53.2833 20.1624C51.3315 19.8996 49.3739 19.8101 47.4192 20.0921C44.6984 20.4828 42.2394 21.5925 39.867 22.9245C39.6745 23.0333 39.5918 23.194 39.5311 23.3865C39.2742 24.1978 39.0682 25.0226 38.9046 25.858C38.8603 26.0765 38.9229 26.1939 39.1221 26.2853C39.4436 26.4355 39.741 26.6424 39.9065 26.959C40.1009 27.3325 40.3916 27.4663 40.7919 27.5423C41.8747 27.7492 42.5897 28.4142 42.8737 29.4777C43.1826 30.6317 43.0036 31.6759 42.0479 32.5046C41.6677 32.8347 41.2269 33.0638 40.7785 33.3111C41.0373 33.6364 41.3444 33.8347 41.6581 34.0185C42.3905 34.4477 42.8891 34.3948 43.5233 33.8318C43.9006 33.4959 44.2076 33.1023 44.5031 32.6932C44.6686 32.4642 44.7225 32.2544 44.6214 31.981C44.4164 31.4286 44.3943 30.8482 44.4549 30.2698C44.5339 29.5143 44.9121 28.9503 45.6243 28.6587C46.3375 28.3661 47.0795 28.3536 47.8167 28.5528C48.4385 28.7203 48.8792 29.1313 49.1632 29.7029C49.4606 30.3016 49.5818 30.957 49.5173 31.6076C49.475 32.0311 49.6155 32.2698 49.9254 32.4776C50.089 32.5874 50.243 32.7144 50.4134 32.8135C51.5721 33.494 52.626 33.1706 53.2015 31.9608C53.3684 31.6098 53.2541 31.4154 52.8589 31.3776C51.4759 31.2467 50.551 30.4556 50.4047 29.2775C50.2353 27.9224 50.9446 26.6347 52.1929 26.088L52.1948 26.0871ZM52.1948 26.0871C52.4595 25.9706 52.5914 25.858 52.6193 25.5462C52.6837 24.8157 53.0976 24.3181 53.7828 24.0487C53.9224 23.9938 54.0581 23.9274 54.2361 23.8465C53.6808 23.3701 53.2593 22.8533 53.2795 22.0901C53.292 21.6118 53.3786 21.1565 53.5278 20.7052C53.6077 20.4655 53.6616 20.2134 53.2833 20.1624C51.3315 19.8996 49.3739 19.8101 47.4192 20.0921C44.6984 20.4828 42.2394 21.5925 39.867 22.9245C39.6745 23.0333 39.5918 23.194 39.5311 23.3865C39.2742 24.1978 39.0682 25.0226 38.9046 25.858C38.8603 26.0765 38.9229 26.1939 39.1221 26.2853C39.4436 26.4355 39.741 26.6424 39.9065 26.959C40.1009 27.3325 40.3916 27.4663 40.7919 27.5423C41.8747 27.7492 42.5897 28.4142 42.8737 29.4777C43.1826 30.6317 43.0036 31.6759 42.0479 32.5046C41.6677 32.8347 41.2269 33.0638 40.7785 33.3111C41.0373 33.6364 41.3444 33.8347 41.6581 34.0185C42.3905 34.4477 42.8891 34.3948 43.5233 33.8318C43.9006 33.4959 44.2076 33.1023 44.5031 32.6932C44.6686 32.4642 44.7225 32.2544 44.6214 31.981C44.4164 31.4286 44.3943 30.8482 44.4549 30.2698C44.5339 29.5143 44.9121 28.9503 45.6243 28.6587C46.3375 28.3661 47.0795 28.3536 47.8167 28.5528C48.4385 28.7203 48.8792 29.1313 49.1632 29.7029C49.4606 30.3016 49.5818 30.957 49.5173 31.6076C49.475 32.0311 49.6155 32.2698 49.9254 32.4776C50.089 32.5874 50.243 32.7144 50.4134 32.8135C51.5721 33.494 52.626 33.1706 53.2015 31.9608C53.3684 31.6098 53.2541 31.4154 52.8589 31.3776C51.4759 31.2467 50.551 30.4556 50.4047 29.2775C50.2353 27.9224 50.9446 26.6347 52.1929 26.088L52.1948 26.0871Z" fill="#273023"/>
<path d="M52.1952 26.0874C52.4598 25.9709 52.5917 25.8583 52.6196 25.5465C52.6841 24.816 53.0979 24.3184 53.7832 24.0489C53.9227 23.9941 54.0584 23.9277 54.2365 23.8468C53.6812 23.3704 53.2596 22.8536 53.2798 22.0904C53.2924 21.612 53.379 21.1568 53.5282 20.7054C53.608 20.4658 53.6619 20.2136 53.2837 20.1626C51.3319 19.8999 49.3743 19.8104 47.4196 20.0924C44.6988 20.4831 42.2398 21.5928 39.8674 22.9248C39.6749 23.0336 39.5921 23.1943 39.5315 23.3868C39.2745 24.1981 39.0686 25.0229 38.9049 25.8583C38.8607 26.0768 38.9232 26.1942 39.1225 26.2856C39.4439 26.4358 39.7413 26.6427 39.9068 26.9593C40.1013 27.3327 40.3919 27.4665 40.7923 27.5426C41.875 27.7495 42.5901 28.4145 42.874 29.478C43.183 30.632 43.0039 31.6762 42.0483 32.5049C41.6681 32.835 41.2273 33.064 40.7788 33.3114C41.0377 33.6367 41.3447 33.8349 41.6585 34.0188C42.3909 34.448 42.8894 34.3951 43.5237 33.832C43.9009 33.4962 44.208 33.1025 44.5034 32.6935C44.669 32.4644 44.7229 32.2546 44.6218 31.9813C44.4168 31.4289 44.3947 30.8485 44.4553 30.2701C44.5342 29.5146 44.9125 28.9506 45.6247 28.659C46.3378 28.3664 47.0799 28.3539 47.8171 28.5531C48.4388 28.7206 48.8796 29.1315 49.1635 29.7032C49.4609 30.3018 49.5822 30.9573 49.5177 31.6079C49.4753 32.0313 49.6159 32.27 49.9258 32.4779C50.0894 32.5876 50.2434 32.7147 50.4137 32.8138C51.5725 33.4942 52.6264 33.1709 53.2019 31.9611C53.3687 31.6101 53.2545 31.4157 52.8593 31.3778C51.4762 31.247 50.5513 30.4558 50.4051 29.2778C50.2357 27.9227 50.945 26.635 52.1933 26.0883L52.1952 26.0874ZM52.1952 26.0874C52.4598 25.9709 52.5917 25.8583 52.6196 25.5465C52.6841 24.816 53.0979 24.3184 53.7832 24.0489C53.9227 23.9941 54.0584 23.9277 54.2365 23.8468C53.6812 23.3704 53.2596 22.8536 53.2798 22.0904C53.2924 21.612 53.379 21.1568 53.5282 20.7054C53.608 20.4658 53.6619 20.2136 53.2837 20.1626C51.3319 19.8999 49.3743 19.8104 47.4196 20.0924C44.6988 20.4831 42.2398 21.5928 39.8674 22.9248C39.6749 23.0336 39.5921 23.1943 39.5315 23.3868C39.2745 24.1981 39.0686 25.0229 38.9049 25.8583C38.8607 26.0768 38.9232 26.1942 39.1225 26.2856C39.4439 26.4358 39.7413 26.6427 39.9068 26.9593C40.1013 27.3327 40.3919 27.4665 40.7923 27.5426C41.875 27.7495 42.5901 28.4145 42.874 29.478C43.183 30.632 43.0039 31.6762 42.0483 32.5049C41.6681 32.835 41.2273 33.064 40.7788 33.3114C41.0377 33.6367 41.3447 33.8349 41.6585 34.0188C42.3909 34.448 42.8894 34.3951 43.5237 33.832C43.9009 33.4962 44.208 33.1025 44.5034 32.6935C44.669 32.4644 44.7229 32.2546 44.6218 31.9813C44.4168 31.4289 44.3947 30.8485 44.4553 30.2701C44.5342 29.5146 44.9125 28.9506 45.6247 28.659C46.3378 28.3664 47.0799 28.3539 47.8171 28.5531C48.4388 28.7206 48.8796 29.1315 49.1635 29.7032C49.4609 30.3018 49.5822 30.9573 49.5177 31.6079C49.4753 32.0313 49.6159 32.27 49.9258 32.4779C50.0894 32.5876 50.2434 32.7147 50.4137 32.8138C51.5725 33.4942 52.6264 33.1709 53.2019 31.9611C53.3687 31.6101 53.2545 31.4157 52.8593 31.3778C51.4762 31.247 50.5513 30.4558 50.4051 29.2778C50.2357 27.9227 50.945 26.635 52.1933 26.0883L52.1952 26.0874ZM52.1952 26.0874C52.4598 25.9709 52.5917 25.8583 52.6196 25.5465C52.6841 24.816 53.0979 24.3184 53.7832 24.0489C53.9227 23.9941 54.0584 23.9277 54.2365 23.8468C53.6812 23.3704 53.2596 22.8536 53.2798 22.0904C53.2924 21.612 53.379 21.1568 53.5282 20.7054C53.608 20.4658 53.6619 20.2136 53.2837 20.1626C51.3319 19.8999 49.3743 19.8104 47.4196 20.0924C44.6988 20.4831 42.2398 21.5928 39.8674 22.9248C39.6749 23.0336 39.5921 23.1943 39.5315 23.3868C39.2745 24.1981 39.0686 25.0229 38.9049 25.8583C38.8607 26.0768 38.9232 26.1942 39.1225 26.2856C39.4439 26.4358 39.7413 26.6427 39.9068 26.9593C40.1013 27.3327 40.3919 27.4665 40.7923 27.5426C41.875 27.7495 42.5901 28.4145 42.874 29.478C43.183 30.632 43.0039 31.6762 42.0483 32.5049C41.6681 32.835 41.2273 33.064 40.7788 33.3114C41.0377 33.6367 41.3447 33.8349 41.6585 34.0188C42.3909 34.448 42.8894 34.3951 43.5237 33.832C43.9009 33.4962 44.208 33.1025 44.5034 32.6935C44.669 32.4644 44.7229 32.2546 44.6218 31.9813C44.4168 31.4289 44.3947 30.8485 44.4553 30.2701C44.5342 29.5146 44.9125 28.9506 45.6247 28.659C46.3378 28.3664 47.0799 28.3539 47.8171 28.5531C48.4388 28.7206 48.8796 29.1315 49.1635 29.7032C49.4609 30.3018 49.5822 30.9573 49.5177 31.6079C49.4753 32.0313 49.6159 32.27 49.9258 32.4779C50.0894 32.5876 50.2434 32.7147 50.4137 32.8138C51.5725 33.4942 52.6264 33.1709 53.2019 31.9611C53.3687 31.6101 53.2545 31.4157 52.8593 31.3778C51.4762 31.247 50.5513 30.4558 50.4051 29.2778C50.2357 27.9227 50.945 26.635 52.1933 26.0883L52.1952 26.0874ZM72.2802 25.8766C72.0386 24.635 71.7027 23.4233 71.2321 22.2492C71.1647 22.0798 71.0646 21.973 70.9077 21.8931C68.7471 20.7834 66.4835 20.0471 64.036 19.9518C62.0072 19.872 59.9967 20.026 58.0044 20.4196C57.7734 20.4648 57.5598 20.4648 57.6859 20.8305C58.0766 21.9672 58.0448 23.0259 56.9573 23.8237C57.0266 23.8728 57.0574 23.9084 57.0959 23.9219C57.9909 24.2154 58.5559 24.7784 58.5925 25.764C58.6011 25.9805 58.7696 25.9853 58.9004 26.0402C59.68 26.3693 60.2488 26.9073 60.5616 27.7023C61.1371 29.1729 60.6675 30.5299 59.3807 31.0968C58.9592 31.2816 58.5174 31.3827 58.0554 31.3971C57.9207 31.4009 57.7869 31.3769 57.8398 31.6175C57.989 32.296 58.6531 32.9976 59.3345 33.1314C60.194 33.3008 60.8118 32.8186 61.4288 32.3384C61.6232 32.1863 61.6848 32.0188 61.6684 31.7522C61.6135 30.8899 61.7348 30.0545 62.2536 29.3211C63.012 28.2509 64.6596 28.2759 65.5922 28.6744C66.5354 29.0776 66.9445 30.0988 66.7077 31.4C66.6942 31.4751 66.6856 31.554 66.6538 31.6213C66.3574 32.2392 66.6057 32.7214 67.0263 33.1651C67.2159 33.3633 67.3881 33.577 67.5874 33.7647C68.289 34.4249 68.8116 34.4721 69.6325 33.9524C69.8375 33.8224 70.0233 33.6655 70.2196 33.5212C70.4131 33.3797 70.4044 33.2815 70.1744 33.1814C69.7961 33.0169 69.4574 32.784 69.1427 32.5174C67.495 31.1209 67.981 28.326 70.03 27.6542C70.6373 27.455 71.1609 27.275 71.5035 26.6966C71.6161 26.506 71.876 26.3905 72.0887 26.277C72.2667 26.1817 72.3206 26.0768 72.2821 25.8795L72.2802 25.8766ZM72.2802 25.8766C72.0386 24.635 71.7027 23.4233 71.2321 22.2492C71.1647 22.0798 71.0646 21.973 70.9077 21.8931C68.7471 20.7834 66.4835 20.0471 64.036 19.9518C62.0072 19.872 59.9967 20.026 58.0044 20.4196C57.7734 20.4648 57.5598 20.4648 57.6859 20.8305C58.0766 21.9672 58.0448 23.0259 56.9573 23.8237C57.0266 23.8728 57.0574 23.9084 57.0959 23.9219C57.9909 24.2154 58.5559 24.7784 58.5925 25.764C58.6011 25.9805 58.7696 25.9853 58.9004 26.0402C59.68 26.3693 60.2488 26.9073 60.5616 27.7023C61.1371 29.1729 60.6675 30.5299 59.3807 31.0968C58.9592 31.2816 58.5174 31.3827 58.0554 31.3971C57.9207 31.4009 57.7869 31.3769 57.8398 31.6175C57.989 32.296 58.6531 32.9976 59.3345 33.1314C60.194 33.3008 60.8118 32.8186 61.4288 32.3384C61.6232 32.1863 61.6848 32.0188 61.6684 31.7522C61.6135 30.8899 61.7348 30.0545 62.2536 29.3211C63.012 28.2509 64.6596 28.2759 65.5922 28.6744C66.5354 29.0776 66.9445 30.0988 66.7077 31.4C66.6942 31.4751 66.6856 31.554 66.6538 31.6213C66.3574 32.2392 66.6057 32.7214 67.0263 33.1651C67.2159 33.3633 67.3881 33.577 67.5874 33.7647C68.289 34.4249 68.8116 34.4721 69.6325 33.9524C69.8375 33.8224 70.0233 33.6655 70.2196 33.5212C70.4131 33.3797 70.4044 33.2815 70.1744 33.1814C69.7961 33.0169 69.4574 32.784 69.1427 32.5174C67.495 31.1209 67.981 28.326 70.03 27.6542C70.6373 27.455 71.1609 27.275 71.5035 26.6966C71.6161 26.506 71.876 26.3905 72.0887 26.277C72.2667 26.1817 72.3206 26.0768 72.2821 25.8795L72.2802 25.8766ZM52.1952 26.0874C52.4598 25.9709 52.5917 25.8583 52.6196 25.5465C52.6841 24.816 53.0979 24.3184 53.7832 24.0489C53.9227 23.9941 54.0584 23.9277 54.2365 23.8468C53.6812 23.3704 53.2596 22.8536 53.2798 22.0904C53.2924 21.612 53.379 21.1568 53.5282 20.7054C53.608 20.4658 53.6619 20.2136 53.2837 20.1626C51.3319 19.8999 49.3743 19.8104 47.4196 20.0924C44.6988 20.4831 42.2398 21.5928 39.8674 22.9248C39.6749 23.0336 39.5921 23.1943 39.5315 23.3868C39.2745 24.1981 39.0686 25.0229 38.9049 25.8583C38.8607 26.0768 38.9232 26.1942 39.1225 26.2856C39.4439 26.4358 39.7413 26.6427 39.9068 26.9593C40.1013 27.3327 40.3919 27.4665 40.7923 27.5426C41.875 27.7495 42.5901 28.4145 42.874 29.478C43.183 30.632 43.0039 31.6762 42.0483 32.5049C41.6681 32.835 41.2273 33.064 40.7788 33.3114C41.0377 33.6367 41.3447 33.8349 41.6585 34.0188C42.3909 34.448 42.8894 34.3951 43.5237 33.832C43.9009 33.4962 44.208 33.1025 44.5034 32.6935C44.669 32.4644 44.7229 32.2546 44.6218 31.9813C44.4168 31.4289 44.3947 30.8485 44.4553 30.2701C44.5342 29.5146 44.9125 28.9506 45.6247 28.659C46.3378 28.3664 47.0799 28.3539 47.8171 28.5531C48.4388 28.7206 48.8796 29.1315 49.1635 29.7032C49.4609 30.3018 49.5822 30.9573 49.5177 31.6079C49.4753 32.0313 49.6159 32.27 49.9258 32.4779C50.0894 32.5876 50.2434 32.7147 50.4137 32.8138C51.5725 33.4942 52.6264 33.1709 53.2019 31.9611C53.3687 31.6101 53.2545 31.4157 52.8593 31.3778C51.4762 31.247 50.5513 30.4558 50.4051 29.2778C50.2357 27.9227 50.945 26.635 52.1933 26.0883L52.1952 26.0874ZM91.8407 37.0013C91.5298 35.8551 91.3816 34.679 91.115 33.525C91.0409 33.2026 91.0784 32.9302 91.2439 32.6252C91.7627 31.6618 91.6116 31.0631 90.73 30.425C90.4855 30.2479 90.2238 30.0824 89.9475 29.9621C89.6771 29.8447 89.6232 29.7427 89.7753 29.4684C90.0881 28.9102 90.3171 28.3144 90.3999 27.6715C90.5058 26.8467 90.2036 26.2924 89.4365 25.9613C89.2017 25.8602 88.9485 25.7794 88.6974 25.7466C88.4587 25.7149 88.4134 25.6398 88.4385 25.4031C88.526 24.6014 88.5905 23.7968 88.4625 22.9912C88.3663 22.3878 88.1747 22.1857 87.578 22.0519C87.1276 21.9518 86.6676 21.9229 86.2172 21.9797C85.7908 22.0345 85.7398 21.8796 85.8187 21.5177C85.9284 21.0076 85.9198 20.4918 85.8226 19.9759C85.6869 19.2647 85.3558 18.9182 84.6397 18.7671C84.0834 18.6487 83.5224 18.641 82.9641 18.7517C82.7197 18.7989 82.6129 18.7584 82.5984 18.4745C82.5772 18.0347 82.4723 17.6045 82.3087 17.1906C82.1268 16.7287 81.7948 16.5015 81.2972 16.4842C80.7024 16.463 80.1048 16.4736 79.5273 16.6026C79.1683 16.6844 79.0124 16.6112 78.8266 16.2802C77.8902 14.6036 76.153 14.4823 75.0616 15.9953C74.9615 16.1329 74.9067 16.1637 74.8008 16.0222C74.2493 15.2869 73.5025 15.1214 72.6469 15.2946C72.3841 15.3485 72.3004 15.2677 72.3168 14.9953C72.3543 14.3871 72.3398 13.7778 72.208 13.1782C72.0569 12.4901 71.8028 12.2745 71.0925 12.1937C70.5305 12.1292 69.9665 12.1051 69.4092 12.1937C68.9896 12.2601 68.8193 12.1638 68.7413 11.7028C68.4988 10.2832 67.16 8.93296 65.4642 9.99933C65.3083 10.0975 65.2323 10.0725 65.1563 9.90694C65.0744 9.72792 64.9715 9.55661 64.8598 9.39396C64.0572 8.22942 62.9812 7.4768 61.4384 8.8011C61.218 8.9907 61.1756 8.8396 61.0823 8.69235C60.3787 7.57496 59.7609 7.32377 58.5135 7.68949C58.2498 7.76745 58.1459 7.72222 58.0448 7.47198C57.8909 7.09086 57.6204 6.81753 57.1912 6.72225C56.9188 6.66161 56.5348 6.8695 56.3981 6.60387C56.273 6.3623 56.3654 6.00909 56.3625 5.70496C56.3625 5.62892 56.3567 5.55193 56.3625 5.47686C56.3914 5.10247 56.196 4.61548 56.4462 4.37969C56.6917 4.14774 57.1777 4.28826 57.5502 4.31713C57.9977 4.35178 58.1209 4.20356 58.0997 3.76277C58.0622 2.98512 58.0901 2.98416 57.3355 2.98416C56.7074 2.98416 56.3933 2.66816 56.3933 2.03616C56.3933 1.54982 56.1556 1.30664 55.6801 1.30664C55.0918 1.30664 54.7976 1.60018 54.7976 2.18727C54.7976 2.71853 54.5397 2.98416 54.0238 2.98416C53.0286 2.98416 53.0363 2.98416 53.0854 3.9976C53.097 4.24013 53.1778 4.31713 53.4098 4.30943C53.7591 4.29692 54.1095 4.3229 54.4588 4.30077C54.7476 4.28248 54.8226 4.39894 54.814 4.67034C54.7966 5.2324 54.7909 5.79639 54.8159 6.35845C54.8294 6.67605 54.711 6.74342 54.4232 6.71262C53.8246 6.6491 53.3751 6.8926 53.1509 7.45658C53.0421 7.73088 52.9266 7.76071 52.6514 7.67987C51.483 7.33339 50.7679 7.59517 50.1693 8.60188C49.9874 8.90601 49.9065 8.93392 49.6245 8.69716C48.5726 7.81653 47.5736 7.91663 46.6747 8.94643C46.4446 9.21014 46.2262 9.48828 46.0885 9.81166C45.9769 10.0754 45.872 10.0821 45.6227 9.94062C44.5535 9.33044 43.5342 9.598 42.8654 10.6336C42.6488 10.9695 42.4688 11.3313 42.4361 11.7279C42.4005 12.1677 42.209 12.2649 41.798 12.1966C41.2417 12.1042 40.6777 12.1282 40.1147 12.1918C39.3794 12.2736 39.1263 12.4891 38.9771 13.2052C38.8539 13.7913 38.8328 14.3842 38.8751 14.977C38.8963 15.2812 38.7972 15.3485 38.5181 15.2927C37.9839 15.1859 37.4603 15.1984 36.9714 15.4842C36.6865 15.6517 36.4883 15.9183 36.2592 16.1627C35.7799 15.4274 35.4854 15.1772 34.9455 15.0309C33.8965 14.7451 32.9523 15.1907 32.3469 16.2994C32.1939 16.5795 32.0775 16.6959 31.73 16.6151C31.1381 16.4784 30.526 16.465 29.9149 16.4823C29.3961 16.4957 29.0545 16.7325 28.8716 17.2118C28.7128 17.6266 28.6108 18.0578 28.5886 18.4986C28.5761 18.7613 28.4712 18.7979 28.2499 18.7546C27.6916 18.6449 27.1315 18.6487 26.5723 18.7632C25.8313 18.9172 25.4973 19.2627 25.3655 19.999C25.2779 20.4831 25.2538 20.972 25.3655 21.4504C25.4646 21.8719 25.3953 22.049 24.9073 21.9778C24.5041 21.92 24.0893 21.9537 23.6822 22.0403C22.9863 22.1866 22.8083 22.3858 22.7149 23.1028C22.6302 23.7573 22.6206 24.4146 22.7293 25.0585C22.814 25.5609 22.6668 25.7216 22.1654 25.8256C21.0153 26.0623 20.5571 26.8563 20.8343 27.9959C20.919 28.3491 21.0576 28.6898 21.1904 29.0285C21.2905 29.2807 21.5552 29.5637 21.4965 29.7571C21.4397 29.9467 21.0643 30.0372 20.8324 30.1767C19.5398 30.9524 19.3897 31.4856 20.0759 32.8735C20.1163 32.9562 20.1693 33.0294 20.1491 33.1285C19.9113 34.3046 19.7044 35.4874 19.4244 36.6539C19.2973 37.1852 19.1991 37.6972 19.3493 38.2227C19.9046 40.1706 21.1798 41.3246 23.2818 40.3833C23.4954 40.288 23.6167 40.3564 23.7736 40.4594C24.455 40.904 25.2018 41.1013 26.0209 41.0734C26.5329 41.0561 27.0314 40.9396 27.5521 40.8876C27.5454 40.9666 27.5492 41.0108 27.5386 41.0522C27.1835 42.3967 27.4077 42.801 28.7282 43.1994C28.8369 43.2312 28.99 43.21 29.0285 43.363C29.1266 43.7384 29.321 43.5824 29.528 43.4698C31.3604 42.4747 33.2747 41.6614 35.2477 40.9935C41.7759 38.7876 48.5148 37.8839 55.3789 37.803C58.4385 37.7674 61.4904 37.9426 64.5288 38.3247C68.5036 38.8242 72.4014 39.6605 76.18 41.0147C78.099 41.7019 79.9613 42.5161 81.7524 43.4929C81.8439 43.542 81.993 43.7441 82.0787 43.5132C82.1846 43.2264 82.4213 43.2158 82.6504 43.1494C83.5118 42.9001 83.8448 42.5151 83.7938 41.7971C83.7735 41.5017 83.6908 41.2101 83.6369 40.9194C83.7562 40.8434 83.8544 40.9127 83.9545 40.931C85.1132 41.1436 86.2585 41.2052 87.3037 40.5229C87.5675 40.3506 87.7773 40.3188 88.0843 40.4536C88.8513 40.7875 89.6444 40.8645 90.4057 40.416C91.4278 39.8126 92.1525 38.1447 91.8426 37.0004L91.8407 37.0013ZM34.1063 36.754C33.2324 36.652 32.729 36.0331 32.3546 35.3055C32.1342 34.8792 31.8532 34.5086 31.5058 34.1853C30.2209 32.9861 28.9467 33.5626 28.2104 34.5577C27.6368 35.3334 27.8841 36.1534 28.401 36.8406C28.7147 37.2583 28.6955 37.5942 28.4934 37.9984C28.3442 38.2968 28.2181 38.6086 28.0439 38.8916C27.3019 40.0927 26.0343 40.3968 24.7283 39.6605C25.4752 39.1591 25.9535 38.5239 26.1123 37.6635C26.2952 36.6674 25.8553 35.8676 25.2557 35.1641C24.9083 34.756 24.8053 34.3518 24.8169 33.8436C24.8688 31.6608 25.2355 29.5531 26.1893 27.5705C27.0074 25.8727 28.2797 24.5561 29.7089 23.3752C30.884 22.4041 32.1535 21.5687 33.4942 20.8431C33.6635 20.7516 33.8214 20.6227 34.0524 20.615C34.1111 21.4898 34.1207 22.3878 35.0687 22.8468C35.0013 23.0278 34.8579 23.0595 34.7559 23.1375C34.4912 23.3415 34.2064 23.5225 33.96 23.7458C32.6674 24.9122 32.7964 26.3405 34.2987 27.2548C34.6048 27.4415 34.7424 27.6224 34.6905 27.9641C34.6751 28.068 34.676 28.1787 34.6905 28.2827C34.7501 28.7215 34.626 29.0074 34.2112 29.272C33.3036 29.8534 33.0447 30.7648 33.2545 31.7878C33.4508 32.7464 33.8377 33.604 34.9032 33.8831C35.5932 34.063 36.2592 33.9148 36.8992 33.6145C37.0629 35.2728 35.6741 36.9417 34.1082 36.7569L34.1063 36.754ZM51.3165 33.5722C50.4176 33.4856 49.7554 32.9456 49.1443 32.3335C49.0259 32.2152 49.075 32.0833 49.0856 31.9486C49.1395 31.2893 49.101 30.6397 48.8392 30.0227C48.3002 28.7533 46.2146 28.3847 45.2772 29.4058C44.7094 30.0256 44.6978 30.8225 44.9596 31.5164C45.2676 32.3307 44.9529 32.8504 44.4928 33.4278C43.2089 35.038 42.1108 35.14 40.5815 33.7589C40.3794 33.5751 40.158 33.4124 39.8809 33.1872C40.4795 32.9418 40.9472 32.7734 41.364 32.4943C42.4534 31.7657 42.8057 30.836 42.4563 29.5771C42.1849 28.5974 41.4121 27.9631 40.3659 27.9044C40.0733 27.8881 39.904 27.8091 39.775 27.532C39.5565 27.0604 39.186 26.711 38.6855 26.5522C38.4314 26.4704 38.3958 26.3308 38.4353 26.1114C39.673 19.2088 43.3177 14.8298 50.1009 13.467C51.1942 13.2475 52.2972 13.1686 53.4107 13.1619C53.6821 13.16 53.8226 13.209 53.7389 13.5132C53.685 13.7085 53.6879 13.9135 53.763 14.0974C54.0758 14.8587 53.9593 15.6555 53.9863 16.4419C53.993 16.6526 53.9073 16.823 53.8159 16.9991C53.5561 17.5005 53.4993 18.0154 53.7678 18.5294C54.1585 19.282 54.0815 20.102 53.9112 20.845C53.5195 22.5552 53.6513 23.0182 55.1537 23.919C55.2037 23.9498 55.2499 23.9883 55.3597 24.0672C54.8698 24.1914 54.4444 24.2337 54.0498 24.3964C53.2914 24.7063 53.019 25.0768 53.0383 25.8881C53.045 26.1605 52.9815 26.276 52.7072 26.3559C51.3569 26.7505 50.5947 28.0247 50.8641 29.4077C50.9825 30.0227 51.3627 30.4366 51.9247 30.6878C52.4473 30.9217 53.0017 31.0198 53.5676 30.9938C53.8496 30.9823 53.9333 31.0294 53.8727 31.3355C53.5907 32.7666 52.5676 33.6925 51.3184 33.5732L51.3165 33.5722ZM66.0686 32.5212C65.9657 32.3547 66.0494 32.2315 66.0917 32.0929C66.2804 31.4625 66.418 30.8273 66.2823 30.1623C66.2169 29.8408 66.0792 29.5588 65.8377 29.3336C64.7597 28.3308 62.7136 28.8505 62.2574 30.2422C62.0745 30.8013 62.0495 31.3759 62.0957 31.9563C62.1053 32.092 62.1477 32.2219 62.0312 32.3412C61.4432 32.9331 60.8003 33.4432 59.9466 33.5664C59.1257 33.6848 58.4568 33.3845 57.9496 32.7262C57.7234 32.4336 57.5607 32.1093 57.4376 31.7647C57.1806 31.042 57.1825 31.0468 57.939 30.9929C58.1815 30.9765 58.425 30.9467 58.6598 30.8889C59.4952 30.6868 60.1612 30.2807 60.3268 29.3548C60.5212 28.2702 60.0361 27.1855 59.1362 26.6359C58.3461 26.1547 58.3365 26.1566 58.0776 25.2924C57.9467 24.8545 57.6339 24.6216 57.2489 24.4445C56.8187 24.2462 56.3481 24.1933 55.8005 24.0691C56.0276 23.9305 56.1835 23.8314 56.3413 23.7371C57.4029 23.1019 57.7186 22.3724 57.3452 21.2011C57.119 20.4937 57.221 19.7853 57.1912 19.077C57.1835 18.8999 57.3018 18.7642 57.3779 18.617C57.6291 18.1271 57.6685 17.6295 57.4241 17.1271C57.015 16.2831 57.1604 15.4121 57.299 14.5449C57.3452 14.2475 57.5338 13.9578 57.4529 13.6566C57.3307 13.2023 57.5646 13.1455 57.9159 13.1532C63.4248 13.2706 69.4545 15.5227 71.9212 22.8565C72.2706 23.8949 72.5439 24.9526 72.7402 26.0296C72.7893 26.2991 72.7691 26.4723 72.4515 26.5743C71.951 26.7341 71.6074 27.1075 71.3832 27.5772C71.2812 27.7899 71.157 27.8852 70.9029 27.8996C69.8048 27.9631 69.0406 28.5435 68.7461 29.4924C68.3843 30.6637 68.6528 31.5925 69.5623 32.3095C70.0329 32.681 70.5728 32.9177 71.1974 33.1295C70.6402 33.7762 70.0541 34.2931 69.2995 34.5943C68.7481 34.8147 68.2283 34.7627 67.7385 34.4307C67.0157 33.9418 66.5248 33.2498 66.0715 32.5222L66.0686 32.5212ZM83.5378 39.4161C83.0527 38.8694 82.7591 38.2265 82.5349 37.5422C82.4762 37.3651 82.5128 37.2237 82.6369 37.0831C82.737 36.9705 82.8198 36.8396 82.8968 36.7097C83.5031 35.6924 83.4011 34.8118 82.6042 34.1266C81.6754 33.3306 80.7361 33.3181 79.8045 34.0823C79.2982 34.4981 79.0008 35.0601 78.6678 35.6068C77.7949 37.0389 76.1848 37.1688 75.0809 35.9119C74.5159 35.2699 74.2763 34.5 74.2253 33.5876C74.8046 33.8388 75.3417 33.9841 75.9182 33.9427C76.2916 33.9158 76.6313 33.8051 76.9364 33.5886C78.381 32.5636 78.3522 30.1122 76.8633 29.1681C76.5765 28.9862 76.4533 28.8072 76.5053 28.4867C76.5197 28.3972 76.5187 28.3019 76.5053 28.2134C76.4331 27.737 76.5389 27.3857 77.0307 27.1605C77.3734 27.0046 77.6169 26.6831 77.819 26.3539C78.3233 25.533 78.255 24.8169 77.6072 24.1076C77.1838 23.6447 76.6852 23.2742 76.1501 22.9479C77.0538 21.8478 77.0741 21.8007 77.1366 20.6169C77.2165 20.5736 77.28 20.6188 77.3455 20.6544C79.6871 21.8969 81.8352 23.3925 83.583 25.4117C85.0969 27.1595 85.8331 29.2412 86.1806 31.4876C86.325 32.4221 86.3827 33.3624 86.3692 34.3075C86.3663 34.5346 86.3124 34.7088 86.1431 34.8715C85.8351 35.1669 85.581 35.5105 85.3558 35.8734C84.5964 37.0985 84.8861 38.5316 86.0632 39.3718C86.1854 39.4594 86.3134 39.5402 86.4433 39.6259C85.8245 40.1831 84.2923 40.2649 83.5378 39.4151V39.4161ZM85.2153 39.1505C84.3895 38.1832 84.2653 36.9003 84.9044 35.8012C85.1344 35.4056 85.3972 35.0322 85.7167 34.703C85.8351 34.5808 85.9255 34.4596 85.9294 34.2709C85.9631 32.1016 85.6301 30.0016 84.7398 28.0074C84.6426 27.7909 84.4992 27.6349 84.3 27.505C82.6273 26.4204 80.7611 25.8467 78.842 25.4088C78.6332 25.3607 78.561 25.4233 78.5341 25.6061C78.3984 26.4973 77.8671 27.1133 77.1578 27.6128C76.8421 27.8342 76.8411 28.6128 77.1626 28.8361C78.9951 30.1151 78.5629 32.2479 77.7131 33.4018C77.0818 34.2603 76.1905 34.5163 75.1627 34.3219C74.8422 34.2613 74.6968 34.2873 74.8441 34.6674C75.0298 35.1467 75.2801 35.5712 75.6805 35.8965C76.5014 36.5634 77.4686 36.4662 78.126 35.6424C78.2578 35.4778 78.3772 35.2959 78.4677 35.1063C78.716 34.5885 79.0798 34.1641 79.5052 33.7897C80.5378 32.8792 81.7111 32.8648 82.8159 33.7445C83.8063 34.5327 84.0363 35.6693 83.2894 36.8329C82.9314 37.3902 83.0238 37.804 83.2894 38.2871C83.4069 38.4998 83.5243 38.7145 83.6667 38.9108C84.1277 39.547 84.7581 39.7125 85.5136 39.5672C85.4771 39.3593 85.3202 39.2736 85.2153 39.1524V39.1505ZM70.2167 33.5193C70.4102 33.3778 70.4015 33.2796 70.1715 33.1795C69.7933 33.0149 69.4545 32.782 69.1398 32.5154C67.4921 31.119 67.9781 28.324 70.0271 27.6523C70.6344 27.453 71.158 27.2731 71.5006 26.6946C71.6132 26.5041 71.8731 26.3886 72.0858 26.275C72.2638 26.1797 72.3177 26.0748 72.2792 25.8775C72.0376 24.636 71.7018 23.4243 71.2311 22.2501C71.1638 22.0807 71.0637 21.9739 70.9068 21.894C68.7461 20.7843 66.4825 20.0481 64.035 19.9528C62.0062 19.8729 59.9957 20.0269 58.0035 20.4205C57.7725 20.4658 57.5588 20.4658 57.6849 20.8315C58.0756 21.9681 58.0439 23.0268 56.9563 23.8247C57.0256 23.8738 57.0564 23.9094 57.0949 23.9228C57.99 24.2164 58.5549 24.7794 58.5915 25.7649C58.6002 25.9815 58.7686 25.9863 58.8995 26.0412C59.6791 26.3703 60.2478 26.9083 60.5606 27.7033C61.1362 29.1739 60.6665 30.5309 59.3797 31.0978C58.9582 31.2826 58.5164 31.3836 58.0545 31.3981C57.9197 31.4019 57.7859 31.3778 57.8389 31.6185C57.9881 32.297 58.6521 32.9986 59.3335 33.1324C60.193 33.3017 60.8109 32.8196 61.4278 32.3393C61.6222 32.1872 61.6838 32.0198 61.6674 31.7532C61.6126 30.8909 61.7338 30.0555 62.2526 29.3221C63.011 28.2519 64.6587 28.2769 65.5913 28.6753C66.5345 29.0786 66.9435 30.0997 66.7067 31.4009C66.6933 31.476 66.6846 31.5549 66.6528 31.6223C66.3564 32.2402 66.6047 32.7224 67.0253 33.166C67.2149 33.3643 67.3872 33.578 67.5864 33.7656C68.288 34.4259 68.8106 34.473 69.6316 33.9533C69.8366 33.8234 70.0223 33.6665 70.2186 33.5221L70.2167 33.5193ZM52.8602 31.3778C51.4772 31.247 50.5523 30.4558 50.406 29.2778C50.2366 27.9227 50.9459 26.635 52.1942 26.0883C52.4589 25.9719 52.5907 25.8593 52.6187 25.5474C52.6831 24.8169 53.097 24.3194 53.7822 24.0499C53.9218 23.995 54.0575 23.9286 54.2355 23.8478C53.6802 23.3714 53.2587 22.8545 53.2789 22.0913C53.2914 21.613 53.378 21.1578 53.5272 20.7064C53.6071 20.4667 53.661 20.2146 53.2827 20.1636C51.3309 19.9008 49.3733 19.8113 47.4186 20.0933C44.6978 20.4841 42.2388 21.5938 39.8664 22.9258C39.6739 23.0345 39.5912 23.1952 39.5305 23.3877C39.2736 24.1991 39.0676 25.0239 38.904 25.8593C38.8597 26.0777 38.9223 26.1951 39.1215 26.2866C39.4429 26.4367 39.7403 26.6436 39.9059 26.9603C40.1003 27.3337 40.3909 27.4675 40.7913 27.5435C41.8741 27.7504 42.5891 28.4155 42.8731 29.479C43.182 30.6329 43.003 31.6772 42.0473 32.5058C41.6671 32.8359 41.2263 33.065 40.7778 33.3123C41.0367 33.6376 41.3438 33.8359 41.6575 34.0197C42.3899 34.449 42.8885 34.396 43.5227 33.833C43.9 33.4971 44.207 33.1035 44.5025 32.6945C44.668 32.4654 44.7219 32.2556 44.6208 31.9823C44.4158 31.4298 44.3937 30.8495 44.4543 30.271C44.5333 29.5155 44.9115 28.9516 45.6237 28.6599C46.3369 28.3674 47.0789 28.3548 47.8161 28.5541C48.4378 28.7215 48.8786 29.1325 49.1626 29.7042C49.4599 30.3028 49.5812 30.9582 49.5167 31.6088C49.4744 32.0323 49.6149 32.271 49.9248 32.4789C50.0884 32.5886 50.2424 32.7156 50.4128 32.8148C51.5715 33.4952 52.6254 33.1718 53.2009 31.962C53.3677 31.6111 53.2535 31.4167 52.8583 31.3788L52.8602 31.3778ZM52.1952 26.0874C52.4598 25.9709 52.5917 25.8583 52.6196 25.5465C52.6841 24.816 53.0979 24.3184 53.7832 24.0489C53.9227 23.9941 54.0584 23.9277 54.2365 23.8468C53.6812 23.3704 53.2596 22.8536 53.2798 22.0904C53.2924 21.612 53.379 21.1568 53.5282 20.7054C53.608 20.4658 53.6619 20.2136 53.2837 20.1626C51.3319 19.8999 49.3743 19.8104 47.4196 20.0924C44.6988 20.4831 42.2398 21.5928 39.8674 22.9248C39.6749 23.0336 39.5921 23.1943 39.5315 23.3868C39.2745 24.1981 39.0686 25.0229 38.9049 25.8583C38.8607 26.0768 38.9232 26.1942 39.1225 26.2856C39.4439 26.4358 39.7413 26.6427 39.9068 26.9593C40.1013 27.3327 40.3919 27.4665 40.7923 27.5426C41.875 27.7495 42.5901 28.4145 42.874 29.478C43.183 30.632 43.0039 31.6762 42.0483 32.5049C41.6681 32.835 41.2273 33.064 40.7788 33.3114C41.0377 33.6367 41.3447 33.8349 41.6585 34.0188C42.3909 34.448 42.8894 34.3951 43.5237 33.832C43.9009 33.4962 44.208 33.1025 44.5034 32.6935C44.669 32.4644 44.7229 32.2546 44.6218 31.9813C44.4168 31.4289 44.3947 30.8485 44.4553 30.2701C44.5342 29.5146 44.9125 28.9506 45.6247 28.659C46.3378 28.3664 47.0799 28.3539 47.8171 28.5531C48.4388 28.7206 48.8796 29.1315 49.1635 29.7032C49.4609 30.3018 49.5822 30.9573 49.5177 31.6079C49.4753 32.0313 49.6159 32.27 49.9258 32.4779C50.0894 32.5876 50.2434 32.7147 50.4137 32.8138C51.5725 33.4942 52.6264 33.1709 53.2019 31.9611C53.3687 31.6101 53.2545 31.4157 52.8593 31.3778C51.4762 31.247 50.5513 30.4558 50.4051 29.2778C50.2357 27.9227 50.945 26.635 52.1933 26.0883L52.1952 26.0874ZM52.1952 26.0874C52.4598 25.9709 52.5917 25.8583 52.6196 25.5465C52.6841 24.816 53.0979 24.3184 53.7832 24.0489C53.9227 23.9941 54.0584 23.9277 54.2365 23.8468C53.6812 23.3704 53.2596 22.8536 53.2798 22.0904C53.2924 21.612 53.379 21.1568 53.5282 20.7054C53.608 20.4658 53.6619 20.2136 53.2837 20.1626C51.3319 19.8999 49.3743 19.8104 47.4196 20.0924C44.6988 20.4831 42.2398 21.5928 39.8674 22.9248C39.6749 23.0336 39.5921 23.1943 39.5315 23.3868C39.2745 24.1981 39.0686 25.0229 38.9049 25.8583C38.8607 26.0768 38.9232 26.1942 39.1225 26.2856C39.4439 26.4358 39.7413 26.6427 39.9068 26.9593C40.1013 27.3327 40.3919 27.4665 40.7923 27.5426C41.875 27.7495 42.5901 28.4145 42.874 29.478C43.183 30.632 43.0039 31.6762 42.0483 32.5049C41.6681 32.835 41.2273 33.064 40.7788 33.3114C41.0377 33.6367 41.3447 33.8349 41.6585 34.0188C42.3909 34.448 42.8894 34.3951 43.5237 33.832C43.9009 33.4962 44.208 33.1025 44.5034 32.6935C44.669 32.4644 44.7229 32.2546 44.6218 31.9813C44.4168 31.4289 44.3947 30.8485 44.4553 30.2701C44.5342 29.5146 44.9125 28.9506 45.6247 28.659C46.3378 28.3664 47.0799 28.3539 47.8171 28.5531C48.4388 28.7206 48.8796 29.1315 49.1635 29.7032C49.4609 30.3018 49.5822 30.9573 49.5177 31.6079C49.4753 32.0313 49.6159 32.27 49.9258 32.4779C50.0894 32.5876 50.2434 32.7147 50.4137 32.8138C51.5725 33.4942 52.6264 33.1709 53.2019 31.9611C53.3687 31.6101 53.2545 31.4157 52.8593 31.3778C51.4762 31.247 50.5513 30.4558 50.4051 29.2778C50.2357 27.9227 50.945 26.635 52.1933 26.0883L52.1952 26.0874Z" fill="#273023"/>
<path d="M31.0771 48.764C30.8076 48.2847 30.797 47.867 31.2946 47.5427C31.6718 47.2963 31.5862 47.0663 31.283 46.817C31.0838 46.6534 30.9058 46.4619 30.7344 46.2694C30.4755 45.9797 30.234 45.6669 29.8942 46.1827C29.8211 46.2944 29.7152 46.2925 29.6267 46.1924C29.4948 46.0432 29.2302 45.9864 29.2879 45.7035C29.3668 45.3166 29.4448 44.9297 29.5189 44.5418C29.5574 44.3378 29.747 44.3166 29.8836 44.2425C32.5092 42.8075 35.2954 41.7758 38.1692 40.9721C42.7851 39.6815 47.4952 38.9828 52.2795 38.7499C58.927 38.4255 65.4965 38.9202 71.9545 40.5958C75.1853 41.4341 78.2959 42.589 81.241 44.1732C81.5249 44.3253 81.7308 44.4792 81.7222 44.8469C81.7174 45.0682 81.7915 45.2992 81.8675 45.5119C81.9897 45.8507 81.7886 46.0182 81.5634 46.1885C81.291 46.3945 81.2159 46.0981 81.1082 45.9835C80.9397 45.8026 80.8464 45.868 80.7126 46.0057C80.396 46.3338 80.0764 46.6611 79.7425 46.9719C79.5683 47.1346 79.5529 47.2539 79.7453 47.406C79.8753 47.509 79.986 47.6379 80.1034 47.7573C80.293 47.9498 80.319 48.4647 80.1544 48.6581C80.0273 48.8083 79.9282 48.6552 79.8416 48.6158C77.9783 47.7534 76.065 47.021 74.1199 46.3714C67.7563 44.2473 61.2387 43.0202 54.5094 43.178C46.3826 43.3696 38.6119 45.125 31.2734 48.6774C31.208 48.7091 31.1396 48.7351 31.0751 48.7621L31.0771 48.764Z" fill="#273023"/>
<path d="M81.6184 47.2081C81.6078 47.3159 80.9379 47.9386 80.8744 47.8895C80.6136 47.6874 80.3537 47.4766 80.1892 47.184C80.1526 47.1195 80.833 46.4603 80.9148 46.4631C81.0063 46.466 81.6261 47.1234 81.6184 47.2081Z" fill="#F3F5F2"/>
<path d="M30.2789 46.4661C30.3636 46.4661 31.0027 47.1119 31.0007 47.1956C30.9979 47.2851 30.3463 47.9126 30.2635 47.9059C30.1962 47.9001 29.5744 47.2687 29.5696 47.2014C29.5648 47.1138 30.1885 46.467 30.2789 46.4661Z" fill="#F3F5F2"/>
<path d="M72.0855 26.2742C71.8737 26.3878 71.6129 26.5032 71.5003 26.6938C71.1577 27.2722 70.6341 27.4522 70.0268 27.6514C67.9778 28.3232 67.4918 31.1181 69.1395 32.5146C69.4542 32.7812 69.793 33.0141 70.1712 33.1787C70.4002 33.2788 70.4099 33.3769 70.2164 33.5184C70.021 33.6628 69.8343 33.8197 69.6293 33.9496C68.8074 34.4693 68.2858 34.4221 67.5842 33.7619C67.3849 33.5742 67.2117 33.3606 67.0231 33.1623C66.6015 32.7186 66.3542 32.2365 66.6506 31.6186C66.6824 31.5522 66.691 31.4723 66.7045 31.3972C66.9413 30.096 66.5322 29.0749 65.589 28.6716C64.6564 28.2732 63.0088 28.2481 62.2504 29.3184C61.7326 30.0517 61.6104 30.8871 61.6652 31.7495C61.6816 32.0151 61.62 32.1835 61.4256 32.3356C60.8086 32.8168 60.1908 33.298 59.3313 33.1286C58.6509 32.9949 57.9858 32.2932 57.8367 31.6147C57.7837 31.3741 57.9185 31.3982 58.0522 31.3943C58.5142 31.3799 58.956 31.2779 59.3775 31.0941C60.6643 30.5272 61.1339 29.1701 60.5584 27.6996C60.2456 26.9046 59.6778 26.3656 58.8973 26.0374C58.7664 25.9826 58.5979 25.9778 58.5893 25.7612C58.5527 24.7757 57.9878 24.2127 57.0927 23.9191C57.0542 23.9066 57.0234 23.871 56.9541 23.8209C58.0417 23.0231 58.0734 21.9644 57.6827 20.8278C57.5566 20.4611 57.7702 20.4621 58.0012 20.4168C59.9935 20.0232 62.004 19.8692 64.0328 19.9491C66.4803 20.0444 68.7439 20.7806 70.9046 21.8903C71.0614 21.9712 71.1615 22.078 71.2289 22.2464C71.6995 23.4206 72.0364 24.6332 72.277 25.8738C72.3155 26.0711 72.2616 26.176 72.0835 26.2713L72.0855 26.2742Z" fill="#273023"/>
<path d="M50.4067 29.2768C50.553 30.4548 51.4779 31.2469 52.8609 31.3768C53.2561 31.4147 53.3703 31.6091 53.2035 31.9601C52.628 33.1698 51.5741 33.4942 50.4153 32.8128C50.245 32.7127 50.091 32.5856 49.9274 32.4769C49.6165 32.268 49.477 32.0303 49.5193 31.6068C49.5828 30.9562 49.4616 30.3008 49.1651 29.7022C48.8822 29.1305 48.4404 28.7195 47.8187 28.5521C47.0815 28.3529 46.3394 28.3654 45.6263 28.6579C44.9141 28.9496 44.5358 29.5136 44.4569 30.2691C44.3963 30.8475 44.4184 31.4278 44.6234 31.9803C44.7245 32.2536 44.6706 32.4624 44.505 32.6925C44.2096 33.1015 43.9026 33.4961 43.5253 33.831C42.891 34.394 42.3915 34.447 41.6601 34.0177C41.3463 33.8339 41.0393 33.6356 40.7804 33.3103C41.2289 33.064 41.6697 32.8339 42.0499 32.5038C43.0046 31.6752 43.1846 30.6309 42.8756 29.477C42.5917 28.4135 41.8766 27.7475 40.7939 27.5415C40.3935 27.4655 40.1029 27.3327 39.9085 26.9583C39.7429 26.6416 39.4455 26.4347 39.1241 26.2846C38.9249 26.1922 38.8623 26.0757 38.9066 25.8573C39.0711 25.0219 39.2771 24.1971 39.5331 23.3857C39.5937 23.1942 39.6756 23.0325 39.869 22.9238C42.2414 21.5918 44.7004 20.4821 47.4212 20.0913C49.3759 19.8103 51.3325 19.8988 53.2853 20.1616C53.6626 20.2126 53.6087 20.4648 53.5298 20.7044C53.3796 21.1558 53.294 21.611 53.2815 22.0893C53.2612 22.8526 53.6828 23.3694 54.2381 23.8458C54.0601 23.9266 53.9244 23.993 53.7848 24.0479C53.0996 24.3174 52.6867 24.8159 52.6212 25.5454C52.5943 25.8573 52.4624 25.9708 52.1968 26.0863C50.9485 26.633 50.2392 27.9207 50.4086 29.2758L50.4067 29.2768Z" fill="#273023"/>
<path d="M36.4005 34.5249C36.26 35.2823 35.4669 36.1283 34.7191 36.2977C33.9107 36.4805 33.2351 36.0888 32.7356 35.1168C32.4228 34.5095 32.0022 34.0004 31.4565 33.5952C30.0273 32.5346 27.8512 33.3767 27.5124 35.1293C27.3748 35.8453 27.6279 36.4873 28.0216 37.0628C28.2112 37.34 28.2391 37.5787 28.0947 37.8607C27.9484 38.1436 27.8243 38.441 27.6549 38.7095C27.1554 39.5055 26.5972 39.7307 25.6039 39.543C25.6569 39.4679 25.6809 39.4285 25.7088 39.3948C26.7742 38.1051 26.9321 36.7664 25.9379 35.4286C25.3277 34.6076 25.1939 33.7934 25.2786 32.8502C25.4143 31.3296 25.6848 29.8417 26.268 28.4202C26.3479 28.2277 26.4538 28.0843 26.6347 27.9775C28.4104 26.9303 30.2717 26.0882 32.2842 25.5964C32.5604 25.529 32.6383 25.5694 32.7048 25.8495C32.878 26.5781 33.3419 27.1132 33.9424 27.5415C34.39 27.86 34.39 28.5751 33.9453 28.9081C33.0204 29.6011 32.6152 30.5327 32.7971 31.6616C32.981 32.7992 33.4141 33.8069 34.621 34.2362C35.1051 34.4084 35.5998 34.4296 36.1031 34.316C36.2504 34.2833 36.4573 34.2054 36.3995 34.5249H36.4005Z" fill="#273023"/>
<path d="M85.93 34.2709C85.9262 34.4605 85.8357 34.5808 85.7173 34.703C85.3978 35.0331 85.135 35.4056 84.905 35.8012C84.266 36.8993 84.3892 38.1832 85.2159 39.1504C85.3198 39.2717 85.4777 39.3583 85.5142 39.5652C84.7587 39.7106 84.1274 39.545 83.6673 38.9089C83.5249 38.7135 83.4075 38.4989 83.2901 38.2852C83.0244 37.803 82.932 37.3882 83.2901 36.831C84.0369 35.6674 83.8079 34.5308 82.8165 33.7425C81.7126 32.8629 80.5385 32.8783 79.5058 33.7878C79.0804 34.1621 78.7166 34.5866 78.4683 35.1044C78.3778 35.2949 78.2585 35.4768 78.1266 35.6404C77.4683 36.4643 76.502 36.5615 75.6811 35.8945C75.2807 35.5692 75.0305 35.1438 74.8447 34.6655C74.6975 34.2853 74.8428 34.2593 75.1633 34.32C76.1902 34.5134 77.0814 34.2574 77.7137 33.3999C78.5636 32.2469 78.9957 30.1132 77.1632 28.8341C76.8427 28.6108 76.8437 27.8322 77.1584 27.6109C77.8677 27.1114 78.399 26.4944 78.5347 25.6042C78.5616 25.4213 78.6338 25.3588 78.8427 25.4069C80.7618 25.8448 82.6279 26.4174 84.3006 27.5031C84.4998 27.633 84.6432 27.7889 84.7405 28.0055C85.6317 29.9996 85.9647 32.0987 85.93 34.269V34.2709Z" fill="#273023"/>
<path d="M91.4796 37.6382C91.4719 39.0058 90.3247 40.1318 88.9647 40.1068C87.5827 40.0808 86.473 38.9538 86.4874 37.591C86.5019 36.2282 87.6404 35.1147 89.0119 35.1224C90.3805 35.1301 91.4873 36.258 91.4796 37.6382Z" fill="#273023"/>
<path d="M55.58 25.5098C56.9804 25.506 58.0718 26.5906 58.0718 27.9852C58.0718 29.3557 56.9852 30.4567 55.6233 30.4663C54.2259 30.476 53.121 29.3952 53.1095 28.0054C53.0979 26.6108 54.1845 25.5127 55.581 25.5089L55.58 25.5098Z" fill="#273023"/>
<path d="M73.5005 27.6154C74.8931 27.6125 75.9845 28.6991 75.9893 30.0908C75.9941 31.4786 74.8998 32.5777 73.512 32.5796C72.1232 32.5816 71.0251 31.4883 71.0203 30.1023C71.0155 28.7174 72.1126 27.6183 73.5005 27.6154Z" fill="#273023"/>
<path d="M37.6477 27.6154C39.0375 27.6087 40.1491 28.6991 40.1616 30.0802C40.1741 31.4623 39.074 32.5729 37.6872 32.5797C36.3041 32.5864 35.1877 31.496 35.1666 30.1168C35.1454 28.7588 36.2734 27.6222 37.6477 27.6164V27.6154Z" fill="#273023"/>
<path d="M24.6686 37.6275C24.6638 38.9894 23.5628 40.0991 22.2077 40.1068C20.8103 40.1145 19.6919 38.9855 19.7035 37.5785C19.715 36.2282 20.8334 35.1233 22.1894 35.1233C23.5686 35.1233 24.6735 36.2397 24.6686 37.6285V37.6275Z" fill="#273023"/>
<path d="M89.0125 35.5574C90.1558 35.5661 91.0567 36.4823 91.049 37.6296C91.0422 38.7681 90.1222 39.6815 88.9836 39.6805C87.8345 39.6805 86.8961 38.7267 86.9153 37.5785C86.9346 36.4515 87.871 35.5488 89.0125 35.5574Z" fill="#F3F5F2"/>
<path d="M55.5962 30.0359C54.4596 30.0408 53.5366 29.1361 53.5183 28.0004C53.501 26.8763 54.474 25.9033 55.6058 25.9138C56.729 25.9244 57.6606 26.8657 57.6587 27.9869C57.6558 29.1168 56.7357 30.0311 55.5962 30.0359Z" fill="#F3F5F2"/>
<path d="M71.449 30.0907C71.4499 28.9531 72.3652 28.034 73.5018 28.0272C74.624 28.0215 75.5643 28.9512 75.5768 30.0801C75.5894 31.2177 74.6269 32.1801 73.4903 32.1676C72.3556 32.1551 71.448 31.2312 71.449 30.0907Z" fill="#F3F5F2"/>
<path d="M39.7257 30.0994C39.7286 31.2399 38.8171 32.1581 37.6766 32.1677C36.5506 32.1763 35.6103 31.2495 35.5988 30.1187C35.5862 28.9676 36.5304 28.0177 37.6776 28.0273C38.8142 28.0369 39.7237 28.956 39.7257 30.0994Z" fill="#F3F5F2"/>
<path d="M22.2039 35.5573C23.3347 35.5641 24.2616 36.4938 24.2587 37.6208C24.2558 38.7593 23.2933 39.6996 22.149 39.6804C21.0191 39.6621 20.1115 38.7218 20.1279 37.5871C20.1443 36.4456 21.0595 35.5506 22.2039 35.5564V35.5573Z" fill="#F3F5F2"/>
<path d="M68.6382 36.319C69.5342 35.9657 70.2974 35.6433 70.9586 35.1342C71.6285 34.6193 72.1183 33.9504 72.5967 33.0881C72.8161 34.8897 73.3936 36.4162 74.2944 37.8483C72.4533 37.3507 70.6131 36.8521 68.6382 36.318V36.319Z" fill="#273023"/>
<path d="M36.6006 37.8887C37.6612 36.4373 38.2492 34.9148 38.4841 33.1997C39.3185 34.7906 40.6717 35.7165 42.3049 36.3555C40.4436 36.856 38.5822 37.3565 36.6015 37.8887H36.6006Z" fill="#273023"/>
<path d="M52.5444 35.037C53.965 33.9013 54.9159 32.5741 55.5482 30.9438C55.6127 31.0862 55.655 31.1507 55.6714 31.221C55.9822 32.5289 56.6877 33.577 57.7406 34.4018C57.885 34.5144 58.0669 34.5904 57.9658 34.8657C57.8638 35.1438 57.6665 35.0293 57.5164 35.0303C55.9062 35.0409 54.297 35.037 52.5444 35.037Z" fill="#273023"/>
<path d="M76.353 38.3554C77.4049 38.1196 78.3645 37.9416 79.1768 37.3564C79.3048 37.264 79.4357 37.3064 79.5675 37.3526C79.7966 37.4325 80.0237 37.522 80.2576 37.5816C80.6839 37.6904 80.9736 37.8223 81.0227 38.3843C81.0737 38.9608 81.5944 39.3631 81.9438 39.8203C82.0429 39.9502 82.2373 40.0455 82.0737 40.2784C81.9101 40.5132 81.7494 40.3679 81.5973 40.3121C79.9891 39.7231 78.3837 39.1263 76.7774 38.5316C76.6668 38.4902 76.558 38.4411 76.3511 38.3554H76.353Z" fill="#273023"/>
<path d="M34.8616 38.3611C33.2678 38.952 31.8078 39.4939 30.3478 40.0357C30.1063 40.1252 29.8685 40.2263 29.6222 40.2994C29.4557 40.3485 29.2814 40.5314 29.1082 40.2686C28.9369 40.0088 29.1794 39.9173 29.2766 39.7759C29.4922 39.464 29.7386 39.1734 29.9523 38.8606C30.0533 38.7133 30.1832 38.5276 30.1698 38.3707C30.1207 37.7865 30.5191 37.6768 30.9368 37.5815C31.2823 37.5026 31.6375 37.1542 31.9637 37.3592C32.8203 37.8991 33.7712 38.1214 34.8616 38.3601V38.3611Z" fill="#273023"/>
<path d="M50.4077 35.0697C49.554 35.1707 48.7013 35.2756 47.8466 35.3719C46.8823 35.4806 45.9179 35.5826 44.9526 35.6837C44.8005 35.6991 44.6331 35.7934 44.5368 35.5499C44.4473 35.3237 44.5936 35.2622 44.7216 35.1582C45.3029 34.6866 46.0199 34.3363 46.197 33.5028C46.2163 33.4133 46.3 33.4037 46.377 33.397C46.4376 33.3912 46.5002 33.397 46.5589 33.3844C47.3981 33.2045 48.1152 33.294 48.7465 34.0081C49.1681 34.4864 49.8427 34.6866 50.4077 35.0687V35.0697Z" fill="#273023"/>
<path d="M60.5347 34.9919C61.4653 34.5443 62.3681 34.1372 63.0158 33.349C63.1159 33.2277 63.2747 33.296 63.4056 33.2989C63.5721 33.3028 63.7386 33.3413 63.9051 33.3374C64.4421 33.3259 64.8271 33.4298 65.0677 34.0352C65.2852 34.5819 65.8993 34.8552 66.368 35.2142C66.5037 35.3181 66.5171 35.4095 66.4613 35.5578C66.4055 35.705 66.3141 35.7195 66.1764 35.7041C64.3363 35.4933 62.4961 35.2873 60.6559 35.0785C60.6309 35.0756 60.6088 35.0457 60.5337 34.9919H60.5347Z" fill="#273023"/>
<path d="M73.4862 37.1821C72.2687 36.8568 71.1792 36.5652 69.9512 36.2361C70.9396 35.7462 71.7288 35.1601 72.3592 34.2775C72.5931 35.3131 72.9289 36.2236 73.4862 37.1812V37.1821Z" fill="#F3F5F2"/>
<path d="M38.6941 34.2815C39.3524 35.1323 40.0906 35.7483 40.9789 36.268C39.8827 36.5635 38.7865 36.858 37.5815 37.1823C38.1215 36.2305 38.4824 35.3239 38.6941 34.2806V34.2815Z" fill="#F3F5F2"/>
<path d="M55.5002 32.1045C55.8996 33.1333 56.4866 33.8744 57.2864 34.5731H53.7312C54.4347 33.8311 55.0151 33.0688 55.5002 32.1045Z" fill="#F3F5F2"/>
<path d="M77.822 38.4662C78.3773 38.2544 78.8249 38.0773 79.2483 37.8348C79.5871 37.6404 80.4851 38.0591 80.5717 38.4392C80.6766 38.8993 80.9769 39.2457 81.3089 39.7462C80.0953 39.3006 79.0039 38.8993 77.822 38.4652V38.4662Z" fill="#F3F5F2"/>
<path d="M33.3603 38.4653C32.1794 38.9013 31.09 39.3036 30.0005 39.7059C30.2478 39.1967 30.5568 38.7579 30.6703 38.2141C30.7156 37.9985 31.7309 37.7127 31.9398 37.8388C32.3584 38.0909 32.8127 38.2584 33.3603 38.4653Z" fill="#F3F5F2"/>
<path d="M49.0719 34.7983C47.814 34.9407 46.6745 35.0707 45.4878 35.2054C45.6909 34.8464 46.124 34.728 46.251 34.3825C46.4858 33.7416 46.9921 33.7242 47.5349 33.7396C47.6398 33.7425 47.7495 33.7194 47.8323 33.8099C48.1691 34.1775 48.5945 34.4393 49.0719 34.7993V34.7983Z" fill="#F3F5F2"/>
<path d="M65.0736 35.1342C64.0679 35.0302 63.0612 34.9263 62.0554 34.8214C62.7118 34.3998 63.1016 33.473 64.1092 33.7714C64.2507 33.8127 64.4374 33.7791 64.5029 33.9475C64.7002 34.4528 65.1342 34.7502 65.4932 35.114C65.3566 35.1977 65.216 35.1736 65.0736 35.1342Z" fill="#F3F5F2"/>
<path d="M54.0401 21.9103C54.0488 21.0537 54.7206 20.3954 55.5887 20.3954C56.4645 20.3954 57.1546 21.0883 57.143 21.9574C57.1324 22.7967 56.4385 23.479 55.5896 23.4848C54.7331 23.4906 54.0315 22.7774 54.0401 21.9103Z" fill="#273023"/>
<path d="M55.5858 11.9855C56.4606 11.9855 57.1497 12.6756 57.143 13.5456C57.1363 14.3926 56.4443 15.0749 55.5964 15.0711C54.7196 15.0672 54.0315 14.3743 54.0401 13.5062C54.0478 12.6534 54.7263 11.9855 55.5858 11.9846V11.9855Z" fill="#273023"/>
<path d="M87.728 32.0649C87.7319 31.1833 88.4133 30.5211 89.3035 30.5327C90.1563 30.5442 90.8329 31.2324 90.828 32.0803C90.8223 32.9214 90.1303 33.6163 89.2891 33.6259C88.4268 33.6356 87.7242 32.932 87.728 32.0639V32.0649Z" fill="#273023"/>
<path d="M53.4059 10.0974C53.4021 10.9598 52.6899 11.6585 51.8295 11.645C50.9893 11.6315 50.2992 10.9261 50.305 10.0897C50.3117 9.24375 51.0008 8.54983 51.84 8.54598C52.7139 8.54117 53.4098 9.23027 53.405 10.0984L53.4059 10.0974Z" fill="#273023"/>
<path d="M21.8937 30.5326C22.7763 30.5326 23.4615 31.2189 23.4509 32.0908C23.4404 32.9339 22.7436 33.6249 21.9043 33.6259C21.0429 33.6259 20.3404 32.9147 20.3509 32.0523C20.3615 31.1909 21.0304 30.5317 21.8947 30.5317L21.8937 30.5326Z" fill="#273023"/>
<path d="M30.8475 20.151C29.989 20.1491 29.3076 19.4744 29.3037 18.6217C29.2999 17.7613 30.0121 17.0433 30.8658 17.0491C31.7117 17.0549 32.4008 17.7449 32.4047 18.5909C32.4095 19.4687 31.7262 20.153 30.8475 20.151Z" fill="#273023"/>
<path d="M35.3555 26.8246C34.4932 26.8169 33.8282 26.148 33.8301 25.2904C33.832 24.4194 34.5375 23.713 35.3921 23.7275C36.2371 23.7409 36.9205 24.4358 36.9185 25.2789C36.9176 26.1586 36.2352 26.8332 35.3555 26.8246Z" fill="#273023"/>
<path d="M65.1785 11.9972C65.1765 11.1185 65.8599 10.4438 66.7434 10.4496C67.5961 10.4554 68.2775 11.1368 68.2794 11.9866C68.2814 12.8432 67.5605 13.5602 66.7087 13.5477C65.8637 13.5352 65.1794 12.8422 65.1785 11.9972Z" fill="#273023"/>
<path d="M55.5821 19.3291C54.7053 19.3224 54.0268 18.6285 54.0402 17.7527C54.0537 16.9086 54.7553 16.2234 55.5984 16.232C56.455 16.2397 57.1576 16.9635 57.1422 17.8229C57.1268 18.6766 56.4444 19.3359 55.5811 19.3301L55.5821 19.3291Z" fill="#273023"/>
<path d="M39.6355 17.4792C39.6393 18.356 38.955 19.0461 38.0821 19.0441C37.2429 19.0422 36.5451 18.3473 36.5374 17.5071C36.5297 16.6506 37.2419 15.9403 38.1033 15.9451C38.9579 15.9499 39.6307 16.6236 39.6355 17.4792Z" fill="#273023"/>
<path d="M59.271 8.545C60.143 8.54885 60.8234 9.24276 60.8129 10.1195C60.8032 10.9703 60.117 11.6479 59.2662 11.645C58.4106 11.6421 57.6955 10.9164 57.7109 10.0676C57.7263 9.2264 58.428 8.54115 59.2701 8.545H59.271Z" fill="#273023"/>
<path d="M22.8853 26.4288C23.7678 26.424 24.4598 27.1083 24.454 27.9793C24.4482 28.8185 23.7553 29.5182 22.9161 29.5326C22.0605 29.5471 21.3473 28.8339 21.3531 27.9677C21.3588 27.1083 22.0297 26.4336 22.8853 26.4288Z" fill="#273023"/>
<path d="M78.3315 17.1452C78.3372 18.0248 77.6606 18.7024 76.7752 18.7033C75.9177 18.7033 75.2363 18.0306 75.2305 17.1769C75.2247 16.3184 75.9465 15.5899 76.7916 15.5985C77.6356 15.6072 78.3257 16.3001 78.3315 17.1452Z" fill="#273023"/>
<path d="M45.9157 11.9925C45.9157 12.8356 45.2295 13.5362 44.3912 13.5497C43.5452 13.5632 42.8176 12.8423 42.8157 11.9906C42.8147 11.1186 43.5057 10.443 44.3893 10.4507C45.2429 10.4584 45.9147 11.1379 45.9147 11.9925H45.9157Z" fill="#273023"/>
<path d="M64.5597 10.6104C64.5664 11.4862 63.8783 12.1859 63.013 12.183C62.1767 12.1801 61.4731 11.4843 61.4616 10.647C61.4491 9.81253 62.143 9.09841 62.9784 9.08397C63.8677 9.06954 64.5529 9.73073 64.5597 10.6094V10.6104Z" fill="#273023"/>
<path d="M80.4052 20.151C79.538 20.1501 78.872 19.4889 78.8682 18.6256C78.8643 17.7507 79.5602 17.0424 80.4167 17.0491C81.2589 17.0568 81.9566 17.7498 81.9672 18.588C81.9778 19.4485 81.2743 20.152 80.4042 20.151H80.4052Z" fill="#273023"/>
<path d="M74.5093 17.487C74.5112 18.3628 73.824 19.05 72.9511 19.0432C72.1128 19.0375 71.4208 18.3426 71.4131 17.5005C71.4064 16.6641 72.0994 15.9567 72.9367 15.9442C73.8077 15.9317 74.5064 16.6169 74.5093 17.486V17.487Z" fill="#273023"/>
<path d="M48.1558 9.08473C49.02 9.08184 49.7303 9.7873 49.7255 10.6419C49.7207 11.4783 49.0181 12.178 48.1808 12.1828C47.3156 12.1876 46.6207 11.4879 46.6245 10.6169C46.6293 9.7565 47.2982 9.08761 48.1558 9.08473Z" fill="#273023"/>
<path d="M71.7682 14.3493C71.7634 15.2155 71.1022 15.8709 70.2322 15.8709C69.3593 15.8709 68.6586 15.1741 68.6663 14.3118C68.674 13.4745 69.3766 12.7777 70.2168 12.7738C71.0734 12.77 71.7731 13.4802 71.7692 14.3484L71.7682 14.3493Z" fill="#273023"/>
<path d="M86.6003 22.6714C87.4761 22.6617 88.1787 23.3489 88.1777 24.2141C88.1768 25.0582 87.4877 25.7521 86.6446 25.7598C85.7861 25.7675 85.0941 25.1034 85.0777 24.2565C85.0604 23.3672 85.7187 22.682 86.6003 22.6714Z" fill="#273023"/>
<path d="M77.4445 25.2982C77.4407 26.1624 76.7776 26.8246 75.9133 26.8255C75.0442 26.8265 74.3368 26.1258 74.3445 25.2712C74.3522 24.4377 75.0567 23.7342 75.8902 23.7275C76.7468 23.7207 77.4484 24.43 77.4445 25.2982Z" fill="#273023"/>
<path d="M23.0794 24.1941C23.0871 23.3298 23.7531 22.6715 24.6164 22.6725C25.4942 22.6725 26.1881 23.3664 26.1775 24.2316C26.1679 25.0747 25.4701 25.7629 24.628 25.759C23.7464 25.7561 23.0708 25.0738 23.0794 24.1941Z" fill="#273023"/>
<path d="M89.9535 27.9592C89.9573 28.8302 89.2576 29.5405 88.403 29.5318C87.5618 29.5241 86.8708 28.8293 86.867 27.9862C86.8631 27.1104 87.5484 26.4241 88.4232 26.428C89.2856 26.4318 89.9496 27.0969 89.9535 27.9592Z" fill="#273023"/>
<path d="M28.851 21.1749C28.8539 22.0575 28.1793 22.7312 27.2957 22.7283C26.4411 22.7254 25.7587 22.0507 25.751 21.2019C25.7433 20.3357 26.4411 19.6447 27.316 19.6504C28.1821 19.6562 28.8481 20.3184 28.851 21.1759V21.1749Z" fill="#273023"/>
<path d="M40.8664 15.8711C39.9848 15.8739 39.3102 15.1974 39.316 14.3158C39.3208 13.4602 39.9897 12.7865 40.8453 12.7749C41.6932 12.7634 42.416 13.49 42.4044 14.3437C42.3929 15.2031 41.723 15.8691 40.8664 15.872V15.8711Z" fill="#273023"/>
<path d="M83.8824 22.7274C83.0162 22.7361 82.3425 22.0826 82.33 21.2231C82.3175 20.3319 82.9777 19.6524 83.8584 19.6486C84.7168 19.6457 85.4031 20.303 85.4281 21.1519C85.4531 22.0017 84.7496 22.7178 83.8814 22.7264L83.8824 22.7274Z" fill="#273023"/>
<path d="M34.3356 18.7035C33.4762 18.6949 32.8208 18.0202 32.8294 17.1521C32.8381 16.2975 33.5195 15.6045 34.3578 15.5997C35.2134 15.5939 35.9314 16.3158 35.9198 17.1704C35.9083 18.0452 35.2192 18.7122 34.3347 18.7035H34.3356Z" fill="#273023"/>
<path d="M34.7435 21.1337C34.7329 20.2521 35.4018 19.5726 36.2853 19.5669C37.1419 19.562 37.8272 20.2309 37.8358 21.0808C37.8445 21.9441 37.141 22.6601 36.2863 22.6592C35.4288 22.6582 34.7532 21.9893 34.7435 21.1337Z" fill="#273023"/>
<path d="M74.8105 19.5669C75.6748 19.563 76.3408 20.2223 76.3466 21.0865C76.3524 21.9566 75.6556 22.6649 74.8009 22.6582C73.9482 22.6514 73.2649 21.9768 73.2524 21.1289C73.2399 20.2656 73.9328 19.5707 74.8096 19.5669H74.8105Z" fill="#273023"/>
<path d="M56.7083 13.515C56.716 14.1454 56.2165 14.6555 55.5928 14.6546C54.9894 14.6546 54.488 14.1637 54.4726 13.5603C54.4562 12.9337 54.949 12.4082 55.5668 12.3919C56.177 12.3765 56.7006 12.8914 56.7083 13.515Z" fill="#F3F5F2"/>
<path d="M90.3905 32.0783C90.3886 32.7029 89.8881 33.2024 89.2674 33.1995C88.6427 33.1966 88.1509 32.6952 88.1538 32.0658C88.1567 31.4441 88.6629 30.9359 89.2789 30.9378C89.89 30.9397 90.3924 31.4546 90.3905 32.0773V32.0783Z" fill="#F3F5F2"/>
<path d="M52.9786 10.0914C52.9786 10.7276 52.4906 11.2098 51.8487 11.2079C51.2077 11.2059 50.7342 10.7209 50.7438 10.0741C50.7534 9.45239 51.2241 8.98465 51.8458 8.97983C52.4896 8.97502 52.9795 9.45528 52.9786 10.0914Z" fill="#F3F5F2"/>
<path d="M23.0143 32.0957C23.0047 32.7212 22.4984 33.2121 21.8757 33.1996C21.2511 33.1871 20.7718 32.6818 20.7824 32.0485C20.793 31.4249 21.3108 30.9196 21.921 30.9379C22.5408 30.9571 23.0229 31.4682 23.0143 32.0947V32.0957Z" fill="#F3F5F2"/>
<path d="M29.7412 18.609C29.7412 17.9748 30.2282 17.483 30.8547 17.4839C31.4919 17.4839 31.9731 17.9661 31.9741 18.6033C31.9741 19.2269 31.4774 19.7312 30.8576 19.736C30.233 19.7409 29.7402 19.2433 29.7412 18.61V18.609Z" fill="#F3F5F2"/>
<path d="M35.3763 26.376C34.7651 26.3683 34.2676 25.8842 34.2589 25.2875C34.2502 24.661 34.7565 24.1557 35.3869 24.1615C36.0067 24.1673 36.5168 24.6918 36.5014 25.3077C36.486 25.9275 36.0067 26.3828 35.3753 26.376H35.3763Z" fill="#F3F5F2"/>
<path d="M67.8427 11.9712C67.8523 12.6131 67.374 13.1068 66.7378 13.1126C66.1007 13.1193 65.6099 12.6314 65.6099 11.9923C65.6099 11.3745 66.0776 10.8894 66.6936 10.8682C67.3211 10.8461 67.834 11.3379 67.8437 11.9712H67.8427Z" fill="#F3F5F2"/>
<path d="M55.592 16.666C56.2185 16.6679 56.7065 17.1597 56.7093 17.7911C56.7113 18.4167 56.2137 18.9162 55.59 18.9143C54.9673 18.9123 54.4736 18.4128 54.4727 17.7834C54.4727 17.1472 54.9548 16.6651 55.592 16.667V16.666Z" fill="#F3F5F2"/>
<path d="M38.0806 18.6072C37.4474 18.6033 36.9565 18.1009 36.97 17.4705C36.9835 16.8411 37.4907 16.3638 38.1297 16.3782C38.7332 16.3917 39.2298 16.896 39.2269 17.4936C39.224 18.1115 38.7101 18.612 38.0806 18.6072Z" fill="#F3F5F2"/>
<path d="M59.2676 8.97998C59.8922 8.97998 60.41 9.49103 60.4042 10.1051C60.3984 10.7239 59.8835 11.2157 59.2483 11.208C58.6333 11.2003 58.155 10.722 58.1464 10.107C58.1377 9.46986 58.6247 8.98094 59.2666 8.97998H59.2676Z" fill="#F3F5F2"/>
<path d="M24.0175 27.9736C24.0156 28.6069 23.5305 29.0939 22.8982 29.0958C22.2649 29.0977 21.7827 28.6117 21.7847 27.9727C21.7866 27.3461 22.29 26.8379 22.903 26.8408C23.5267 26.8447 24.0185 27.3442 24.0175 27.9736Z" fill="#F3F5F2"/>
<path d="M76.774 16.0336C77.4035 16.0288 77.8972 16.5177 77.902 17.15C77.9068 17.7689 77.4054 18.2867 76.7933 18.2963C76.1783 18.3059 75.6701 17.7987 75.6672 17.1731C75.6644 16.5437 76.1562 16.0375 76.774 16.0327V16.0336Z" fill="#F3F5F2"/>
<path d="M45.4824 11.9752C45.4901 12.6162 45.0089 13.1109 44.3746 13.1128C43.7442 13.1147 43.2524 12.621 43.2515 11.9858C43.2515 11.3689 43.7192 10.8867 44.3371 10.8684C44.9636 10.8501 45.4737 11.3439 45.4814 11.9762L45.4824 11.9752Z" fill="#F3F5F2"/>
<path d="M63.0386 11.746C62.4044 11.7547 61.8962 11.2619 61.8953 10.6363C61.8943 10.0146 62.4111 9.49391 63.0252 9.49968C63.6257 9.50546 64.131 9.99822 64.1512 10.5988C64.1724 11.2157 63.6661 11.7373 63.0386 11.746Z" fill="#F3F5F2"/>
<path d="M80.4259 17.484C81.0582 17.4908 81.5375 17.9835 81.5307 18.6178C81.524 19.2434 81.0187 19.7409 80.398 19.7352C79.7772 19.7294 79.2786 19.2155 79.2892 18.5937C79.2998 17.9633 79.7984 17.4763 80.4259 17.484Z" fill="#F3F5F2"/>
<path d="M72.9558 18.6083C72.3206 18.6044 71.8346 18.1069 71.8461 17.4726C71.8577 16.8586 72.3389 16.3831 72.9549 16.3783C73.5785 16.3735 74.0973 16.8798 74.0992 17.4948C74.1011 18.1107 73.5872 18.6121 72.9558 18.6083Z" fill="#F3F5F2"/>
<path d="M49.2935 10.6363C49.2926 11.258 48.7911 11.7508 48.1617 11.746C47.5419 11.7421 47.027 11.2282 47.0328 10.6199C47.0385 10.0117 47.564 9.49581 48.1742 9.49966C48.7882 9.5035 49.2935 10.0165 49.2926 10.6363H49.2935Z" fill="#F3F5F2"/>
<path d="M69.1026 14.3416C69.0949 13.7161 69.5887 13.2108 70.2133 13.205C70.8263 13.1992 71.3461 13.7064 71.3576 14.3214C71.3692 14.9306 70.8562 15.4542 70.2383 15.4619C69.6243 15.4696 69.1103 14.9634 69.1026 14.3416Z" fill="#F3F5F2"/>
<path d="M87.7399 24.2356C87.7303 24.8554 87.2144 25.3549 86.5975 25.3405C85.9796 25.327 85.482 24.8044 85.4974 24.1885C85.5138 23.5648 86.0296 23.0672 86.6437 23.0826C87.2635 23.098 87.7485 23.6081 87.7389 24.2356H87.7399Z" fill="#F3F5F2"/>
<path d="M77.0357 25.2951C77.0357 25.9072 76.5054 26.424 75.8884 26.4134C75.2927 26.4038 74.7797 25.8918 74.774 25.3047C74.7691 24.7157 75.3168 24.1613 75.9029 24.1623C76.5208 24.1633 77.0357 24.6791 77.0357 25.2951Z" fill="#F3F5F2"/>
<path d="M25.7422 24.1968C25.749 24.8205 25.2552 25.3306 24.6364 25.3402C24.0224 25.3498 23.5027 24.8417 23.495 24.2257C23.4873 23.6097 23.9935 23.0881 24.6066 23.0823C25.2264 23.0766 25.7355 23.5761 25.7422 24.1968Z" fill="#F3F5F2"/>
<path d="M88.399 29.0957C87.7831 29.09 87.2759 28.5722 87.2845 27.9581C87.2932 27.346 87.8187 26.8331 88.4289 26.8417C89.041 26.8504 89.5549 27.3788 89.5443 27.987C89.5328 28.6049 89.0198 29.1025 88.4 29.0967L88.399 29.0957Z" fill="#F3F5F2"/>
<path d="M27.3215 20.0595C27.9423 20.0701 28.4543 20.5995 28.436 21.2125C28.4177 21.8295 27.8797 22.3405 27.2715 22.3184C26.6642 22.2962 26.1868 21.7977 26.1887 21.1875C26.1907 20.56 26.7036 20.049 27.3215 20.0595Z" fill="#F3F5F2"/>
<path d="M40.8608 13.2049C41.4758 13.2078 41.9868 13.7236 41.983 14.3367C41.9791 14.9546 41.4632 15.4666 40.8502 15.4608C40.2438 15.4551 39.7222 14.9276 39.7241 14.3223C39.7261 13.7082 40.241 13.202 40.8608 13.2039V13.2049Z" fill="#F3F5F2"/>
<path d="M84.995 21.2029C84.9853 21.8179 84.4656 22.3261 83.8545 22.3184C83.2414 22.3107 82.7284 21.7842 82.7409 21.174C82.7535 20.5561 83.2741 20.0499 83.8853 20.0595C84.5032 20.0701 85.0036 20.586 84.995 21.2029Z" fill="#F3F5F2"/>
<path d="M34.3692 16.0337C34.9899 16.0356 35.501 16.5457 35.499 17.1617C35.4971 17.7747 34.9774 18.2954 34.3682 18.2973C33.757 18.2993 33.2354 17.7757 33.2383 17.1636C33.2412 16.5467 33.757 16.0318 34.3701 16.0337H34.3692Z" fill="#F3F5F2"/>
<path d="M37.4154 21.1201C37.4039 21.7351 36.8842 22.2413 36.2701 22.2355C35.6552 22.2307 35.1431 21.7062 35.1537 21.0941C35.1643 20.4801 35.685 19.9748 36.3019 19.9777C36.9159 19.9806 37.428 20.5051 37.4154 21.1201Z" fill="#F3F5F2"/>
<path d="M73.6781 21.0951C73.6877 20.4791 74.2036 19.9757 74.8224 19.9777C75.4336 19.9796 75.9504 20.5089 75.9389 21.1201C75.9264 21.7351 75.4066 22.2403 74.7916 22.2365C74.1757 22.2317 73.6685 21.712 73.6781 21.0951Z" fill="#F3F5F2"/>
<path d="M56.6898 21.8949C56.6975 22.509 56.1846 23.046 55.5811 23.0547C54.9873 23.0633 54.484 22.5648 54.4724 21.9556C54.4599 21.3242 54.9488 20.8141 55.5753 20.8054C56.173 20.7977 56.6831 21.2953 56.6898 21.8949Z" fill="#F3F5F2"/>
<path d="M74.8331 44.0165C74.1459 44.0916 73.4712 44.1676 72.7966 44.2388C71.9506 44.3284 71.1046 44.414 70.2577 44.5006C70.1393 44.5131 70.0209 44.543 69.9073 44.4612C68.6196 43.5276 67.3299 42.596 65.9565 41.6037C67.1605 41.4767 68.276 41.442 69.353 41.2216C70.5204 40.9829 71.4145 41.315 72.2865 42.0618C73.0689 42.7317 73.9476 43.2889 74.782 43.8972C74.8013 43.9107 74.8042 43.9472 74.8321 44.0175L74.8331 44.0165Z" fill="#F3F5F2"/>
<path d="M36.3342 43.947C36.7587 43.6391 37.1706 43.3388 37.5825 43.0395C38.3447 42.4861 39.1157 41.9433 39.8673 41.3764C40.1378 41.1724 40.3899 41.0877 40.7402 41.13C42.0674 41.2878 43.3994 41.4053 44.7295 41.54C44.8623 41.5535 44.9923 41.5881 45.1982 41.6266C44.3012 42.2772 43.411 42.8374 42.6237 43.5159C41.7152 44.2993 40.7787 44.6342 39.5661 44.3734C38.5478 44.154 37.4863 44.1357 36.4439 44.025C36.4189 44.0221 36.3958 43.9923 36.3342 43.947Z" fill="#F3F5F2"/>
<path d="M50.9717 40.9328C52.5144 40.3428 53.9735 39.7875 55.4306 39.2255C55.5692 39.1716 55.6876 39.1783 55.8214 39.2303C57.2785 39.7885 58.7366 40.3438 60.2793 40.9319C59.2582 41.3255 58.2746 41.6152 57.3767 42.0723C56.1726 42.6864 55.063 42.6758 53.8618 42.0656C52.9754 41.6152 52.0053 41.3303 50.9707 40.9328H50.9717Z" fill="#273023"/>
<path d="M51.7727 40.9328C53.0701 40.4372 54.2693 39.9762 55.4723 39.5238C55.5637 39.4892 55.6908 39.4882 55.7822 39.5229C56.9852 39.9752 58.1854 40.4372 59.4799 40.9328C58.3721 41.3582 57.3423 41.723 56.3404 42.1513C55.8245 42.3717 55.3818 42.3515 54.8727 42.134C53.8852 41.7124 52.8708 41.3534 51.7727 40.9328Z" fill="#F3F5F2"/>
<path d="M62.824 42.8876C61.927 42.8876 61.2052 42.1571 61.2187 41.2639C61.2322 40.3872 61.9444 39.6846 62.8211 39.6817C63.7056 39.6798 64.4486 40.4266 64.4351 41.3063C64.4217 42.1734 63.6931 42.8876 62.824 42.8866V42.8876Z" fill="#273023"/>
<path d="M47.8621 39.6827C48.7292 39.6894 49.4587 40.4266 49.4549 41.2928C49.451 42.1609 48.7206 42.8866 47.8486 42.8885C46.9468 42.8905 46.2307 42.1609 46.2471 41.2572C46.2635 40.3727 46.9776 39.6769 47.8621 39.6836V39.6827Z" fill="#273023"/>
<path d="M31.9319 45.2544C31.9367 44.3699 32.6431 43.6702 33.5305 43.6721C34.4054 43.6731 35.131 44.3911 35.1349 45.2592C35.1387 46.1379 34.3717 46.8992 33.5036 46.877C32.6239 46.8539 31.9271 46.136 31.9319 45.2544Z" fill="#273023"/>
<path d="M75.6676 45.2446C75.6762 44.3611 76.3903 43.6633 77.2777 43.672C78.1593 43.6806 78.8773 44.3986 78.8753 45.2696C78.8734 46.1319 78.1391 46.8711 77.2758 46.8788C76.3884 46.8865 75.6589 46.1454 75.6676 45.2446Z" fill="#273023"/>
<path d="M63.9972 41.288C63.9972 41.9453 63.4669 42.465 62.8057 42.4554C62.1676 42.4467 61.6431 41.9328 61.6315 41.3043C61.62 40.6643 62.1618 40.1157 62.8115 40.109C63.464 40.1032 63.9982 40.6326 63.9972 41.287V41.288Z" fill="#F3F5F2"/>
<path d="M47.8457 42.4562C47.1902 42.4571 46.6513 41.922 46.658 41.2772C46.6648 40.6324 47.2133 40.1001 47.8611 40.1088C48.4915 40.1175 49.0102 40.6381 49.0189 41.2705C49.0275 41.923 48.502 42.4543 47.8447 42.4562H47.8457Z" fill="#F3F5F2"/>
<path d="M34.6963 45.2742C34.6934 45.9161 34.1785 46.4387 33.5433 46.4455C32.8956 46.4532 32.3402 45.9027 32.347 45.2598C32.3528 44.614 32.9167 44.0673 33.5577 44.0846C34.1929 44.1029 34.7001 44.6323 34.6972 45.2742H34.6963Z" fill="#F3F5F2"/>
<path d="M78.4406 45.2772C78.4367 45.9287 77.8987 46.4542 77.2443 46.4456C76.6197 46.4369 76.0923 45.9066 76.0836 45.2801C76.0749 44.641 76.6264 44.0838 77.2635 44.0847C77.9141 44.0866 78.4444 44.6237 78.4396 45.2772H78.4406Z" fill="#F3F5F2"/>
</g>
<defs>
<clipPath id="clip0_9913_2583">
<rect width="109.569" height="153.417" fill="white" transform="translate(0.808105 0.871338)"/>
</clipPath>
</defs>
</svg>
