<svg width="80" height="81" viewBox="0 0 80 81" fill="none" xmlns="http://www.w3.org/2000/svg">
<path d="M59.2119 36.8695H20.7882V20.8597H59.2119M54.409 56.0814C53.1351 56.0814 51.9135 55.5753 51.0127 54.6746C50.112 53.7739 49.606 52.5522 49.606 51.2784C49.606 50.0046 50.112 48.7829 51.0127 47.8822C51.9135 46.9815 53.1351 46.4754 54.409 46.4754C55.6828 46.4754 56.9044 46.9815 57.8052 47.8822C58.7059 48.7829 59.2119 50.0046 59.2119 51.2784C59.2119 52.5522 58.7059 53.7739 57.8052 54.6746C56.9044 55.5753 55.6828 56.0814 54.409 56.0814ZM25.5912 56.0814C24.3174 56.0814 23.0957 55.5753 22.195 54.6746C21.2942 53.7739 20.7882 52.5522 20.7882 51.2784C20.7882 50.0046 21.2942 48.7829 22.195 47.8822C23.0957 46.9815 24.3174 46.4754 25.5912 46.4754C26.865 46.4754 28.0867 46.9815 28.9874 47.8822C29.8881 48.7829 30.3941 50.0046 30.3941 51.2784C30.3941 52.5522 29.8881 53.7739 28.9874 54.6746C28.0867 55.5753 26.865 56.0814 25.5912 56.0814ZM14.3843 52.8794C14.3843 55.6971 15.633 58.2267 17.5863 59.9878V65.6873C17.5863 66.5365 17.9236 67.3509 18.5241 67.9514C19.1246 68.5519 19.939 68.8893 20.7882 68.8893H23.9902C24.8394 68.8893 25.6538 68.5519 26.2543 67.9514C26.8548 67.3509 27.1922 66.5365 27.1922 65.6873V62.4853H52.808V65.6873C52.808 66.5365 53.1453 67.3509 53.7458 67.9514C54.3463 68.5519 55.1607 68.8893 56.0099 68.8893H59.2119C60.0611 68.8893 60.8756 68.5519 61.4761 67.9514C62.0765 67.3509 62.4139 66.5365 62.4139 65.6873V59.9878C64.3671 58.2267 65.6159 55.6971 65.6159 52.8794V20.8597C65.6159 9.65274 54.1528 8.05176 40.0001 8.05176C25.8473 8.05176 14.3843 9.65274 14.3843 20.8597V52.8794Z" fill="#273023"/>
</svg>
