<svg width="80" height="81" viewBox="0 0 80 81" fill="none" xmlns="http://www.w3.org/2000/svg">
<path d="M23.0335 18.4702L30.7001 26.1035L25.9668 30.8368L18.3335 23.1702L10.7001 30.8368L5.9668 26.1035L13.6335 18.4702L5.9668 10.8368L10.7001 6.10352L18.3335 13.7702L25.9668 6.10352L30.7001 10.8368M74.0335 54.1702L69.3001 49.4368L61.6668 57.1035L54.0335 49.4368L49.3001 54.1702L56.9668 61.8035L49.3001 69.4368L54.0335 74.1702L61.6668 66.5035L69.3001 74.1702L74.0335 69.4368L66.3668 61.8035M68.0001 22.9035L57.2668 36.8035L52.0001 32.5702L55.9001 27.5702C50.9257 28.5807 46.2853 30.826 42.4059 34.0996C38.5265 37.3732 35.5328 41.5699 33.7001 46.3035C36.6014 48.3957 38.6596 51.4559 39.5033 54.932C40.347 58.408 39.9207 62.0712 38.3014 65.2607C36.682 68.4501 33.9762 70.9559 30.672 72.326C27.3678 73.6961 23.6827 73.8404 20.2816 72.7327C16.8804 71.625 13.987 69.3384 12.1233 66.2853C10.2596 63.2321 9.54835 59.6135 10.1178 56.0821C10.6872 52.5507 12.4999 49.3391 15.2288 47.0265C17.9577 44.7139 21.4232 43.4526 25.0001 43.4702C25.8734 43.4737 26.7443 43.563 27.6001 43.7368C29.9095 38.0056 33.597 32.9325 38.3357 28.9671C43.0745 25.0016 48.7182 22.2663 54.7668 21.0035L50.0001 17.4035L54.2335 12.1368M33.3335 58.4702C33.3335 56.822 32.8447 55.2108 31.929 53.8404C31.0134 52.47 29.7119 51.4019 28.1892 50.7712C26.6664 50.1405 24.9909 49.9754 23.3744 50.297C21.7579 50.6185 20.273 51.4122 19.1076 52.5776C17.9421 53.7431 17.1485 55.2279 16.8269 56.8444C16.5054 58.4609 16.6704 60.1365 17.3011 61.6592C17.9319 63.1819 19 64.4834 20.3704 65.3991C21.7408 66.3148 23.352 66.8035 25.0001 66.8035C27.2103 66.8035 29.3299 65.9255 30.8927 64.3627C32.4555 62.7999 33.3335 60.6803 33.3335 58.4702Z" fill="#273023"/>
</svg>
