<svg width="81" height="81" viewBox="0 0 81 81" fill="none" xmlns="http://www.w3.org/2000/svg">
<path d="M63.3857 23.4699H36.7191V46.8032H10.0524V16.8032H3.38574V66.8032H10.0524V56.8032H70.0524V66.8032H76.7191V36.8032C76.7191 33.267 75.3143 29.8756 72.8138 27.3751C70.3133 24.8746 66.922 23.4699 63.3857 23.4699ZM23.3857 43.4699C26.0379 43.4699 28.5814 42.4163 30.4568 40.541C32.3322 38.6656 33.3857 36.1221 33.3857 33.4699C33.3857 30.8177 32.3322 28.2742 30.4568 26.3988C28.5814 24.5235 26.0379 23.4699 23.3857 23.4699C20.7336 23.4699 18.19 24.5235 16.3147 26.3988C14.4393 28.2742 13.3857 30.8177 13.3857 33.4699C13.3857 36.1221 14.4393 38.6656 16.3147 40.541C18.19 42.4163 20.7336 43.4699 23.3857 43.4699Z" fill="#273023"/>
</svg>
