<svg width="81" height="81" viewBox="0 0 81 81" fill="none" xmlns="http://www.w3.org/2000/svg">
<path d="M26.1618 48.8874L39.2868 31.3874L49.4951 44.5124L56.7868 35.7624L66.9951 48.8874M69.9118 16.804H46.5785L40.7451 10.9707H23.2451C21.698 10.9707 20.2143 11.5853 19.1203 12.6792C18.0264 13.7732 17.4118 15.2569 17.4118 16.804V51.804C17.4118 53.3511 18.0264 54.8349 19.1203 55.9288C20.2143 57.0228 21.698 57.6374 23.2451 57.6374H69.9118C71.4589 57.6374 72.9426 57.0228 74.0366 55.9288C75.1305 54.8349 75.7451 53.3511 75.7451 51.804V22.6374C75.7451 21.0903 75.1305 19.6065 74.0366 18.5126C72.9426 17.4186 71.4589 16.804 69.9118 16.804ZM11.5785 22.6374H5.74512V63.4707C5.74512 65.0178 6.3597 66.5015 7.45366 67.5955C8.54762 68.6894 10.0314 69.304 11.5785 69.304H64.0785V63.4707H11.5785V22.6374Z" fill="#273023"/>
</svg>
